<?xml version="1.0" encoding="utf-8" standalone="no"?>
<!DOCTYPE svg PUBLIC "-//W3C//DTD SVG 1.1//EN"
  "http://www.w3.org/Graphics/SVG/1.1/DTD/svg11.dtd">
<!-- Created with matplotlib (https://matplotlib.org/) -->
<svg height="156.215766pt" version="1.1" viewBox="0 0 466.662213 156.215766" width="466.662213pt" xmlns="http://www.w3.org/2000/svg" xmlns:xlink="http://www.w3.org/1999/xlink">
 <defs>
  <style type="text/css">
*{stroke-linecap:butt;stroke-linejoin:round;}
  </style>
 </defs>
 <g id="figure_1">
  <g id="patch_1">
   <path d="M 0 156.215766 
L 466.662213 156.215766 
L 466.662213 0 
L 0 0 
z
" style="fill:#ffffff;"/>
  </g>
  <g id="axes_1">
   <g id="patch_2">
    <path d="M 38.335937 113.853543 
L 97.964734 113.853543 
L 97.964734 38.948031 
L 38.335937 38.948031 
z
" style="fill:#ffffff;"/>
   </g>
   <g id="patch_3">
    <path clip-path="url(#pdc821dc1ca)" d="M 40.820471 113.853543 
L 42.476826 113.853543 
L 42.476826 102.352753 
L 40.820471 102.352753 
z
" style="fill:#1f77b4;"/>
   </g>
   <g id="patch_4">
    <path clip-path="url(#pdc821dc1ca)" d="M 50.758603 113.853543 
L 52.414959 113.853543 
L 52.414959 101.781323 
L 50.758603 101.781323 
z
" style="fill:#1f77b4;"/>
   </g>
   <g id="patch_5">
    <path clip-path="url(#pdc821dc1ca)" d="M 60.696736 113.853543 
L 62.353092 113.853543 
L 62.353092 99.075299 
L 60.696736 99.075299 
z
" style="fill:#1f77b4;"/>
   </g>
   <g id="patch_6">
    <path clip-path="url(#pdc821dc1ca)" d="M 70.634869 113.853543 
L 72.291224 113.853543 
L 72.291224 92.553473 
L 70.634869 92.553473 
z
" style="fill:#1f77b4;"/>
   </g>
   <g id="patch_7">
    <path clip-path="url(#pdc821dc1ca)" d="M 80.573002 113.853543 
L 82.229357 113.853543 
L 82.229357 79.545159 
L 80.573002 79.545159 
z
" style="fill:#1f77b4;"/>
   </g>
   <g id="patch_8">
    <path clip-path="url(#pdc821dc1ca)" d="M 90.511134 113.853543 
L 92.16749 113.853543 
L 92.16749 52.226271 
L 90.511134 52.226271 
z
" style="fill:#1f77b4;"/>
   </g>
   <g id="patch_9">
    <path clip-path="url(#pdc821dc1ca)" d="M 42.476826 113.853543 
L 44.133182 113.853543 
L 44.133182 101.012899 
L 42.476826 101.012899 
z
" style="fill:#ff7f0e;"/>
   </g>
   <g id="patch_10">
    <path clip-path="url(#pdc821dc1ca)" d="M 52.414959 113.853543 
L 54.071314 113.853543 
L 54.071314 100.438461 
L 52.414959 100.438461 
z
" style="fill:#ff7f0e;"/>
   </g>
   <g id="patch_11">
    <path clip-path="url(#pdc821dc1ca)" d="M 62.353092 113.853543 
L 64.009447 113.853543 
L 64.009447 97.345218 
L 62.353092 97.345218 
z
" style="fill:#ff7f0e;"/>
   </g>
   <g id="patch_12">
    <path clip-path="url(#pdc821dc1ca)" d="M 72.291224 113.853543 
L 73.94758 113.853543 
L 73.94758 89.782787 
L 72.291224 89.782787 
z
" style="fill:#ff7f0e;"/>
   </g>
   <g id="patch_13">
    <path clip-path="url(#pdc821dc1ca)" d="M 82.229357 113.853543 
L 83.885713 113.853543 
L 83.885713 74.536871 
L 82.229357 74.536871 
z
" style="fill:#ff7f0e;"/>
   </g>
   <g id="patch_14">
    <path clip-path="url(#pdc821dc1ca)" d="M 92.16749 113.853543 
L 93.823845 113.853543 
L 93.823845 42.514961 
L 92.16749 42.514961 
z
" style="fill:#ff7f0e;"/>
   </g>
   <g id="patch_15">
    <path clip-path="url(#pdc821dc1ca)" d="M 44.133182 113.853543 
L 45.789537 113.853543 
L 45.789537 101.127937 
L 44.133182 101.127937 
z
" style="fill:#2ca02c;"/>
   </g>
   <g id="patch_16">
    <path clip-path="url(#pdc821dc1ca)" d="M 54.071314 113.853543 
L 55.72767 113.853543 
L 55.72767 100.584326 
L 54.071314 100.584326 
z
" style="fill:#2ca02c;"/>
   </g>
   <g id="patch_17">
    <path clip-path="url(#pdc821dc1ca)" d="M 64.009447 113.853543 
L 65.665803 113.853543 
L 65.665803 97.159503 
L 64.009447 97.159503 
z
" style="fill:#2ca02c;"/>
   </g>
   <g id="patch_18">
    <path clip-path="url(#pdc821dc1ca)" d="M 73.94758 113.853543 
L 75.603935 113.853543 
L 75.603935 89.885795 
L 73.94758 89.885795 
z
" style="fill:#2ca02c;"/>
   </g>
   <g id="patch_19">
    <path clip-path="url(#pdc821dc1ca)" d="M 83.885713 113.853543 
L 85.542068 113.853543 
L 85.542068 74.471458 
L 83.885713 74.471458 
z
" style="fill:#2ca02c;"/>
   </g>
   <g id="patch_20">
    <path clip-path="url(#pdc821dc1ca)" d="M 93.823845 113.853543 
L 95.480201 113.853543 
L 95.480201 43.151805 
L 93.823845 43.151805 
z
" style="fill:#2ca02c;"/>
   </g>
   <g id="matplotlib.axis_1">
    <g id="xtick_1">
     <g id="line2d_1">
      <defs>
       <path d="M 0 0 
L 0 3.5 
" id="me823c9490e" style="stroke:#000000;stroke-width:0.8;"/>
      </defs>
      <g>
       <use style="stroke:#000000;stroke-width:0.8;" x="43.305004" xlink:href="#me823c9490e" y="113.853543"/>
      </g>
     </g>
     <g id="text_1">
      <!-- 36 -->
      <defs>
       <path d="M 40.578125 39.3125 
Q 47.65625 37.796875 51.625 33 
Q 55.609375 28.21875 55.609375 21.1875 
Q 55.609375 10.40625 48.1875 4.484375 
Q 40.765625 -1.421875 27.09375 -1.421875 
Q 22.515625 -1.421875 17.65625 -0.515625 
Q 12.796875 0.390625 7.625 2.203125 
L 7.625 11.71875 
Q 11.71875 9.328125 16.59375 8.109375 
Q 21.484375 6.890625 26.8125 6.890625 
Q 36.078125 6.890625 40.9375 10.546875 
Q 45.796875 14.203125 45.796875 21.1875 
Q 45.796875 27.640625 41.28125 31.265625 
Q 36.765625 34.90625 28.71875 34.90625 
L 20.21875 34.90625 
L 20.21875 43.015625 
L 29.109375 43.015625 
Q 36.375 43.015625 40.234375 45.921875 
Q 44.09375 48.828125 44.09375 54.296875 
Q 44.09375 59.90625 40.109375 62.90625 
Q 36.140625 65.921875 28.71875 65.921875 
Q 24.65625 65.921875 20.015625 65.03125 
Q 15.375 64.15625 9.8125 62.3125 
L 9.8125 71.09375 
Q 15.4375 72.65625 20.34375 73.4375 
Q 25.25 74.21875 29.59375 74.21875 
Q 40.828125 74.21875 47.359375 69.109375 
Q 53.90625 64.015625 53.90625 55.328125 
Q 53.90625 49.265625 50.4375 45.09375 
Q 46.96875 40.921875 40.578125 39.3125 
z
" id="DejaVuSans-51"/>
       <path d="M 33.015625 40.375 
Q 26.375 40.375 22.484375 35.828125 
Q 18.609375 31.296875 18.609375 23.390625 
Q 18.609375 15.53125 22.484375 10.953125 
Q 26.375 6.390625 33.015625 6.390625 
Q 39.65625 6.390625 43.53125 10.953125 
Q 47.40625 15.53125 47.40625 23.390625 
Q 47.40625 31.296875 43.53125 35.828125 
Q 39.65625 40.375 33.015625 40.375 
z
M 52.59375 71.296875 
L 52.59375 62.3125 
Q 48.875 64.0625 45.09375 64.984375 
Q 41.3125 65.921875 37.59375 65.921875 
Q 27.828125 65.921875 22.671875 59.328125 
Q 17.53125 52.734375 16.796875 39.40625 
Q 19.671875 43.65625 24.015625 45.921875 
Q 28.375 48.1875 33.59375 48.1875 
Q 44.578125 48.1875 50.953125 41.515625 
Q 57.328125 34.859375 57.328125 23.390625 
Q 57.328125 12.15625 50.6875 5.359375 
Q 44.046875 -1.421875 33.015625 -1.421875 
Q 20.359375 -1.421875 13.671875 8.265625 
Q 6.984375 17.96875 6.984375 36.375 
Q 6.984375 53.65625 15.1875 63.9375 
Q 23.390625 74.21875 37.203125 74.21875 
Q 40.921875 74.21875 44.703125 73.484375 
Q 48.484375 72.75 52.59375 71.296875 
z
" id="DejaVuSans-54"/>
      </defs>
      <g transform="translate(41.521548 130.913132)rotate(-45)scale(0.07 -0.07)">
       <use xlink:href="#DejaVuSans-51"/>
       <use x="63.623047" xlink:href="#DejaVuSans-54"/>
      </g>
     </g>
    </g>
    <g id="xtick_2">
     <g id="line2d_2">
      <g>
       <use style="stroke:#000000;stroke-width:0.8;" x="53.243137" xlink:href="#me823c9490e" y="113.853543"/>
      </g>
     </g>
     <g id="text_2">
      <!-- 72 -->
      <defs>
       <path d="M 8.203125 72.90625 
L 55.078125 72.90625 
L 55.078125 68.703125 
L 28.609375 0 
L 18.3125 0 
L 43.21875 64.59375 
L 8.203125 64.59375 
z
" id="DejaVuSans-55"/>
       <path d="M 19.1875 8.296875 
L 53.609375 8.296875 
L 53.609375 0 
L 7.328125 0 
L 7.328125 8.296875 
Q 12.9375 14.109375 22.625 23.890625 
Q 32.328125 33.6875 34.8125 36.53125 
Q 39.546875 41.84375 41.421875 45.53125 
Q 43.3125 49.21875 43.3125 52.78125 
Q 43.3125 58.59375 39.234375 62.25 
Q 35.15625 65.921875 28.609375 65.921875 
Q 23.96875 65.921875 18.8125 64.3125 
Q 13.671875 62.703125 7.8125 59.421875 
L 7.8125 69.390625 
Q 13.765625 71.78125 18.9375 73 
Q 24.125 74.21875 28.421875 74.21875 
Q 39.75 74.21875 46.484375 68.546875 
Q 53.21875 62.890625 53.21875 53.421875 
Q 53.21875 48.921875 51.53125 44.890625 
Q 49.859375 40.875 45.40625 35.40625 
Q 44.1875 33.984375 37.640625 27.21875 
Q 31.109375 20.453125 19.1875 8.296875 
z
" id="DejaVuSans-50"/>
      </defs>
      <g transform="translate(51.459681 130.913132)rotate(-45)scale(0.07 -0.07)">
       <use xlink:href="#DejaVuSans-55"/>
       <use x="63.623047" xlink:href="#DejaVuSans-50"/>
      </g>
     </g>
    </g>
    <g id="xtick_3">
     <g id="line2d_3">
      <g>
       <use style="stroke:#000000;stroke-width:0.8;" x="63.181269" xlink:href="#me823c9490e" y="113.853543"/>
      </g>
     </g>
     <g id="text_3">
      <!-- 144 -->
      <defs>
       <path d="M 12.40625 8.296875 
L 28.515625 8.296875 
L 28.515625 63.921875 
L 10.984375 60.40625 
L 10.984375 69.390625 
L 28.421875 72.90625 
L 38.28125 72.90625 
L 38.28125 8.296875 
L 54.390625 8.296875 
L 54.390625 0 
L 12.40625 0 
z
" id="DejaVuSans-49"/>
       <path d="M 37.796875 64.3125 
L 12.890625 25.390625 
L 37.796875 25.390625 
z
M 35.203125 72.90625 
L 47.609375 72.90625 
L 47.609375 25.390625 
L 58.015625 25.390625 
L 58.015625 17.1875 
L 47.609375 17.1875 
L 47.609375 0 
L 37.796875 0 
L 37.796875 17.1875 
L 4.890625 17.1875 
L 4.890625 26.703125 
z
" id="DejaVuSans-52"/>
      </defs>
      <g transform="translate(59.823175 134.062408)rotate(-45)scale(0.07 -0.07)">
       <use xlink:href="#DejaVuSans-49"/>
       <use x="63.623047" xlink:href="#DejaVuSans-52"/>
       <use x="127.246094" xlink:href="#DejaVuSans-52"/>
      </g>
     </g>
    </g>
    <g id="xtick_4">
     <g id="line2d_4">
      <g>
       <use style="stroke:#000000;stroke-width:0.8;" x="73.119402" xlink:href="#me823c9490e" y="113.853543"/>
      </g>
     </g>
     <g id="text_4">
      <!-- 288 -->
      <defs>
       <path d="M 31.78125 34.625 
Q 24.75 34.625 20.71875 30.859375 
Q 16.703125 27.09375 16.703125 20.515625 
Q 16.703125 13.921875 20.71875 10.15625 
Q 24.75 6.390625 31.78125 6.390625 
Q 38.8125 6.390625 42.859375 10.171875 
Q 46.921875 13.96875 46.921875 20.515625 
Q 46.921875 27.09375 42.890625 30.859375 
Q 38.875 34.625 31.78125 34.625 
z
M 21.921875 38.8125 
Q 15.578125 40.375 12.03125 44.71875 
Q 8.5 49.078125 8.5 55.328125 
Q 8.5 64.0625 14.71875 69.140625 
Q 20.953125 74.21875 31.78125 74.21875 
Q 42.671875 74.21875 48.875 69.140625 
Q 55.078125 64.0625 55.078125 55.328125 
Q 55.078125 49.078125 51.53125 44.71875 
Q 48 40.375 41.703125 38.8125 
Q 48.828125 37.15625 52.796875 32.3125 
Q 56.78125 27.484375 56.78125 20.515625 
Q 56.78125 9.90625 50.3125 4.234375 
Q 43.84375 -1.421875 31.78125 -1.421875 
Q 19.734375 -1.421875 13.25 4.234375 
Q 6.78125 9.90625 6.78125 20.515625 
Q 6.78125 27.484375 10.78125 32.3125 
Q 14.796875 37.15625 21.921875 38.8125 
z
M 18.3125 54.390625 
Q 18.3125 48.734375 21.84375 45.5625 
Q 25.390625 42.390625 31.78125 42.390625 
Q 38.140625 42.390625 41.71875 45.5625 
Q 45.3125 48.734375 45.3125 54.390625 
Q 45.3125 60.0625 41.71875 63.234375 
Q 38.140625 66.40625 31.78125 66.40625 
Q 25.390625 66.40625 21.84375 63.234375 
Q 18.3125 60.0625 18.3125 54.390625 
z
" id="DejaVuSans-56"/>
      </defs>
      <g transform="translate(69.761308 134.062408)rotate(-45)scale(0.07 -0.07)">
       <use xlink:href="#DejaVuSans-50"/>
       <use x="63.623047" xlink:href="#DejaVuSans-56"/>
       <use x="127.246094" xlink:href="#DejaVuSans-56"/>
      </g>
     </g>
    </g>
    <g id="xtick_5">
     <g id="line2d_5">
      <g>
       <use style="stroke:#000000;stroke-width:0.8;" x="83.057535" xlink:href="#me823c9490e" y="113.853543"/>
      </g>
     </g>
     <g id="text_5">
      <!-- 576 -->
      <defs>
       <path d="M 10.796875 72.90625 
L 49.515625 72.90625 
L 49.515625 64.59375 
L 19.828125 64.59375 
L 19.828125 46.734375 
Q 21.96875 47.46875 24.109375 47.828125 
Q 26.265625 48.1875 28.421875 48.1875 
Q 40.625 48.1875 47.75 41.5 
Q 54.890625 34.8125 54.890625 23.390625 
Q 54.890625 11.625 47.5625 5.09375 
Q 40.234375 -1.421875 26.90625 -1.421875 
Q 22.3125 -1.421875 17.546875 -0.640625 
Q 12.796875 0.140625 7.71875 1.703125 
L 7.71875 11.625 
Q 12.109375 9.234375 16.796875 8.0625 
Q 21.484375 6.890625 26.703125 6.890625 
Q 35.15625 6.890625 40.078125 11.328125 
Q 45.015625 15.765625 45.015625 23.390625 
Q 45.015625 31 40.078125 35.4375 
Q 35.15625 39.890625 26.703125 39.890625 
Q 22.75 39.890625 18.8125 39.015625 
Q 14.890625 38.140625 10.796875 36.28125 
z
" id="DejaVuSans-53"/>
      </defs>
      <g transform="translate(79.699441 134.062408)rotate(-45)scale(0.07 -0.07)">
       <use xlink:href="#DejaVuSans-53"/>
       <use x="63.623047" xlink:href="#DejaVuSans-55"/>
       <use x="127.246094" xlink:href="#DejaVuSans-54"/>
      </g>
     </g>
    </g>
    <g id="xtick_6">
     <g id="line2d_6">
      <g>
       <use style="stroke:#000000;stroke-width:0.8;" x="92.995668" xlink:href="#me823c9490e" y="113.853543"/>
      </g>
     </g>
     <g id="text_6">
      <!-- 1152 -->
      <g transform="translate(88.062935 137.211685)rotate(-45)scale(0.07 -0.07)">
       <use xlink:href="#DejaVuSans-49"/>
       <use x="63.623047" xlink:href="#DejaVuSans-49"/>
       <use x="127.246094" xlink:href="#DejaVuSans-53"/>
       <use x="190.869141" xlink:href="#DejaVuSans-50"/>
      </g>
     </g>
    </g>
    <g id="text_7">
     <!-- N_VP -->
     <defs>
      <path d="M 9.8125 72.90625 
L 23.09375 72.90625 
L 55.421875 11.921875 
L 55.421875 72.90625 
L 64.984375 72.90625 
L 64.984375 0 
L 51.703125 0 
L 19.390625 60.984375 
L 19.390625 0 
L 9.8125 0 
z
" id="DejaVuSans-78"/>
      <path d="M 50.984375 -16.609375 
L 50.984375 -23.578125 
L -0.984375 -23.578125 
L -0.984375 -16.609375 
z
" id="DejaVuSans-95"/>
      <path d="M 28.609375 0 
L 0.78125 72.90625 
L 11.078125 72.90625 
L 34.1875 11.53125 
L 57.328125 72.90625 
L 67.578125 72.90625 
L 39.796875 0 
z
" id="DejaVuSans-86"/>
      <path d="M 19.671875 64.796875 
L 19.671875 37.40625 
L 32.078125 37.40625 
Q 38.96875 37.40625 42.71875 40.96875 
Q 46.484375 44.53125 46.484375 51.125 
Q 46.484375 57.671875 42.71875 61.234375 
Q 38.96875 64.796875 32.078125 64.796875 
z
M 9.8125 72.90625 
L 32.078125 72.90625 
Q 44.34375 72.90625 50.609375 67.359375 
Q 56.890625 61.8125 56.890625 51.125 
Q 56.890625 40.328125 50.609375 34.8125 
Q 44.34375 29.296875 32.078125 29.296875 
L 19.671875 29.296875 
L 19.671875 0 
L 9.8125 0 
z
" id="DejaVuSans-80"/>
     </defs>
     <g transform="translate(59.277289 147.365297)scale(0.07 -0.07)">
      <use xlink:href="#DejaVuSans-78"/>
      <use x="74.804688" xlink:href="#DejaVuSans-95"/>
      <use x="124.804688" xlink:href="#DejaVuSans-86"/>
      <use x="193.212891" xlink:href="#DejaVuSans-80"/>
     </g>
    </g>
   </g>
   <g id="matplotlib.axis_2">
    <g id="ytick_1">
     <g id="line2d_7">
      <defs>
       <path d="M 0 0 
L -3.5 0 
" id="m01b73c2340" style="stroke:#000000;stroke-width:0.8;"/>
      </defs>
      <g>
       <use style="stroke:#000000;stroke-width:0.8;" x="38.335937" xlink:href="#m01b73c2340" y="113.853543"/>
      </g>
     </g>
     <g id="text_8">
      <!-- 0 -->
      <defs>
       <path d="M 31.78125 66.40625 
Q 24.171875 66.40625 20.328125 58.90625 
Q 16.5 51.421875 16.5 36.375 
Q 16.5 21.390625 20.328125 13.890625 
Q 24.171875 6.390625 31.78125 6.390625 
Q 39.453125 6.390625 43.28125 13.890625 
Q 47.125 21.390625 47.125 36.375 
Q 47.125 51.421875 43.28125 58.90625 
Q 39.453125 66.40625 31.78125 66.40625 
z
M 31.78125 74.21875 
Q 44.046875 74.21875 50.515625 64.515625 
Q 56.984375 54.828125 56.984375 36.375 
Q 56.984375 17.96875 50.515625 8.265625 
Q 44.046875 -1.421875 31.78125 -1.421875 
Q 19.53125 -1.421875 13.0625 8.265625 
Q 6.59375 17.96875 6.59375 36.375 
Q 6.59375 54.828125 13.0625 64.515625 
Q 19.53125 74.21875 31.78125 74.21875 
z
" id="DejaVuSans-48"/>
      </defs>
      <g transform="translate(26.882187 116.512996)scale(0.07 -0.07)">
       <use xlink:href="#DejaVuSans-48"/>
      </g>
     </g>
    </g>
    <g id="ytick_2">
     <g id="line2d_8">
      <g>
       <use style="stroke:#000000;stroke-width:0.8;" x="38.335937" xlink:href="#m01b73c2340" y="95.056488"/>
      </g>
     </g>
     <g id="text_9">
      <!-- 250 -->
      <g transform="translate(17.974687 97.715942)scale(0.07 -0.07)">
       <use xlink:href="#DejaVuSans-50"/>
       <use x="63.623047" xlink:href="#DejaVuSans-53"/>
       <use x="127.246094" xlink:href="#DejaVuSans-48"/>
      </g>
     </g>
    </g>
    <g id="ytick_3">
     <g id="line2d_9">
      <g>
       <use style="stroke:#000000;stroke-width:0.8;" x="38.335937" xlink:href="#m01b73c2340" y="76.259434"/>
      </g>
     </g>
     <g id="text_10">
      <!-- 500 -->
      <g transform="translate(17.974687 78.918887)scale(0.07 -0.07)">
       <use xlink:href="#DejaVuSans-53"/>
       <use x="63.623047" xlink:href="#DejaVuSans-48"/>
       <use x="127.246094" xlink:href="#DejaVuSans-48"/>
      </g>
     </g>
    </g>
    <g id="ytick_4">
     <g id="line2d_10">
      <g>
       <use style="stroke:#000000;stroke-width:0.8;" x="38.335937" xlink:href="#m01b73c2340" y="57.462379"/>
      </g>
     </g>
     <g id="text_11">
      <!-- 750 -->
      <g transform="translate(17.974687 60.121832)scale(0.07 -0.07)">
       <use xlink:href="#DejaVuSans-55"/>
       <use x="63.623047" xlink:href="#DejaVuSans-53"/>
       <use x="127.246094" xlink:href="#DejaVuSans-48"/>
      </g>
     </g>
    </g>
    <g id="text_12">
     <!-- Time [s] -->
     <defs>
      <path d="M -0.296875 72.90625 
L 61.375 72.90625 
L 61.375 64.59375 
L 35.5 64.59375 
L 35.5 0 
L 25.59375 0 
L 25.59375 64.59375 
L -0.296875 64.59375 
z
" id="DejaVuSans-84"/>
      <path d="M 9.421875 54.6875 
L 18.40625 54.6875 
L 18.40625 0 
L 9.421875 0 
z
M 9.421875 75.984375 
L 18.40625 75.984375 
L 18.40625 64.59375 
L 9.421875 64.59375 
z
" id="DejaVuSans-105"/>
      <path d="M 52 44.1875 
Q 55.375 50.25 60.0625 53.125 
Q 64.75 56 71.09375 56 
Q 79.640625 56 84.28125 50.015625 
Q 88.921875 44.046875 88.921875 33.015625 
L 88.921875 0 
L 79.890625 0 
L 79.890625 32.71875 
Q 79.890625 40.578125 77.09375 44.375 
Q 74.3125 48.1875 68.609375 48.1875 
Q 61.625 48.1875 57.5625 43.546875 
Q 53.515625 38.921875 53.515625 30.90625 
L 53.515625 0 
L 44.484375 0 
L 44.484375 32.71875 
Q 44.484375 40.625 41.703125 44.40625 
Q 38.921875 48.1875 33.109375 48.1875 
Q 26.21875 48.1875 22.15625 43.53125 
Q 18.109375 38.875 18.109375 30.90625 
L 18.109375 0 
L 9.078125 0 
L 9.078125 54.6875 
L 18.109375 54.6875 
L 18.109375 46.1875 
Q 21.1875 51.21875 25.484375 53.609375 
Q 29.78125 56 35.6875 56 
Q 41.65625 56 45.828125 52.96875 
Q 50 49.953125 52 44.1875 
z
" id="DejaVuSans-109"/>
      <path d="M 56.203125 29.59375 
L 56.203125 25.203125 
L 14.890625 25.203125 
Q 15.484375 15.921875 20.484375 11.0625 
Q 25.484375 6.203125 34.421875 6.203125 
Q 39.59375 6.203125 44.453125 7.46875 
Q 49.3125 8.734375 54.109375 11.28125 
L 54.109375 2.78125 
Q 49.265625 0.734375 44.1875 -0.34375 
Q 39.109375 -1.421875 33.890625 -1.421875 
Q 20.796875 -1.421875 13.15625 6.1875 
Q 5.515625 13.8125 5.515625 26.8125 
Q 5.515625 40.234375 12.765625 48.109375 
Q 20.015625 56 32.328125 56 
Q 43.359375 56 49.78125 48.890625 
Q 56.203125 41.796875 56.203125 29.59375 
z
M 47.21875 32.234375 
Q 47.125 39.59375 43.09375 43.984375 
Q 39.0625 48.390625 32.421875 48.390625 
Q 24.90625 48.390625 20.390625 44.140625 
Q 15.875 39.890625 15.1875 32.171875 
z
" id="DejaVuSans-101"/>
      <path id="DejaVuSans-32"/>
      <path d="M 8.59375 75.984375 
L 29.296875 75.984375 
L 29.296875 69 
L 17.578125 69 
L 17.578125 -6.203125 
L 29.296875 -6.203125 
L 29.296875 -13.1875 
L 8.59375 -13.1875 
z
" id="DejaVuSans-91"/>
      <path d="M 44.28125 53.078125 
L 44.28125 44.578125 
Q 40.484375 46.53125 36.375 47.5 
Q 32.28125 48.484375 27.875 48.484375 
Q 21.1875 48.484375 17.84375 46.4375 
Q 14.5 44.390625 14.5 40.28125 
Q 14.5 37.15625 16.890625 35.375 
Q 19.28125 33.59375 26.515625 31.984375 
L 29.59375 31.296875 
Q 39.15625 29.25 43.1875 25.515625 
Q 47.21875 21.78125 47.21875 15.09375 
Q 47.21875 7.46875 41.1875 3.015625 
Q 35.15625 -1.421875 24.609375 -1.421875 
Q 20.21875 -1.421875 15.453125 -0.5625 
Q 10.6875 0.296875 5.421875 2 
L 5.421875 11.28125 
Q 10.40625 8.6875 15.234375 7.390625 
Q 20.0625 6.109375 24.8125 6.109375 
Q 31.15625 6.109375 34.5625 8.28125 
Q 37.984375 10.453125 37.984375 14.40625 
Q 37.984375 18.0625 35.515625 20.015625 
Q 33.0625 21.96875 24.703125 23.78125 
L 21.578125 24.515625 
Q 13.234375 26.265625 9.515625 29.90625 
Q 5.8125 33.546875 5.8125 39.890625 
Q 5.8125 47.609375 11.28125 51.796875 
Q 16.75 56 26.8125 56 
Q 31.78125 56 36.171875 55.265625 
Q 40.578125 54.546875 44.28125 53.078125 
z
" id="DejaVuSans-115"/>
      <path d="M 30.421875 75.984375 
L 30.421875 -13.1875 
L 9.71875 -13.1875 
L 9.71875 -6.203125 
L 21.390625 -6.203125 
L 21.390625 69 
L 9.71875 69 
L 9.71875 75.984375 
z
" id="DejaVuSans-93"/>
     </defs>
     <g transform="translate(12.518906 90.738756)rotate(-90)scale(0.07 -0.07)">
      <use xlink:href="#DejaVuSans-84"/>
      <use x="61.037109" xlink:href="#DejaVuSans-105"/>
      <use x="88.820312" xlink:href="#DejaVuSans-109"/>
      <use x="186.232422" xlink:href="#DejaVuSans-101"/>
      <use x="247.755859" xlink:href="#DejaVuSans-32"/>
      <use x="279.542969" xlink:href="#DejaVuSans-91"/>
      <use x="318.556641" xlink:href="#DejaVuSans-115"/>
      <use x="370.65625" xlink:href="#DejaVuSans-93"/>
     </g>
    </g>
   </g>
   <g id="patch_21">
    <path d="M 38.335937 113.853543 
L 38.335937 38.948031 
" style="fill:none;stroke:#000000;stroke-linecap:square;stroke-linejoin:miter;stroke-width:0.8;"/>
   </g>
   <g id="patch_22">
    <path d="M 97.964734 113.853543 
L 97.964734 38.948031 
" style="fill:none;stroke:#000000;stroke-linecap:square;stroke-linejoin:miter;stroke-width:0.8;"/>
   </g>
   <g id="patch_23">
    <path d="M 38.335937 113.853543 
L 97.964734 113.853543 
" style="fill:none;stroke:#000000;stroke-linecap:square;stroke-linejoin:miter;stroke-width:0.8;"/>
   </g>
   <g id="patch_24">
    <path d="M 38.335937 38.948031 
L 97.964734 38.948031 
" style="fill:none;stroke:#000000;stroke-linecap:square;stroke-linejoin:miter;stroke-width:0.8;"/>
   </g>
   <g id="text_13">
    <!-- Conn. Creation (min) -->
    <defs>
     <path d="M 64.40625 67.28125 
L 64.40625 56.890625 
Q 59.421875 61.53125 53.78125 63.8125 
Q 48.140625 66.109375 41.796875 66.109375 
Q 29.296875 66.109375 22.65625 58.46875 
Q 16.015625 50.828125 16.015625 36.375 
Q 16.015625 21.96875 22.65625 14.328125 
Q 29.296875 6.6875 41.796875 6.6875 
Q 48.140625 6.6875 53.78125 8.984375 
Q 59.421875 11.28125 64.40625 15.921875 
L 64.40625 5.609375 
Q 59.234375 2.09375 53.4375 0.328125 
Q 47.65625 -1.421875 41.21875 -1.421875 
Q 24.65625 -1.421875 15.125 8.703125 
Q 5.609375 18.84375 5.609375 36.375 
Q 5.609375 53.953125 15.125 64.078125 
Q 24.65625 74.21875 41.21875 74.21875 
Q 47.75 74.21875 53.53125 72.484375 
Q 59.328125 70.75 64.40625 67.28125 
z
" id="DejaVuSans-67"/>
     <path d="M 30.609375 48.390625 
Q 23.390625 48.390625 19.1875 42.75 
Q 14.984375 37.109375 14.984375 27.296875 
Q 14.984375 17.484375 19.15625 11.84375 
Q 23.34375 6.203125 30.609375 6.203125 
Q 37.796875 6.203125 41.984375 11.859375 
Q 46.1875 17.53125 46.1875 27.296875 
Q 46.1875 37.015625 41.984375 42.703125 
Q 37.796875 48.390625 30.609375 48.390625 
z
M 30.609375 56 
Q 42.328125 56 49.015625 48.375 
Q 55.71875 40.765625 55.71875 27.296875 
Q 55.71875 13.875 49.015625 6.21875 
Q 42.328125 -1.421875 30.609375 -1.421875 
Q 18.84375 -1.421875 12.171875 6.21875 
Q 5.515625 13.875 5.515625 27.296875 
Q 5.515625 40.765625 12.171875 48.375 
Q 18.84375 56 30.609375 56 
z
" id="DejaVuSans-111"/>
     <path d="M 54.890625 33.015625 
L 54.890625 0 
L 45.90625 0 
L 45.90625 32.71875 
Q 45.90625 40.484375 42.875 44.328125 
Q 39.84375 48.1875 33.796875 48.1875 
Q 26.515625 48.1875 22.3125 43.546875 
Q 18.109375 38.921875 18.109375 30.90625 
L 18.109375 0 
L 9.078125 0 
L 9.078125 54.6875 
L 18.109375 54.6875 
L 18.109375 46.1875 
Q 21.34375 51.125 25.703125 53.5625 
Q 30.078125 56 35.796875 56 
Q 45.21875 56 50.046875 50.171875 
Q 54.890625 44.34375 54.890625 33.015625 
z
" id="DejaVuSans-110"/>
     <path d="M 10.6875 12.40625 
L 21 12.40625 
L 21 0 
L 10.6875 0 
z
" id="DejaVuSans-46"/>
     <path d="M 41.109375 46.296875 
Q 39.59375 47.171875 37.8125 47.578125 
Q 36.03125 48 33.890625 48 
Q 26.265625 48 22.1875 43.046875 
Q 18.109375 38.09375 18.109375 28.8125 
L 18.109375 0 
L 9.078125 0 
L 9.078125 54.6875 
L 18.109375 54.6875 
L 18.109375 46.1875 
Q 20.953125 51.171875 25.484375 53.578125 
Q 30.03125 56 36.53125 56 
Q 37.453125 56 38.578125 55.875 
Q 39.703125 55.765625 41.0625 55.515625 
z
" id="DejaVuSans-114"/>
     <path d="M 34.28125 27.484375 
Q 23.390625 27.484375 19.1875 25 
Q 14.984375 22.515625 14.984375 16.5 
Q 14.984375 11.71875 18.140625 8.90625 
Q 21.296875 6.109375 26.703125 6.109375 
Q 34.1875 6.109375 38.703125 11.40625 
Q 43.21875 16.703125 43.21875 25.484375 
L 43.21875 27.484375 
z
M 52.203125 31.203125 
L 52.203125 0 
L 43.21875 0 
L 43.21875 8.296875 
Q 40.140625 3.328125 35.546875 0.953125 
Q 30.953125 -1.421875 24.3125 -1.421875 
Q 15.921875 -1.421875 10.953125 3.296875 
Q 6 8.015625 6 15.921875 
Q 6 25.140625 12.171875 29.828125 
Q 18.359375 34.515625 30.609375 34.515625 
L 43.21875 34.515625 
L 43.21875 35.40625 
Q 43.21875 41.609375 39.140625 45 
Q 35.0625 48.390625 27.6875 48.390625 
Q 23 48.390625 18.546875 47.265625 
Q 14.109375 46.140625 10.015625 43.890625 
L 10.015625 52.203125 
Q 14.9375 54.109375 19.578125 55.046875 
Q 24.21875 56 28.609375 56 
Q 40.484375 56 46.34375 49.84375 
Q 52.203125 43.703125 52.203125 31.203125 
z
" id="DejaVuSans-97"/>
     <path d="M 18.3125 70.21875 
L 18.3125 54.6875 
L 36.8125 54.6875 
L 36.8125 47.703125 
L 18.3125 47.703125 
L 18.3125 18.015625 
Q 18.3125 11.328125 20.140625 9.421875 
Q 21.96875 7.515625 27.59375 7.515625 
L 36.8125 7.515625 
L 36.8125 0 
L 27.59375 0 
Q 17.1875 0 13.234375 3.875 
Q 9.28125 7.765625 9.28125 18.015625 
L 9.28125 47.703125 
L 2.6875 47.703125 
L 2.6875 54.6875 
L 9.28125 54.6875 
L 9.28125 70.21875 
z
" id="DejaVuSans-116"/>
     <path d="M 31 75.875 
Q 24.46875 64.65625 21.28125 53.65625 
Q 18.109375 42.671875 18.109375 31.390625 
Q 18.109375 20.125 21.3125 9.0625 
Q 24.515625 -2 31 -13.1875 
L 23.1875 -13.1875 
Q 15.875 -1.703125 12.234375 9.375 
Q 8.59375 20.453125 8.59375 31.390625 
Q 8.59375 42.28125 12.203125 53.3125 
Q 15.828125 64.359375 23.1875 75.875 
z
" id="DejaVuSans-40"/>
     <path d="M 8.015625 75.875 
L 15.828125 75.875 
Q 23.140625 64.359375 26.78125 53.3125 
Q 30.421875 42.28125 30.421875 31.390625 
Q 30.421875 20.453125 26.78125 9.375 
Q 23.140625 -1.703125 15.828125 -13.1875 
L 8.015625 -13.1875 
Q 14.5 -2 17.703125 9.0625 
Q 20.90625 20.125 20.90625 31.390625 
Q 20.90625 42.671875 17.703125 53.65625 
Q 14.5 64.65625 8.015625 75.875 
z
" id="DejaVuSans-41"/>
    </defs>
    <g transform="translate(31.576429 32.948031)scale(0.07 -0.07)">
     <use xlink:href="#DejaVuSans-67"/>
     <use x="69.824219" xlink:href="#DejaVuSans-111"/>
     <use x="131.005859" xlink:href="#DejaVuSans-110"/>
     <use x="194.384766" xlink:href="#DejaVuSans-110"/>
     <use x="257.763672" xlink:href="#DejaVuSans-46"/>
     <use x="289.550781" xlink:href="#DejaVuSans-32"/>
     <use x="321.337891" xlink:href="#DejaVuSans-67"/>
     <use x="391.162109" xlink:href="#DejaVuSans-114"/>
     <use x="432.244141" xlink:href="#DejaVuSans-101"/>
     <use x="493.767578" xlink:href="#DejaVuSans-97"/>
     <use x="555.046875" xlink:href="#DejaVuSans-116"/>
     <use x="594.255859" xlink:href="#DejaVuSans-105"/>
     <use x="622.039062" xlink:href="#DejaVuSans-111"/>
     <use x="683.220703" xlink:href="#DejaVuSans-110"/>
     <use x="746.599609" xlink:href="#DejaVuSans-32"/>
     <use x="778.386719" xlink:href="#DejaVuSans-40"/>
     <use x="817.400391" xlink:href="#DejaVuSans-109"/>
     <use x="914.8125" xlink:href="#DejaVuSans-105"/>
     <use x="942.595703" xlink:href="#DejaVuSans-110"/>
     <use x="1005.974609" xlink:href="#DejaVuSans-41"/>
    </g>
   </g>
   <g id="legend_1">
    <g id="patch_25">
     <path d="M 41.135937 59.761781 
L 109.274688 59.761781 
Q 110.074688 59.761781 110.074688 58.961781 
L 110.074688 41.748031 
Q 110.074688 40.948031 109.274688 40.948031 
L 41.135937 40.948031 
Q 40.335937 40.948031 40.335937 41.748031 
L 40.335937 58.961781 
Q 40.335937 59.761781 41.135937 59.761781 
z
" style="fill:#ffffff;opacity:0.8;stroke:#cccccc;stroke-linejoin:miter;"/>
    </g>
    <g id="patch_26">
     <path d="M 41.935937 45.587406 
L 49.935937 45.587406 
L 49.935937 42.787406 
L 41.935937 42.787406 
z
" style="fill:#1f77b4;"/>
    </g>
    <g id="text_14">
     <!-- NEST 2.20 -->
     <defs>
      <path d="M 9.8125 72.90625 
L 55.90625 72.90625 
L 55.90625 64.59375 
L 19.671875 64.59375 
L 19.671875 43.015625 
L 54.390625 43.015625 
L 54.390625 34.71875 
L 19.671875 34.71875 
L 19.671875 8.296875 
L 56.78125 8.296875 
L 56.78125 0 
L 9.8125 0 
z
" id="DejaVuSans-69"/>
      <path d="M 53.515625 70.515625 
L 53.515625 60.890625 
Q 47.90625 63.578125 42.921875 64.890625 
Q 37.9375 66.21875 33.296875 66.21875 
Q 25.25 66.21875 20.875 63.09375 
Q 16.5 59.96875 16.5 54.203125 
Q 16.5 49.359375 19.40625 46.890625 
Q 22.3125 44.4375 30.421875 42.921875 
L 36.375 41.703125 
Q 47.40625 39.59375 52.65625 34.296875 
Q 57.90625 29 57.90625 20.125 
Q 57.90625 9.515625 50.796875 4.046875 
Q 43.703125 -1.421875 29.984375 -1.421875 
Q 24.8125 -1.421875 18.96875 -0.25 
Q 13.140625 0.921875 6.890625 3.21875 
L 6.890625 13.375 
Q 12.890625 10.015625 18.65625 8.296875 
Q 24.421875 6.59375 29.984375 6.59375 
Q 38.421875 6.59375 43.015625 9.90625 
Q 47.609375 13.234375 47.609375 19.390625 
Q 47.609375 24.75 44.3125 27.78125 
Q 41.015625 30.8125 33.5 32.328125 
L 27.484375 33.5 
Q 16.453125 35.6875 11.515625 40.375 
Q 6.59375 45.0625 6.59375 53.421875 
Q 6.59375 63.09375 13.40625 68.65625 
Q 20.21875 74.21875 32.171875 74.21875 
Q 37.3125 74.21875 42.625 73.28125 
Q 47.953125 72.359375 53.515625 70.515625 
z
" id="DejaVuSans-83"/>
     </defs>
     <g transform="translate(53.135937 45.587406)scale(0.04 -0.04)">
      <use xlink:href="#DejaVuSans-78"/>
      <use x="74.804688" xlink:href="#DejaVuSans-69"/>
      <use x="137.988281" xlink:href="#DejaVuSans-83"/>
      <use x="201.464844" xlink:href="#DejaVuSans-84"/>
      <use x="262.548828" xlink:href="#DejaVuSans-32"/>
      <use x="294.335938" xlink:href="#DejaVuSans-50"/>
      <use x="357.958984" xlink:href="#DejaVuSans-46"/>
      <use x="389.746094" xlink:href="#DejaVuSans-50"/>
      <use x="453.369141" xlink:href="#DejaVuSans-48"/>
     </g>
    </g>
    <g id="patch_27">
     <path d="M 41.935937 51.458656 
L 49.935937 51.458656 
L 49.935937 48.658656 
L 41.935937 48.658656 
z
" style="fill:#ff7f0e;"/>
    </g>
    <g id="text_15">
     <!-- NEST 3.0 (47a9175e4) - old -->
     <defs>
      <path d="M 10.984375 1.515625 
L 10.984375 10.5 
Q 14.703125 8.734375 18.5 7.8125 
Q 22.3125 6.890625 25.984375 6.890625 
Q 35.75 6.890625 40.890625 13.453125 
Q 46.046875 20.015625 46.78125 33.40625 
Q 43.953125 29.203125 39.59375 26.953125 
Q 35.25 24.703125 29.984375 24.703125 
Q 19.046875 24.703125 12.671875 31.3125 
Q 6.296875 37.9375 6.296875 49.421875 
Q 6.296875 60.640625 12.9375 67.421875 
Q 19.578125 74.21875 30.609375 74.21875 
Q 43.265625 74.21875 49.921875 64.515625 
Q 56.59375 54.828125 56.59375 36.375 
Q 56.59375 19.140625 48.40625 8.859375 
Q 40.234375 -1.421875 26.421875 -1.421875 
Q 22.703125 -1.421875 18.890625 -0.6875 
Q 15.09375 0.046875 10.984375 1.515625 
z
M 30.609375 32.421875 
Q 37.25 32.421875 41.125 36.953125 
Q 45.015625 41.5 45.015625 49.421875 
Q 45.015625 57.28125 41.125 61.84375 
Q 37.25 66.40625 30.609375 66.40625 
Q 23.96875 66.40625 20.09375 61.84375 
Q 16.21875 57.28125 16.21875 49.421875 
Q 16.21875 41.5 20.09375 36.953125 
Q 23.96875 32.421875 30.609375 32.421875 
z
" id="DejaVuSans-57"/>
      <path d="M 4.890625 31.390625 
L 31.203125 31.390625 
L 31.203125 23.390625 
L 4.890625 23.390625 
z
" id="DejaVuSans-45"/>
      <path d="M 9.421875 75.984375 
L 18.40625 75.984375 
L 18.40625 0 
L 9.421875 0 
z
" id="DejaVuSans-108"/>
      <path d="M 45.40625 46.390625 
L 45.40625 75.984375 
L 54.390625 75.984375 
L 54.390625 0 
L 45.40625 0 
L 45.40625 8.203125 
Q 42.578125 3.328125 38.25 0.953125 
Q 33.9375 -1.421875 27.875 -1.421875 
Q 17.96875 -1.421875 11.734375 6.484375 
Q 5.515625 14.40625 5.515625 27.296875 
Q 5.515625 40.1875 11.734375 48.09375 
Q 17.96875 56 27.875 56 
Q 33.9375 56 38.25 53.625 
Q 42.578125 51.265625 45.40625 46.390625 
z
M 14.796875 27.296875 
Q 14.796875 17.390625 18.875 11.75 
Q 22.953125 6.109375 30.078125 6.109375 
Q 37.203125 6.109375 41.296875 11.75 
Q 45.40625 17.390625 45.40625 27.296875 
Q 45.40625 37.203125 41.296875 42.84375 
Q 37.203125 48.484375 30.078125 48.484375 
Q 22.953125 48.484375 18.875 42.84375 
Q 14.796875 37.203125 14.796875 27.296875 
z
" id="DejaVuSans-100"/>
     </defs>
     <g transform="translate(53.135937 51.458656)scale(0.04 -0.04)">
      <use xlink:href="#DejaVuSans-78"/>
      <use x="74.804688" xlink:href="#DejaVuSans-69"/>
      <use x="137.988281" xlink:href="#DejaVuSans-83"/>
      <use x="201.464844" xlink:href="#DejaVuSans-84"/>
      <use x="262.548828" xlink:href="#DejaVuSans-32"/>
      <use x="294.335938" xlink:href="#DejaVuSans-51"/>
      <use x="357.958984" xlink:href="#DejaVuSans-46"/>
      <use x="389.746094" xlink:href="#DejaVuSans-48"/>
      <use x="453.369141" xlink:href="#DejaVuSans-32"/>
      <use x="485.15625" xlink:href="#DejaVuSans-40"/>
      <use x="524.169922" xlink:href="#DejaVuSans-52"/>
      <use x="587.792969" xlink:href="#DejaVuSans-55"/>
      <use x="651.416016" xlink:href="#DejaVuSans-97"/>
      <use x="712.695312" xlink:href="#DejaVuSans-57"/>
      <use x="776.318359" xlink:href="#DejaVuSans-49"/>
      <use x="839.941406" xlink:href="#DejaVuSans-55"/>
      <use x="903.564453" xlink:href="#DejaVuSans-53"/>
      <use x="967.1875" xlink:href="#DejaVuSans-101"/>
      <use x="1028.710938" xlink:href="#DejaVuSans-52"/>
      <use x="1092.333984" xlink:href="#DejaVuSans-41"/>
      <use x="1131.347656" xlink:href="#DejaVuSans-32"/>
      <use x="1163.134766" xlink:href="#DejaVuSans-45"/>
      <use x="1199.21875" xlink:href="#DejaVuSans-32"/>
      <use x="1231.005859" xlink:href="#DejaVuSans-111"/>
      <use x="1292.1875" xlink:href="#DejaVuSans-108"/>
      <use x="1319.970703" xlink:href="#DejaVuSans-100"/>
     </g>
    </g>
    <g id="patch_28">
     <path d="M 41.935937 57.329906 
L 49.935937 57.329906 
L 49.935937 54.529906 
L 41.935937 54.529906 
z
" style="fill:#2ca02c;"/>
    </g>
    <g id="text_16">
     <!-- NEST 3.0 (630a97265) -->
     <g transform="translate(53.135937 57.329906)scale(0.04 -0.04)">
      <use xlink:href="#DejaVuSans-78"/>
      <use x="74.804688" xlink:href="#DejaVuSans-69"/>
      <use x="137.988281" xlink:href="#DejaVuSans-83"/>
      <use x="201.464844" xlink:href="#DejaVuSans-84"/>
      <use x="262.548828" xlink:href="#DejaVuSans-32"/>
      <use x="294.335938" xlink:href="#DejaVuSans-51"/>
      <use x="357.958984" xlink:href="#DejaVuSans-46"/>
      <use x="389.746094" xlink:href="#DejaVuSans-48"/>
      <use x="453.369141" xlink:href="#DejaVuSans-32"/>
      <use x="485.15625" xlink:href="#DejaVuSans-40"/>
      <use x="524.169922" xlink:href="#DejaVuSans-54"/>
      <use x="587.792969" xlink:href="#DejaVuSans-51"/>
      <use x="651.416016" xlink:href="#DejaVuSans-48"/>
      <use x="715.039062" xlink:href="#DejaVuSans-97"/>
      <use x="776.318359" xlink:href="#DejaVuSans-57"/>
      <use x="839.941406" xlink:href="#DejaVuSans-55"/>
      <use x="903.564453" xlink:href="#DejaVuSans-50"/>
      <use x="967.1875" xlink:href="#DejaVuSans-54"/>
      <use x="1030.810547" xlink:href="#DejaVuSans-53"/>
      <use x="1094.433594" xlink:href="#DejaVuSans-41"/>
     </g>
    </g>
   </g>
  </g>
  <g id="axes_2">
   <g id="patch_29">
    <path d="M 127.779132 113.853543 
L 187.407929 113.853543 
L 187.407929 38.948031 
L 127.779132 38.948031 
z
" style="fill:#ffffff;"/>
   </g>
   <g id="patch_30">
    <path clip-path="url(#pd945c05c09)" d="M 130.263665 113.853543 
L 131.920021 113.853543 
L 131.920021 91.477973 
L 130.263665 91.477973 
z
" style="fill:#1f77b4;"/>
   </g>
   <g id="patch_31">
    <path clip-path="url(#pd945c05c09)" d="M 140.201798 113.853543 
L 141.858153 113.853543 
L 141.858153 90.892991 
L 140.201798 90.892991 
z
" style="fill:#1f77b4;"/>
   </g>
   <g id="patch_32">
    <path clip-path="url(#pd945c05c09)" d="M 150.139931 113.853543 
L 151.796286 113.853543 
L 151.796286 87.353848 
L 150.139931 87.353848 
z
" style="fill:#1f77b4;"/>
   </g>
   <g id="patch_33">
    <path clip-path="url(#pd945c05c09)" d="M 160.078063 113.853543 
L 161.734419 113.853543 
L 161.734419 82.761738 
L 160.078063 82.761738 
z
" style="fill:#1f77b4;"/>
   </g>
   <g id="patch_34">
    <path clip-path="url(#pd945c05c09)" d="M 170.016196 113.853543 
L 171.672552 113.853543 
L 171.672552 74.77673 
L 170.016196 74.77673 
z
" style="fill:#1f77b4;"/>
   </g>
   <g id="patch_35">
    <path clip-path="url(#pd945c05c09)" d="M 179.954329 113.853543 
L 181.610684 113.853543 
L 181.610684 56.905523 
L 179.954329 56.905523 
z
" style="fill:#1f77b4;"/>
   </g>
   <g id="patch_36">
    <path clip-path="url(#pd945c05c09)" d="M 131.920021 113.853543 
L 133.576376 113.853543 
L 133.576376 90.92224 
L 131.920021 90.92224 
z
" style="fill:#ff7f0e;"/>
   </g>
   <g id="patch_37">
    <path clip-path="url(#pd945c05c09)" d="M 141.858153 113.853543 
L 143.514509 113.853543 
L 143.514509 89.313539 
L 141.858153 89.313539 
z
" style="fill:#ff7f0e;"/>
   </g>
   <g id="patch_38">
    <path clip-path="url(#pd945c05c09)" d="M 151.796286 113.853543 
L 153.452642 113.853543 
L 153.452642 86.534873 
L 151.796286 86.534873 
z
" style="fill:#ff7f0e;"/>
   </g>
   <g id="patch_39">
    <path clip-path="url(#pd945c05c09)" d="M 161.734419 113.853543 
L 163.390774 113.853543 
L 163.390774 80.597304 
L 161.734419 80.597304 
z
" style="fill:#ff7f0e;"/>
   </g>
   <g id="patch_40">
    <path clip-path="url(#pd945c05c09)" d="M 171.672552 113.853543 
L 173.328907 113.853543 
L 173.328907 70.623357 
L 171.672552 70.623357 
z
" style="fill:#ff7f0e;"/>
   </g>
   <g id="patch_41">
    <path clip-path="url(#pd945c05c09)" d="M 181.610684 113.853543 
L 183.26704 113.853543 
L 183.26704 51.933174 
L 181.610684 51.933174 
z
" style="fill:#ff7f0e;"/>
   </g>
   <g id="patch_42">
    <path clip-path="url(#pd945c05c09)" d="M 133.576376 113.853543 
L 135.232732 113.853543 
L 135.232732 76.297684 
L 133.576376 76.297684 
z
" style="fill:#2ca02c;"/>
   </g>
   <g id="patch_43">
    <path clip-path="url(#pd945c05c09)" d="M 143.514509 113.853543 
L 145.170864 113.853543 
L 145.170864 69.394894 
L 143.514509 69.394894 
z
" style="fill:#2ca02c;"/>
   </g>
   <g id="patch_44">
    <path clip-path="url(#pd945c05c09)" d="M 153.452642 113.853543 
L 155.108997 113.853543 
L 155.108997 65.153773 
L 153.452642 65.153773 
z
" style="fill:#2ca02c;"/>
   </g>
   <g id="patch_45">
    <path clip-path="url(#pd945c05c09)" d="M 163.390774 113.853543 
L 165.04713 113.853543 
L 165.04713 64.539542 
L 163.390774 64.539542 
z
" style="fill:#2ca02c;"/>
   </g>
   <g id="patch_46">
    <path clip-path="url(#pd945c05c09)" d="M 173.328907 113.853543 
L 174.985263 113.853543 
L 174.985263 57.461257 
L 173.328907 57.461257 
z
" style="fill:#2ca02c;"/>
   </g>
   <g id="patch_47">
    <path clip-path="url(#pd945c05c09)" d="M 183.26704 113.853543 
L 184.923395 113.853543 
L 184.923395 42.514961 
L 183.26704 42.514961 
z
" style="fill:#2ca02c;"/>
   </g>
   <g id="matplotlib.axis_3">
    <g id="xtick_7">
     <g id="line2d_11">
      <g>
       <use style="stroke:#000000;stroke-width:0.8;" x="132.748198" xlink:href="#me823c9490e" y="113.853543"/>
      </g>
     </g>
     <g id="text_17">
      <!-- 36 -->
      <g transform="translate(130.964743 130.913132)rotate(-45)scale(0.07 -0.07)">
       <use xlink:href="#DejaVuSans-51"/>
       <use x="63.623047" xlink:href="#DejaVuSans-54"/>
      </g>
     </g>
    </g>
    <g id="xtick_8">
     <g id="line2d_12">
      <g>
       <use style="stroke:#000000;stroke-width:0.8;" x="142.686331" xlink:href="#me823c9490e" y="113.853543"/>
      </g>
     </g>
     <g id="text_18">
      <!-- 72 -->
      <g transform="translate(140.902875 130.913132)rotate(-45)scale(0.07 -0.07)">
       <use xlink:href="#DejaVuSans-55"/>
       <use x="63.623047" xlink:href="#DejaVuSans-50"/>
      </g>
     </g>
    </g>
    <g id="xtick_9">
     <g id="line2d_13">
      <g>
       <use style="stroke:#000000;stroke-width:0.8;" x="152.624464" xlink:href="#me823c9490e" y="113.853543"/>
      </g>
     </g>
     <g id="text_19">
      <!-- 144 -->
      <g transform="translate(149.26637 134.062408)rotate(-45)scale(0.07 -0.07)">
       <use xlink:href="#DejaVuSans-49"/>
       <use x="63.623047" xlink:href="#DejaVuSans-52"/>
       <use x="127.246094" xlink:href="#DejaVuSans-52"/>
      </g>
     </g>
    </g>
    <g id="xtick_10">
     <g id="line2d_14">
      <g>
       <use style="stroke:#000000;stroke-width:0.8;" x="162.562597" xlink:href="#me823c9490e" y="113.853543"/>
      </g>
     </g>
     <g id="text_20">
      <!-- 288 -->
      <g transform="translate(159.204502 134.062408)rotate(-45)scale(0.07 -0.07)">
       <use xlink:href="#DejaVuSans-50"/>
       <use x="63.623047" xlink:href="#DejaVuSans-56"/>
       <use x="127.246094" xlink:href="#DejaVuSans-56"/>
      </g>
     </g>
    </g>
    <g id="xtick_11">
     <g id="line2d_15">
      <g>
       <use style="stroke:#000000;stroke-width:0.8;" x="172.500729" xlink:href="#me823c9490e" y="113.853543"/>
      </g>
     </g>
     <g id="text_21">
      <!-- 576 -->
      <g transform="translate(169.142635 134.062408)rotate(-45)scale(0.07 -0.07)">
       <use xlink:href="#DejaVuSans-53"/>
       <use x="63.623047" xlink:href="#DejaVuSans-55"/>
       <use x="127.246094" xlink:href="#DejaVuSans-54"/>
      </g>
     </g>
    </g>
    <g id="xtick_12">
     <g id="line2d_16">
      <g>
       <use style="stroke:#000000;stroke-width:0.8;" x="182.438862" xlink:href="#me823c9490e" y="113.853543"/>
      </g>
     </g>
     <g id="text_22">
      <!-- 1152 -->
      <g transform="translate(177.506129 137.211685)rotate(-45)scale(0.07 -0.07)">
       <use xlink:href="#DejaVuSans-49"/>
       <use x="63.623047" xlink:href="#DejaVuSans-49"/>
       <use x="127.246094" xlink:href="#DejaVuSans-53"/>
       <use x="190.869141" xlink:href="#DejaVuSans-50"/>
      </g>
     </g>
    </g>
    <g id="text_23">
     <!-- N_VP -->
     <g transform="translate(148.720483 147.365297)scale(0.07 -0.07)">
      <use xlink:href="#DejaVuSans-78"/>
      <use x="74.804688" xlink:href="#DejaVuSans-95"/>
      <use x="124.804688" xlink:href="#DejaVuSans-86"/>
      <use x="193.212891" xlink:href="#DejaVuSans-80"/>
     </g>
    </g>
   </g>
   <g id="matplotlib.axis_4">
    <g id="ytick_5">
     <g id="line2d_17">
      <g>
       <use style="stroke:#000000;stroke-width:0.8;" x="127.779132" xlink:href="#m01b73c2340" y="113.853543"/>
      </g>
     </g>
     <g id="text_24">
      <!-- 0 -->
      <g transform="translate(116.325382 116.512996)scale(0.07 -0.07)">
       <use xlink:href="#DejaVuSans-48"/>
      </g>
     </g>
    </g>
    <g id="ytick_6">
     <g id="line2d_18">
      <g>
       <use style="stroke:#000000;stroke-width:0.8;" x="127.779132" xlink:href="#m01b73c2340" y="84.604432"/>
      </g>
     </g>
     <g id="text_25">
      <!-- 10 -->
      <g transform="translate(111.871632 87.263885)scale(0.07 -0.07)">
       <use xlink:href="#DejaVuSans-49"/>
       <use x="63.623047" xlink:href="#DejaVuSans-48"/>
      </g>
     </g>
    </g>
    <g id="ytick_7">
     <g id="line2d_19">
      <g>
       <use style="stroke:#000000;stroke-width:0.8;" x="127.779132" xlink:href="#m01b73c2340" y="55.355321"/>
      </g>
     </g>
     <g id="text_26">
      <!-- 20 -->
      <g transform="translate(111.871632 58.014774)scale(0.07 -0.07)">
       <use xlink:href="#DejaVuSans-50"/>
       <use x="63.623047" xlink:href="#DejaVuSans-48"/>
      </g>
     </g>
    </g>
   </g>
   <g id="patch_48">
    <path d="M 127.779132 113.853543 
L 127.779132 38.948031 
" style="fill:none;stroke:#000000;stroke-linecap:square;stroke-linejoin:miter;stroke-width:0.8;"/>
   </g>
   <g id="patch_49">
    <path d="M 187.407929 113.853543 
L 187.407929 38.948031 
" style="fill:none;stroke:#000000;stroke-linecap:square;stroke-linejoin:miter;stroke-width:0.8;"/>
   </g>
   <g id="patch_50">
    <path d="M 127.779132 113.853543 
L 187.407929 113.853543 
" style="fill:none;stroke:#000000;stroke-linecap:square;stroke-linejoin:miter;stroke-width:0.8;"/>
   </g>
   <g id="patch_51">
    <path d="M 127.779132 38.948031 
L 187.407929 38.948031 
" style="fill:none;stroke:#000000;stroke-linecap:square;stroke-linejoin:miter;stroke-width:0.8;"/>
   </g>
   <g id="text_27">
    <!-- Conn. Exchange (min) -->
    <defs>
     <path d="M 54.890625 54.6875 
L 35.109375 28.078125 
L 55.90625 0 
L 45.3125 0 
L 29.390625 21.484375 
L 13.484375 0 
L 2.875 0 
L 24.125 28.609375 
L 4.6875 54.6875 
L 15.28125 54.6875 
L 29.78125 35.203125 
L 44.28125 54.6875 
z
" id="DejaVuSans-120"/>
     <path d="M 48.78125 52.59375 
L 48.78125 44.1875 
Q 44.96875 46.296875 41.140625 47.34375 
Q 37.3125 48.390625 33.40625 48.390625 
Q 24.65625 48.390625 19.8125 42.84375 
Q 14.984375 37.3125 14.984375 27.296875 
Q 14.984375 17.28125 19.8125 11.734375 
Q 24.65625 6.203125 33.40625 6.203125 
Q 37.3125 6.203125 41.140625 7.25 
Q 44.96875 8.296875 48.78125 10.40625 
L 48.78125 2.09375 
Q 45.015625 0.34375 40.984375 -0.53125 
Q 36.96875 -1.421875 32.421875 -1.421875 
Q 20.0625 -1.421875 12.78125 6.34375 
Q 5.515625 14.109375 5.515625 27.296875 
Q 5.515625 40.671875 12.859375 48.328125 
Q 20.21875 56 33.015625 56 
Q 37.15625 56 41.109375 55.140625 
Q 45.0625 54.296875 48.78125 52.59375 
z
" id="DejaVuSans-99"/>
     <path d="M 54.890625 33.015625 
L 54.890625 0 
L 45.90625 0 
L 45.90625 32.71875 
Q 45.90625 40.484375 42.875 44.328125 
Q 39.84375 48.1875 33.796875 48.1875 
Q 26.515625 48.1875 22.3125 43.546875 
Q 18.109375 38.921875 18.109375 30.90625 
L 18.109375 0 
L 9.078125 0 
L 9.078125 75.984375 
L 18.109375 75.984375 
L 18.109375 46.1875 
Q 21.34375 51.125 25.703125 53.5625 
Q 30.078125 56 35.796875 56 
Q 45.21875 56 50.046875 50.171875 
Q 54.890625 44.34375 54.890625 33.015625 
z
" id="DejaVuSans-104"/>
     <path d="M 45.40625 27.984375 
Q 45.40625 37.75 41.375 43.109375 
Q 37.359375 48.484375 30.078125 48.484375 
Q 22.859375 48.484375 18.828125 43.109375 
Q 14.796875 37.75 14.796875 27.984375 
Q 14.796875 18.265625 18.828125 12.890625 
Q 22.859375 7.515625 30.078125 7.515625 
Q 37.359375 7.515625 41.375 12.890625 
Q 45.40625 18.265625 45.40625 27.984375 
z
M 54.390625 6.78125 
Q 54.390625 -7.171875 48.1875 -13.984375 
Q 42 -20.796875 29.203125 -20.796875 
Q 24.46875 -20.796875 20.265625 -20.09375 
Q 16.0625 -19.390625 12.109375 -17.921875 
L 12.109375 -9.1875 
Q 16.0625 -11.328125 19.921875 -12.34375 
Q 23.78125 -13.375 27.78125 -13.375 
Q 36.625 -13.375 41.015625 -8.765625 
Q 45.40625 -4.15625 45.40625 5.171875 
L 45.40625 9.625 
Q 42.625 4.78125 38.28125 2.390625 
Q 33.9375 0 27.875 0 
Q 17.828125 0 11.671875 7.65625 
Q 5.515625 15.328125 5.515625 27.984375 
Q 5.515625 40.671875 11.671875 48.328125 
Q 17.828125 56 27.875 56 
Q 33.9375 56 38.28125 53.609375 
Q 42.625 51.21875 45.40625 46.390625 
L 45.40625 54.6875 
L 54.390625 54.6875 
z
" id="DejaVuSans-103"/>
    </defs>
    <g transform="translate(118.740249 32.948031)scale(0.07 -0.07)">
     <use xlink:href="#DejaVuSans-67"/>
     <use x="69.824219" xlink:href="#DejaVuSans-111"/>
     <use x="131.005859" xlink:href="#DejaVuSans-110"/>
     <use x="194.384766" xlink:href="#DejaVuSans-110"/>
     <use x="257.763672" xlink:href="#DejaVuSans-46"/>
     <use x="289.550781" xlink:href="#DejaVuSans-32"/>
     <use x="321.337891" xlink:href="#DejaVuSans-69"/>
     <use x="384.521484" xlink:href="#DejaVuSans-120"/>
     <use x="443.685547" xlink:href="#DejaVuSans-99"/>
     <use x="498.666016" xlink:href="#DejaVuSans-104"/>
     <use x="562.044922" xlink:href="#DejaVuSans-97"/>
     <use x="623.324219" xlink:href="#DejaVuSans-110"/>
     <use x="686.703125" xlink:href="#DejaVuSans-103"/>
     <use x="750.179688" xlink:href="#DejaVuSans-101"/>
     <use x="811.703125" xlink:href="#DejaVuSans-32"/>
     <use x="843.490234" xlink:href="#DejaVuSans-40"/>
     <use x="882.503906" xlink:href="#DejaVuSans-109"/>
     <use x="979.916016" xlink:href="#DejaVuSans-105"/>
     <use x="1007.699219" xlink:href="#DejaVuSans-110"/>
     <use x="1071.078125" xlink:href="#DejaVuSans-41"/>
    </g>
   </g>
  </g>
  <g id="axes_3">
   <g id="patch_52">
    <path d="M 217.222327 113.853543 
L 276.851123 113.853543 
L 276.851123 38.948031 
L 217.222327 38.948031 
z
" style="fill:#ffffff;"/>
   </g>
   <g id="patch_53">
    <path clip-path="url(#p0645d92334)" d="M 219.70686 113.853543 
L 221.363215 113.853543 
L 221.363215 102.044657 
L 219.70686 102.044657 
z
" style="fill:#1f77b4;"/>
   </g>
   <g id="patch_54">
    <path clip-path="url(#p0645d92334)" d="M 229.644993 113.853543 
L 231.301348 113.853543 
L 231.301348 101.46969 
L 229.644993 101.46969 
z
" style="fill:#1f77b4;"/>
   </g>
   <g id="patch_55">
    <path clip-path="url(#p0645d92334)" d="M 239.583125 113.853543 
L 241.239481 113.853543 
L 241.239481 98.732346 
L 239.583125 98.732346 
z
" style="fill:#1f77b4;"/>
   </g>
   <g id="patch_56">
    <path clip-path="url(#p0645d92334)" d="M 249.521258 113.853543 
L 251.177614 113.853543 
L 251.177614 92.240069 
L 249.521258 92.240069 
z
" style="fill:#1f77b4;"/>
   </g>
   <g id="patch_57">
    <path clip-path="url(#p0645d92334)" d="M 259.459391 113.853543 
L 261.115746 113.853543 
L 261.115746 79.315805 
L 259.459391 79.315805 
z
" style="fill:#1f77b4;"/>
   </g>
   <g id="patch_58">
    <path clip-path="url(#p0645d92334)" d="M 269.397524 113.853543 
L 271.053879 113.853543 
L 271.053879 52.148971 
L 269.397524 52.148971 
z
" style="fill:#1f77b4;"/>
   </g>
   <g id="patch_59">
    <path clip-path="url(#p0645d92334)" d="M 221.363215 113.853543 
L 223.019571 113.853543 
L 223.019571 100.719733 
L 221.363215 100.719733 
z
" style="fill:#ff7f0e;"/>
   </g>
   <g id="patch_60">
    <path clip-path="url(#p0645d92334)" d="M 231.301348 113.853543 
L 232.957704 113.853543 
L 232.957704 100.115355 
L 231.301348 100.115355 
z
" style="fill:#ff7f0e;"/>
   </g>
   <g id="patch_61">
    <path clip-path="url(#p0645d92334)" d="M 241.239481 113.853543 
L 242.895836 113.853543 
L 242.895836 97.017738 
L 241.239481 97.017738 
z
" style="fill:#ff7f0e;"/>
   </g>
   <g id="patch_62">
    <path clip-path="url(#p0645d92334)" d="M 251.177614 113.853543 
L 252.833969 113.853543 
L 252.833969 89.473315 
L 251.177614 89.473315 
z
" style="fill:#ff7f0e;"/>
   </g>
   <g id="patch_63">
    <path clip-path="url(#p0645d92334)" d="M 261.115746 113.853543 
L 262.772102 113.853543 
L 262.772102 74.308737 
L 261.115746 74.308737 
z
" style="fill:#ff7f0e;"/>
   </g>
   <g id="patch_64">
    <path clip-path="url(#p0645d92334)" d="M 271.053879 113.853543 
L 272.710234 113.853543 
L 272.710234 42.514961 
L 271.053879 42.514961 
z
" style="fill:#ff7f0e;"/>
   </g>
   <g id="patch_65">
    <path clip-path="url(#p0645d92334)" d="M 223.019571 113.853543 
L 224.675926 113.853543 
L 224.675926 100.4646 
L 223.019571 100.4646 
z
" style="fill:#2ca02c;"/>
   </g>
   <g id="patch_66">
    <path clip-path="url(#p0645d92334)" d="M 232.957704 113.853543 
L 234.614059 113.853543 
L 234.614059 99.757288 
L 232.957704 99.757288 
z
" style="fill:#2ca02c;"/>
   </g>
   <g id="patch_67">
    <path clip-path="url(#p0645d92334)" d="M 242.895836 113.853543 
L 244.552192 113.853543 
L 244.552192 96.298661 
L 242.895836 96.298661 
z
" style="fill:#2ca02c;"/>
   </g>
   <g id="patch_68">
    <path clip-path="url(#p0645d92334)" d="M 252.833969 113.853543 
L 254.490324 113.853543 
L 254.490324 89.171126 
L 252.833969 89.171126 
z
" style="fill:#2ca02c;"/>
   </g>
   <g id="patch_69">
    <path clip-path="url(#p0645d92334)" d="M 262.772102 113.853543 
L 264.428457 113.853543 
L 264.428457 73.913172 
L 262.772102 73.913172 
z
" style="fill:#2ca02c;"/>
   </g>
   <g id="patch_70">
    <path clip-path="url(#p0645d92334)" d="M 272.710234 113.853543 
L 274.36659 113.853543 
L 274.36659 42.900233 
L 272.710234 42.900233 
z
" style="fill:#2ca02c;"/>
   </g>
   <g id="matplotlib.axis_5">
    <g id="xtick_13">
     <g id="line2d_20">
      <g>
       <use style="stroke:#000000;stroke-width:0.8;" x="222.191393" xlink:href="#me823c9490e" y="113.853543"/>
      </g>
     </g>
     <g id="text_28">
      <!-- 36 -->
      <g transform="translate(220.407937 130.913132)rotate(-45)scale(0.07 -0.07)">
       <use xlink:href="#DejaVuSans-51"/>
       <use x="63.623047" xlink:href="#DejaVuSans-54"/>
      </g>
     </g>
    </g>
    <g id="xtick_14">
     <g id="line2d_21">
      <g>
       <use style="stroke:#000000;stroke-width:0.8;" x="232.129526" xlink:href="#me823c9490e" y="113.853543"/>
      </g>
     </g>
     <g id="text_29">
      <!-- 72 -->
      <g transform="translate(230.34607 130.913132)rotate(-45)scale(0.07 -0.07)">
       <use xlink:href="#DejaVuSans-55"/>
       <use x="63.623047" xlink:href="#DejaVuSans-50"/>
      </g>
     </g>
    </g>
    <g id="xtick_15">
     <g id="line2d_22">
      <g>
       <use style="stroke:#000000;stroke-width:0.8;" x="242.067659" xlink:href="#me823c9490e" y="113.853543"/>
      </g>
     </g>
     <g id="text_30">
      <!-- 144 -->
      <g transform="translate(238.709564 134.062408)rotate(-45)scale(0.07 -0.07)">
       <use xlink:href="#DejaVuSans-49"/>
       <use x="63.623047" xlink:href="#DejaVuSans-52"/>
       <use x="127.246094" xlink:href="#DejaVuSans-52"/>
      </g>
     </g>
    </g>
    <g id="xtick_16">
     <g id="line2d_23">
      <g>
       <use style="stroke:#000000;stroke-width:0.8;" x="252.005791" xlink:href="#me823c9490e" y="113.853543"/>
      </g>
     </g>
     <g id="text_31">
      <!-- 288 -->
      <g transform="translate(248.647697 134.062408)rotate(-45)scale(0.07 -0.07)">
       <use xlink:href="#DejaVuSans-50"/>
       <use x="63.623047" xlink:href="#DejaVuSans-56"/>
       <use x="127.246094" xlink:href="#DejaVuSans-56"/>
      </g>
     </g>
    </g>
    <g id="xtick_17">
     <g id="line2d_24">
      <g>
       <use style="stroke:#000000;stroke-width:0.8;" x="261.943924" xlink:href="#me823c9490e" y="113.853543"/>
      </g>
     </g>
     <g id="text_32">
      <!-- 576 -->
      <g transform="translate(258.58583 134.062408)rotate(-45)scale(0.07 -0.07)">
       <use xlink:href="#DejaVuSans-53"/>
       <use x="63.623047" xlink:href="#DejaVuSans-55"/>
       <use x="127.246094" xlink:href="#DejaVuSans-54"/>
      </g>
     </g>
    </g>
    <g id="xtick_18">
     <g id="line2d_25">
      <g>
       <use style="stroke:#000000;stroke-width:0.8;" x="271.882057" xlink:href="#me823c9490e" y="113.853543"/>
      </g>
     </g>
     <g id="text_33">
      <!-- 1152 -->
      <g transform="translate(266.949324 137.211685)rotate(-45)scale(0.07 -0.07)">
       <use xlink:href="#DejaVuSans-49"/>
       <use x="63.623047" xlink:href="#DejaVuSans-49"/>
       <use x="127.246094" xlink:href="#DejaVuSans-53"/>
       <use x="190.869141" xlink:href="#DejaVuSans-50"/>
      </g>
     </g>
    </g>
    <g id="text_34">
     <!-- N_VP -->
     <g transform="translate(238.163678 147.365297)scale(0.07 -0.07)">
      <use xlink:href="#DejaVuSans-78"/>
      <use x="74.804688" xlink:href="#DejaVuSans-95"/>
      <use x="124.804688" xlink:href="#DejaVuSans-86"/>
      <use x="193.212891" xlink:href="#DejaVuSans-80"/>
     </g>
    </g>
   </g>
   <g id="matplotlib.axis_6">
    <g id="ytick_8">
     <g id="line2d_26">
      <g>
       <use style="stroke:#000000;stroke-width:0.8;" x="217.222327" xlink:href="#m01b73c2340" y="113.853543"/>
      </g>
     </g>
     <g id="text_35">
      <!-- 0 -->
      <g transform="translate(205.768577 116.512996)scale(0.07 -0.07)">
       <use xlink:href="#DejaVuSans-48"/>
      </g>
     </g>
    </g>
    <g id="ytick_9">
     <g id="line2d_27">
      <g>
       <use style="stroke:#000000;stroke-width:0.8;" x="217.222327" xlink:href="#m01b73c2340" y="77.090932"/>
      </g>
     </g>
     <g id="text_36">
      <!-- 500 -->
      <g transform="translate(196.861077 79.750385)scale(0.07 -0.07)">
       <use xlink:href="#DejaVuSans-53"/>
       <use x="63.623047" xlink:href="#DejaVuSans-48"/>
       <use x="127.246094" xlink:href="#DejaVuSans-48"/>
      </g>
     </g>
    </g>
    <g id="ytick_10">
     <g id="line2d_28">
      <g>
       <use style="stroke:#000000;stroke-width:0.8;" x="217.222327" xlink:href="#m01b73c2340" y="40.328321"/>
      </g>
     </g>
     <g id="text_37">
      <!-- 1000 -->
      <g transform="translate(192.407327 42.987774)scale(0.07 -0.07)">
       <use xlink:href="#DejaVuSans-49"/>
       <use x="63.623047" xlink:href="#DejaVuSans-48"/>
       <use x="127.246094" xlink:href="#DejaVuSans-48"/>
       <use x="190.869141" xlink:href="#DejaVuSans-48"/>
      </g>
     </g>
    </g>
   </g>
   <g id="patch_71">
    <path d="M 217.222327 113.853543 
L 217.222327 38.948031 
" style="fill:none;stroke:#000000;stroke-linecap:square;stroke-linejoin:miter;stroke-width:0.8;"/>
   </g>
   <g id="patch_72">
    <path d="M 276.851123 113.853543 
L 276.851123 38.948031 
" style="fill:none;stroke:#000000;stroke-linecap:square;stroke-linejoin:miter;stroke-width:0.8;"/>
   </g>
   <g id="patch_73">
    <path d="M 217.222327 113.853543 
L 276.851123 113.853543 
" style="fill:none;stroke:#000000;stroke-linecap:square;stroke-linejoin:miter;stroke-width:0.8;"/>
   </g>
   <g id="patch_74">
    <path d="M 217.222327 38.948031 
L 276.851123 38.948031 
" style="fill:none;stroke:#000000;stroke-linecap:square;stroke-linejoin:miter;stroke-width:0.8;"/>
   </g>
   <g id="text_38">
    <!-- Conn. Total -->
    <g transform="translate(227.030944 32.948031)scale(0.07 -0.07)">
     <use xlink:href="#DejaVuSans-67"/>
     <use x="69.824219" xlink:href="#DejaVuSans-111"/>
     <use x="131.005859" xlink:href="#DejaVuSans-110"/>
     <use x="194.384766" xlink:href="#DejaVuSans-110"/>
     <use x="257.763672" xlink:href="#DejaVuSans-46"/>
     <use x="289.550781" xlink:href="#DejaVuSans-32"/>
     <use x="321.337891" xlink:href="#DejaVuSans-84"/>
     <use x="382.15625" xlink:href="#DejaVuSans-111"/>
     <use x="443.337891" xlink:href="#DejaVuSans-116"/>
     <use x="482.546875" xlink:href="#DejaVuSans-97"/>
     <use x="543.826172" xlink:href="#DejaVuSans-108"/>
    </g>
   </g>
  </g>
  <g id="axes_4">
   <g id="patch_75">
    <path d="M 306.665521 113.853543 
L 366.294318 113.853543 
L 366.294318 38.948031 
L 306.665521 38.948031 
z
" style="fill:#ffffff;"/>
   </g>
   <g id="patch_76">
    <path clip-path="url(#p2b3b4a8239)" d="M 309.150054 113.853543 
L 310.80641 113.853543 
L 310.80641 110.088446 
L 309.150054 110.088446 
z
" style="fill:#1f77b4;"/>
   </g>
   <g id="patch_77">
    <path clip-path="url(#p2b3b4a8239)" d="M 319.088187 113.853543 
L 320.744543 113.853543 
L 320.744543 109.341092 
L 319.088187 109.341092 
z
" style="fill:#1f77b4;"/>
   </g>
   <g id="patch_78">
    <path clip-path="url(#p2b3b4a8239)" d="M 329.02632 113.853543 
L 330.682675 113.853543 
L 330.682675 107.521127 
L 329.02632 107.521127 
z
" style="fill:#1f77b4;"/>
   </g>
   <g id="patch_79">
    <path clip-path="url(#p2b3b4a8239)" d="M 338.964453 113.853543 
L 340.620808 113.853543 
L 340.620808 102.234825 
L 338.964453 102.234825 
z
" style="fill:#1f77b4;"/>
   </g>
   <g id="patch_80">
    <path clip-path="url(#p2b3b4a8239)" d="M 348.902585 113.853543 
L 350.558941 113.853543 
L 350.558941 92.790562 
L 348.902585 92.790562 
z
" style="fill:#1f77b4;"/>
   </g>
   <g id="patch_81">
    <path clip-path="url(#p2b3b4a8239)" d="M 358.840718 113.853543 
L 360.497074 113.853543 
L 360.497074 65.424401 
L 358.840718 65.424401 
z
" style="fill:#1f77b4;"/>
   </g>
   <g id="patch_82">
    <path clip-path="url(#p2b3b4a8239)" d="M 310.80641 113.853543 
L 312.462765 113.853543 
L 312.462765 109.736696 
L 310.80641 109.736696 
z
" style="fill:#ff7f0e;"/>
   </g>
   <g id="patch_83">
    <path clip-path="url(#p2b3b4a8239)" d="M 320.744543 113.853543 
L 322.400898 113.853543 
L 322.400898 108.712509 
L 320.744543 108.712509 
z
" style="fill:#ff7f0e;"/>
   </g>
   <g id="patch_84">
    <path clip-path="url(#p2b3b4a8239)" d="M 330.682675 113.853543 
L 332.339031 113.853543 
L 332.339031 106.31604 
L 330.682675 106.31604 
z
" style="fill:#ff7f0e;"/>
   </g>
   <g id="patch_85">
    <path clip-path="url(#p2b3b4a8239)" d="M 340.620808 113.853543 
L 342.277164 113.853543 
L 342.277164 97.058159 
L 340.620808 97.058159 
z
" style="fill:#ff7f0e;"/>
   </g>
   <g id="patch_86">
    <path clip-path="url(#p2b3b4a8239)" d="M 350.558941 113.853543 
L 352.215296 113.853543 
L 352.215296 81.36919 
L 350.558941 81.36919 
z
" style="fill:#ff7f0e;"/>
   </g>
   <g id="patch_87">
    <path clip-path="url(#p2b3b4a8239)" d="M 360.497074 113.853543 
L 362.153429 113.853543 
L 362.153429 42.514961 
L 360.497074 42.514961 
z
" style="fill:#ff7f0e;"/>
   </g>
   <g id="patch_88">
    <path clip-path="url(#p2b3b4a8239)" d="M 312.462765 113.853543 
L 314.119121 113.853543 
L 314.119121 109.891101 
L 312.462765 109.891101 
z
" style="fill:#2ca02c;"/>
   </g>
   <g id="patch_89">
    <path clip-path="url(#p2b3b4a8239)" d="M 322.400898 113.853543 
L 324.057254 113.853543 
L 324.057254 109.069741 
L 322.400898 109.069741 
z
" style="fill:#2ca02c;"/>
   </g>
   <g id="patch_90">
    <path clip-path="url(#p2b3b4a8239)" d="M 332.339031 113.853543 
L 333.995386 113.853543 
L 333.995386 106.374513 
L 332.339031 106.374513 
z
" style="fill:#2ca02c;"/>
   </g>
   <g id="patch_91">
    <path clip-path="url(#p2b3b4a8239)" d="M 342.277164 113.853543 
L 343.933519 113.853543 
L 343.933519 91.556239 
L 342.277164 91.556239 
z
" style="fill:#2ca02c;"/>
   </g>
   <g id="patch_92">
    <path clip-path="url(#p2b3b4a8239)" d="M 352.215296 113.853543 
L 353.871652 113.853543 
L 353.871652 81.520853 
L 352.215296 81.520853 
z
" style="fill:#2ca02c;"/>
   </g>
   <g id="patch_93">
    <path clip-path="url(#p2b3b4a8239)" d="M 362.153429 113.853543 
L 363.809785 113.853543 
L 363.809785 52.889306 
L 362.153429 52.889306 
z
" style="fill:#2ca02c;"/>
   </g>
   <g id="matplotlib.axis_7">
    <g id="xtick_19">
     <g id="line2d_29">
      <g>
       <use style="stroke:#000000;stroke-width:0.8;" x="311.634588" xlink:href="#me823c9490e" y="113.853543"/>
      </g>
     </g>
     <g id="text_39">
      <!-- 36 -->
      <g transform="translate(309.851132 130.913132)rotate(-45)scale(0.07 -0.07)">
       <use xlink:href="#DejaVuSans-51"/>
       <use x="63.623047" xlink:href="#DejaVuSans-54"/>
      </g>
     </g>
    </g>
    <g id="xtick_20">
     <g id="line2d_30">
      <g>
       <use style="stroke:#000000;stroke-width:0.8;" x="321.57272" xlink:href="#me823c9490e" y="113.853543"/>
      </g>
     </g>
     <g id="text_40">
      <!-- 72 -->
      <g transform="translate(319.789265 130.913132)rotate(-45)scale(0.07 -0.07)">
       <use xlink:href="#DejaVuSans-55"/>
       <use x="63.623047" xlink:href="#DejaVuSans-50"/>
      </g>
     </g>
    </g>
    <g id="xtick_21">
     <g id="line2d_31">
      <g>
       <use style="stroke:#000000;stroke-width:0.8;" x="331.510853" xlink:href="#me823c9490e" y="113.853543"/>
      </g>
     </g>
     <g id="text_41">
      <!-- 144 -->
      <g transform="translate(328.152759 134.062408)rotate(-45)scale(0.07 -0.07)">
       <use xlink:href="#DejaVuSans-49"/>
       <use x="63.623047" xlink:href="#DejaVuSans-52"/>
       <use x="127.246094" xlink:href="#DejaVuSans-52"/>
      </g>
     </g>
    </g>
    <g id="xtick_22">
     <g id="line2d_32">
      <g>
       <use style="stroke:#000000;stroke-width:0.8;" x="341.448986" xlink:href="#me823c9490e" y="113.853543"/>
      </g>
     </g>
     <g id="text_42">
      <!-- 288 -->
      <g transform="translate(338.090892 134.062408)rotate(-45)scale(0.07 -0.07)">
       <use xlink:href="#DejaVuSans-50"/>
       <use x="63.623047" xlink:href="#DejaVuSans-56"/>
       <use x="127.246094" xlink:href="#DejaVuSans-56"/>
      </g>
     </g>
    </g>
    <g id="xtick_23">
     <g id="line2d_33">
      <g>
       <use style="stroke:#000000;stroke-width:0.8;" x="351.387119" xlink:href="#me823c9490e" y="113.853543"/>
      </g>
     </g>
     <g id="text_43">
      <!-- 576 -->
      <g transform="translate(348.029024 134.062408)rotate(-45)scale(0.07 -0.07)">
       <use xlink:href="#DejaVuSans-53"/>
       <use x="63.623047" xlink:href="#DejaVuSans-55"/>
       <use x="127.246094" xlink:href="#DejaVuSans-54"/>
      </g>
     </g>
    </g>
    <g id="xtick_24">
     <g id="line2d_34">
      <g>
       <use style="stroke:#000000;stroke-width:0.8;" x="361.325251" xlink:href="#me823c9490e" y="113.853543"/>
      </g>
     </g>
     <g id="text_44">
      <!-- 1152 -->
      <g transform="translate(356.392519 137.211685)rotate(-45)scale(0.07 -0.07)">
       <use xlink:href="#DejaVuSans-49"/>
       <use x="63.623047" xlink:href="#DejaVuSans-49"/>
       <use x="127.246094" xlink:href="#DejaVuSans-53"/>
       <use x="190.869141" xlink:href="#DejaVuSans-50"/>
      </g>
     </g>
    </g>
    <g id="text_45">
     <!-- N_VP -->
     <g transform="translate(327.606873 147.365297)scale(0.07 -0.07)">
      <use xlink:href="#DejaVuSans-78"/>
      <use x="74.804688" xlink:href="#DejaVuSans-95"/>
      <use x="124.804688" xlink:href="#DejaVuSans-86"/>
      <use x="193.212891" xlink:href="#DejaVuSans-80"/>
     </g>
    </g>
   </g>
   <g id="matplotlib.axis_8">
    <g id="ytick_11">
     <g id="line2d_35">
      <g>
       <use style="stroke:#000000;stroke-width:0.8;" x="306.665521" xlink:href="#m01b73c2340" y="113.853543"/>
      </g>
     </g>
     <g id="text_46">
      <!-- 0 -->
      <g transform="translate(295.211771 116.512996)scale(0.07 -0.07)">
       <use xlink:href="#DejaVuSans-48"/>
      </g>
     </g>
    </g>
    <g id="ytick_12">
     <g id="line2d_36">
      <g>
       <use style="stroke:#000000;stroke-width:0.8;" x="306.665521" xlink:href="#m01b73c2340" y="91.012625"/>
      </g>
     </g>
     <g id="text_47">
      <!-- 250 -->
      <g transform="translate(286.304271 93.672078)scale(0.07 -0.07)">
       <use xlink:href="#DejaVuSans-50"/>
       <use x="63.623047" xlink:href="#DejaVuSans-53"/>
       <use x="127.246094" xlink:href="#DejaVuSans-48"/>
      </g>
     </g>
    </g>
    <g id="ytick_13">
     <g id="line2d_37">
      <g>
       <use style="stroke:#000000;stroke-width:0.8;" x="306.665521" xlink:href="#m01b73c2340" y="68.171707"/>
      </g>
     </g>
     <g id="text_48">
      <!-- 500 -->
      <g transform="translate(286.304271 70.83116)scale(0.07 -0.07)">
       <use xlink:href="#DejaVuSans-53"/>
       <use x="63.623047" xlink:href="#DejaVuSans-48"/>
       <use x="127.246094" xlink:href="#DejaVuSans-48"/>
      </g>
     </g>
    </g>
    <g id="ytick_14">
     <g id="line2d_38">
      <g>
       <use style="stroke:#000000;stroke-width:0.8;" x="306.665521" xlink:href="#m01b73c2340" y="45.330789"/>
      </g>
     </g>
     <g id="text_49">
      <!-- 750 -->
      <g transform="translate(286.304271 47.990242)scale(0.07 -0.07)">
       <use xlink:href="#DejaVuSans-55"/>
       <use x="63.623047" xlink:href="#DejaVuSans-53"/>
       <use x="127.246094" xlink:href="#DejaVuSans-48"/>
      </g>
     </g>
    </g>
   </g>
   <g id="patch_94">
    <path d="M 306.665521 113.853543 
L 306.665521 38.948031 
" style="fill:none;stroke:#000000;stroke-linecap:square;stroke-linejoin:miter;stroke-width:0.8;"/>
   </g>
   <g id="patch_95">
    <path d="M 366.294318 113.853543 
L 366.294318 38.948031 
" style="fill:none;stroke:#000000;stroke-linecap:square;stroke-linejoin:miter;stroke-width:0.8;"/>
   </g>
   <g id="patch_96">
    <path d="M 306.665521 113.853543 
L 366.294318 113.853543 
" style="fill:none;stroke:#000000;stroke-linecap:square;stroke-linejoin:miter;stroke-width:0.8;"/>
   </g>
   <g id="patch_97">
    <path d="M 306.665521 38.948031 
L 366.294318 38.948031 
" style="fill:none;stroke:#000000;stroke-linecap:square;stroke-linejoin:miter;stroke-width:0.8;"/>
   </g>
   <g id="text_50">
    <!-- Simulation time -->
    <defs>
     <path d="M 8.5 21.578125 
L 8.5 54.6875 
L 17.484375 54.6875 
L 17.484375 21.921875 
Q 17.484375 14.15625 20.5 10.265625 
Q 23.53125 6.390625 29.59375 6.390625 
Q 36.859375 6.390625 41.078125 11.03125 
Q 45.3125 15.671875 45.3125 23.6875 
L 45.3125 54.6875 
L 54.296875 54.6875 
L 54.296875 0 
L 45.3125 0 
L 45.3125 8.40625 
Q 42.046875 3.421875 37.71875 1 
Q 33.40625 -1.421875 27.6875 -1.421875 
Q 18.265625 -1.421875 13.375 4.4375 
Q 8.5 10.296875 8.5 21.578125 
z
M 31.109375 56 
z
" id="DejaVuSans-117"/>
    </defs>
    <g transform="translate(308.817341 32.948031)scale(0.07 -0.07)">
     <use xlink:href="#DejaVuSans-83"/>
     <use x="63.476562" xlink:href="#DejaVuSans-105"/>
     <use x="91.259766" xlink:href="#DejaVuSans-109"/>
     <use x="188.671875" xlink:href="#DejaVuSans-117"/>
     <use x="252.050781" xlink:href="#DejaVuSans-108"/>
     <use x="279.833984" xlink:href="#DejaVuSans-97"/>
     <use x="341.113281" xlink:href="#DejaVuSans-116"/>
     <use x="380.322266" xlink:href="#DejaVuSans-105"/>
     <use x="408.105469" xlink:href="#DejaVuSans-111"/>
     <use x="469.287109" xlink:href="#DejaVuSans-110"/>
     <use x="532.666016" xlink:href="#DejaVuSans-32"/>
     <use x="564.453125" xlink:href="#DejaVuSans-116"/>
     <use x="603.662109" xlink:href="#DejaVuSans-105"/>
     <use x="631.445312" xlink:href="#DejaVuSans-109"/>
     <use x="728.857422" xlink:href="#DejaVuSans-101"/>
    </g>
   </g>
  </g>
  <g id="axes_5">
   <g id="patch_98">
    <path d="M 396.108716 113.853543 
L 455.737512 113.853543 
L 455.737512 38.948031 
L 396.108716 38.948031 
z
" style="fill:#ffffff;"/>
   </g>
   <g id="patch_99">
    <path clip-path="url(#pb3fa64c98a)" d="M 398.593249 113.853543 
L 400.249605 113.853543 
L 400.249605 75.739695 
L 398.593249 75.739695 
z
" style="fill:#1f77b4;"/>
   </g>
   <g id="patch_100">
    <path clip-path="url(#pb3fa64c98a)" d="M 408.531382 113.853543 
L 410.187737 113.853543 
L 410.187737 74.606994 
L 408.531382 74.606994 
z
" style="fill:#1f77b4;"/>
   </g>
   <g id="patch_101">
    <path clip-path="url(#pb3fa64c98a)" d="M 418.469515 113.853543 
L 420.12587 113.853543 
L 420.12587 71.789722 
L 418.469515 71.789722 
z
" style="fill:#1f77b4;"/>
   </g>
   <g id="patch_102">
    <path clip-path="url(#pb3fa64c98a)" d="M 428.407647 113.853543 
L 430.064003 113.853543 
L 430.064003 72.04783 
L 428.407647 72.04783 
z
" style="fill:#1f77b4;"/>
   </g>
   <g id="patch_103">
    <path clip-path="url(#pb3fa64c98a)" d="M 438.34578 113.853543 
L 440.002135 113.853543 
L 440.002135 67.671862 
L 438.34578 67.671862 
z
" style="fill:#1f77b4;"/>
   </g>
   <g id="patch_104">
    <path clip-path="url(#pb3fa64c98a)" d="M 448.283913 113.853543 
L 449.940268 113.853543 
L 449.940268 52.502322 
L 448.283913 52.502322 
z
" style="fill:#1f77b4;"/>
   </g>
   <g id="patch_105">
    <path clip-path="url(#pb3fa64c98a)" d="M 400.249605 113.853543 
L 401.90596 113.853543 
L 401.90596 76.181267 
L 400.249605 76.181267 
z
" style="fill:#ff7f0e;"/>
   </g>
   <g id="patch_106">
    <path clip-path="url(#pb3fa64c98a)" d="M 410.187737 113.853543 
L 411.844093 113.853543 
L 411.844093 75.020919 
L 410.187737 75.020919 
z
" style="fill:#ff7f0e;"/>
   </g>
   <g id="patch_107">
    <path clip-path="url(#pb3fa64c98a)" d="M 420.12587 113.853543 
L 421.782225 113.853543 
L 421.782225 71.321248 
L 420.12587 71.321248 
z
" style="fill:#ff7f0e;"/>
   </g>
   <g id="patch_108">
    <path clip-path="url(#pb3fa64c98a)" d="M 430.064003 113.853543 
L 431.720358 113.853543 
L 431.720358 71.934543 
L 430.064003 71.934543 
z
" style="fill:#ff7f0e;"/>
   </g>
   <g id="patch_109">
    <path clip-path="url(#pb3fa64c98a)" d="M 440.002135 113.853543 
L 441.658491 113.853543 
L 441.658491 65.822958 
L 440.002135 65.822958 
z
" style="fill:#ff7f0e;"/>
   </g>
   <g id="patch_110">
    <path clip-path="url(#pb3fa64c98a)" d="M 449.940268 113.853543 
L 451.596624 113.853543 
L 451.596624 47.955343 
L 449.940268 47.955343 
z
" style="fill:#ff7f0e;"/>
   </g>
   <g id="patch_111">
    <path clip-path="url(#pb3fa64c98a)" d="M 401.90596 113.853543 
L 403.562315 113.853543 
L 403.562315 71.919817 
L 401.90596 71.919817 
z
" style="fill:#2ca02c;"/>
   </g>
   <g id="patch_112">
    <path clip-path="url(#pb3fa64c98a)" d="M 411.844093 113.853543 
L 413.500448 113.853543 
L 413.500448 70.647345 
L 411.844093 70.647345 
z
" style="fill:#2ca02c;"/>
   </g>
   <g id="patch_113">
    <path clip-path="url(#pb3fa64c98a)" d="M 421.782225 113.853543 
L 423.438581 113.853543 
L 423.438581 66.867805 
L 421.782225 66.867805 
z
" style="fill:#2ca02c;"/>
   </g>
   <g id="patch_114">
    <path clip-path="url(#pb3fa64c98a)" d="M 431.720358 113.853543 
L 433.376714 113.853543 
L 433.376714 67.392015 
L 431.720358 67.392015 
z
" style="fill:#2ca02c;"/>
   </g>
   <g id="patch_115">
    <path clip-path="url(#pb3fa64c98a)" d="M 441.658491 113.853543 
L 443.314846 113.853543 
L 443.314846 61.104566 
L 441.658491 61.104566 
z
" style="fill:#2ca02c;"/>
   </g>
   <g id="patch_116">
    <path clip-path="url(#pb3fa64c98a)" d="M 451.596624 113.853543 
L 453.252979 113.853543 
L 453.252979 42.514961 
L 451.596624 42.514961 
z
" style="fill:#2ca02c;"/>
   </g>
   <g id="matplotlib.axis_9">
    <g id="xtick_25">
     <g id="line2d_39">
      <g>
       <use style="stroke:#000000;stroke-width:0.8;" x="401.077782" xlink:href="#me823c9490e" y="113.853543"/>
      </g>
     </g>
     <g id="text_51">
      <!-- 36 -->
      <g transform="translate(399.294326 130.913132)rotate(-45)scale(0.07 -0.07)">
       <use xlink:href="#DejaVuSans-51"/>
       <use x="63.623047" xlink:href="#DejaVuSans-54"/>
      </g>
     </g>
    </g>
    <g id="xtick_26">
     <g id="line2d_40">
      <g>
       <use style="stroke:#000000;stroke-width:0.8;" x="411.015915" xlink:href="#me823c9490e" y="113.853543"/>
      </g>
     </g>
     <g id="text_52">
      <!-- 72 -->
      <g transform="translate(409.232459 130.913132)rotate(-45)scale(0.07 -0.07)">
       <use xlink:href="#DejaVuSans-55"/>
       <use x="63.623047" xlink:href="#DejaVuSans-50"/>
      </g>
     </g>
    </g>
    <g id="xtick_27">
     <g id="line2d_41">
      <g>
       <use style="stroke:#000000;stroke-width:0.8;" x="420.954048" xlink:href="#me823c9490e" y="113.853543"/>
      </g>
     </g>
     <g id="text_53">
      <!-- 144 -->
      <g transform="translate(417.595953 134.062408)rotate(-45)scale(0.07 -0.07)">
       <use xlink:href="#DejaVuSans-49"/>
       <use x="63.623047" xlink:href="#DejaVuSans-52"/>
       <use x="127.246094" xlink:href="#DejaVuSans-52"/>
      </g>
     </g>
    </g>
    <g id="xtick_28">
     <g id="line2d_42">
      <g>
       <use style="stroke:#000000;stroke-width:0.8;" x="430.89218" xlink:href="#me823c9490e" y="113.853543"/>
      </g>
     </g>
     <g id="text_54">
      <!-- 288 -->
      <g transform="translate(427.534086 134.062408)rotate(-45)scale(0.07 -0.07)">
       <use xlink:href="#DejaVuSans-50"/>
       <use x="63.623047" xlink:href="#DejaVuSans-56"/>
       <use x="127.246094" xlink:href="#DejaVuSans-56"/>
      </g>
     </g>
    </g>
    <g id="xtick_29">
     <g id="line2d_43">
      <g>
       <use style="stroke:#000000;stroke-width:0.8;" x="440.830313" xlink:href="#me823c9490e" y="113.853543"/>
      </g>
     </g>
     <g id="text_55">
      <!-- 576 -->
      <g transform="translate(437.472219 134.062408)rotate(-45)scale(0.07 -0.07)">
       <use xlink:href="#DejaVuSans-53"/>
       <use x="63.623047" xlink:href="#DejaVuSans-55"/>
       <use x="127.246094" xlink:href="#DejaVuSans-54"/>
      </g>
     </g>
    </g>
    <g id="xtick_30">
     <g id="line2d_44">
      <g>
       <use style="stroke:#000000;stroke-width:0.8;" x="450.768446" xlink:href="#me823c9490e" y="113.853543"/>
      </g>
     </g>
     <g id="text_56">
      <!-- 1152 -->
      <g transform="translate(445.835713 137.211685)rotate(-45)scale(0.07 -0.07)">
       <use xlink:href="#DejaVuSans-49"/>
       <use x="63.623047" xlink:href="#DejaVuSans-49"/>
       <use x="127.246094" xlink:href="#DejaVuSans-53"/>
       <use x="190.869141" xlink:href="#DejaVuSans-50"/>
      </g>
     </g>
    </g>
    <g id="text_57">
     <!-- N_VP -->
     <g transform="translate(417.050067 147.365297)scale(0.07 -0.07)">
      <use xlink:href="#DejaVuSans-78"/>
      <use x="74.804688" xlink:href="#DejaVuSans-95"/>
      <use x="124.804688" xlink:href="#DejaVuSans-86"/>
      <use x="193.212891" xlink:href="#DejaVuSans-80"/>
     </g>
    </g>
   </g>
   <g id="matplotlib.axis_10">
    <g id="ytick_15">
     <g id="line2d_45">
      <g>
       <use style="stroke:#000000;stroke-width:0.8;" x="396.108716" xlink:href="#m01b73c2340" y="113.853543"/>
      </g>
     </g>
     <g id="text_58">
      <!-- 0.0 -->
      <g transform="translate(377.976528 116.512996)scale(0.07 -0.07)">
       <use xlink:href="#DejaVuSans-48"/>
       <use x="63.623047" xlink:href="#DejaVuSans-46"/>
       <use x="95.410156" xlink:href="#DejaVuSans-48"/>
      </g>
     </g>
    </g>
    <g id="ytick_16">
     <g id="line2d_46">
      <g>
       <use style="stroke:#000000;stroke-width:0.8;" x="396.108716" xlink:href="#m01b73c2340" y="85.543043"/>
      </g>
     </g>
     <g id="text_59">
      <!-- 0.5 -->
      <g transform="translate(377.976528 88.202496)scale(0.07 -0.07)">
       <use xlink:href="#DejaVuSans-48"/>
       <use x="63.623047" xlink:href="#DejaVuSans-46"/>
       <use x="95.410156" xlink:href="#DejaVuSans-53"/>
      </g>
     </g>
    </g>
    <g id="ytick_17">
     <g id="line2d_47">
      <g>
       <use style="stroke:#000000;stroke-width:0.8;" x="396.108716" xlink:href="#m01b73c2340" y="57.232542"/>
      </g>
     </g>
     <g id="text_60">
      <!-- 1.0 -->
      <g transform="translate(377.976528 59.891996)scale(0.07 -0.07)">
       <use xlink:href="#DejaVuSans-49"/>
       <use x="63.623047" xlink:href="#DejaVuSans-46"/>
       <use x="95.410156" xlink:href="#DejaVuSans-48"/>
      </g>
     </g>
    </g>
    <g id="text_61">
     <!-- Memory [GiB] -->
     <defs>
      <path d="M 9.8125 72.90625 
L 24.515625 72.90625 
L 43.109375 23.296875 
L 61.8125 72.90625 
L 76.515625 72.90625 
L 76.515625 0 
L 66.890625 0 
L 66.890625 64.015625 
L 48.09375 14.015625 
L 38.1875 14.015625 
L 19.390625 64.015625 
L 19.390625 0 
L 9.8125 0 
z
" id="DejaVuSans-77"/>
      <path d="M 32.171875 -5.078125 
Q 28.375 -14.84375 24.75 -17.8125 
Q 21.140625 -20.796875 15.09375 -20.796875 
L 7.90625 -20.796875 
L 7.90625 -13.28125 
L 13.1875 -13.28125 
Q 16.890625 -13.28125 18.9375 -11.515625 
Q 21 -9.765625 23.484375 -3.21875 
L 25.09375 0.875 
L 2.984375 54.6875 
L 12.5 54.6875 
L 29.59375 11.921875 
L 46.6875 54.6875 
L 56.203125 54.6875 
z
" id="DejaVuSans-121"/>
      <path d="M 59.515625 10.40625 
L 59.515625 29.984375 
L 43.40625 29.984375 
L 43.40625 38.09375 
L 69.28125 38.09375 
L 69.28125 6.78125 
Q 63.578125 2.734375 56.6875 0.65625 
Q 49.8125 -1.421875 42 -1.421875 
Q 24.90625 -1.421875 15.25 8.5625 
Q 5.609375 18.5625 5.609375 36.375 
Q 5.609375 54.25 15.25 64.234375 
Q 24.90625 74.21875 42 74.21875 
Q 49.125 74.21875 55.546875 72.453125 
Q 61.96875 70.703125 67.390625 67.28125 
L 67.390625 56.78125 
Q 61.921875 61.421875 55.765625 63.765625 
Q 49.609375 66.109375 42.828125 66.109375 
Q 29.4375 66.109375 22.71875 58.640625 
Q 16.015625 51.171875 16.015625 36.375 
Q 16.015625 21.625 22.71875 14.15625 
Q 29.4375 6.6875 42.828125 6.6875 
Q 48.046875 6.6875 52.140625 7.59375 
Q 56.25 8.5 59.515625 10.40625 
z
" id="DejaVuSans-71"/>
      <path d="M 19.671875 34.8125 
L 19.671875 8.109375 
L 35.5 8.109375 
Q 43.453125 8.109375 47.28125 11.40625 
Q 51.125 14.703125 51.125 21.484375 
Q 51.125 28.328125 47.28125 31.5625 
Q 43.453125 34.8125 35.5 34.8125 
z
M 19.671875 64.796875 
L 19.671875 42.828125 
L 34.28125 42.828125 
Q 41.5 42.828125 45.03125 45.53125 
Q 48.578125 48.25 48.578125 53.8125 
Q 48.578125 59.328125 45.03125 62.0625 
Q 41.5 64.796875 34.28125 64.796875 
z
M 9.8125 72.90625 
L 35.015625 72.90625 
Q 46.296875 72.90625 52.390625 68.21875 
Q 58.5 63.53125 58.5 54.890625 
Q 58.5 48.1875 55.375 44.234375 
Q 52.25 40.28125 46.1875 39.3125 
Q 53.46875 37.75 57.5 32.78125 
Q 61.53125 27.828125 61.53125 20.40625 
Q 61.53125 10.640625 54.890625 5.3125 
Q 48.25 0 35.984375 0 
L 9.8125 0 
z
" id="DejaVuSans-66"/>
     </defs>
     <g transform="translate(372.520747 100.564459)rotate(-90)scale(0.07 -0.07)">
      <use xlink:href="#DejaVuSans-77"/>
      <use x="86.279297" xlink:href="#DejaVuSans-101"/>
      <use x="147.802734" xlink:href="#DejaVuSans-109"/>
      <use x="245.214844" xlink:href="#DejaVuSans-111"/>
      <use x="306.396484" xlink:href="#DejaVuSans-114"/>
      <use x="347.509766" xlink:href="#DejaVuSans-121"/>
      <use x="406.689453" xlink:href="#DejaVuSans-32"/>
      <use x="438.476562" xlink:href="#DejaVuSans-91"/>
      <use x="477.490234" xlink:href="#DejaVuSans-71"/>
      <use x="554.980469" xlink:href="#DejaVuSans-105"/>
      <use x="582.763672" xlink:href="#DejaVuSans-66"/>
      <use x="651.367188" xlink:href="#DejaVuSans-93"/>
     </g>
    </g>
   </g>
   <g id="patch_117">
    <path d="M 396.108716 113.853543 
L 396.108716 38.948031 
" style="fill:none;stroke:#000000;stroke-linecap:square;stroke-linejoin:miter;stroke-width:0.8;"/>
   </g>
   <g id="patch_118">
    <path d="M 455.737512 113.853543 
L 455.737512 38.948031 
" style="fill:none;stroke:#000000;stroke-linecap:square;stroke-linejoin:miter;stroke-width:0.8;"/>
   </g>
   <g id="patch_119">
    <path d="M 396.108716 113.853543 
L 455.737512 113.853543 
" style="fill:none;stroke:#000000;stroke-linecap:square;stroke-linejoin:miter;stroke-width:0.8;"/>
   </g>
   <g id="patch_120">
    <path d="M 396.108716 38.948031 
L 455.737512 38.948031 
" style="fill:none;stroke:#000000;stroke-linecap:square;stroke-linejoin:miter;stroke-width:0.8;"/>
   </g>
   <g id="text_62">
    <!-- Memory per VP -->
    <defs>
     <path d="M 18.109375 8.203125 
L 18.109375 -20.796875 
L 9.078125 -20.796875 
L 9.078125 54.6875 
L 18.109375 54.6875 
L 18.109375 46.390625 
Q 20.953125 51.265625 25.265625 53.625 
Q 29.59375 56 35.59375 56 
Q 45.5625 56 51.78125 48.09375 
Q 58.015625 40.1875 58.015625 27.296875 
Q 58.015625 14.40625 51.78125 6.484375 
Q 45.5625 -1.421875 35.59375 -1.421875 
Q 29.59375 -1.421875 25.265625 0.953125 
Q 20.953125 3.328125 18.109375 8.203125 
z
M 48.6875 27.296875 
Q 48.6875 37.203125 44.609375 42.84375 
Q 40.53125 48.484375 33.40625 48.484375 
Q 26.265625 48.484375 22.1875 42.84375 
Q 18.109375 37.203125 18.109375 27.296875 
Q 18.109375 17.390625 22.1875 11.75 
Q 26.265625 6.109375 33.40625 6.109375 
Q 40.53125 6.109375 44.609375 11.75 
Q 48.6875 17.390625 48.6875 27.296875 
z
" id="DejaVuSans-112"/>
    </defs>
    <g transform="translate(399.144833 32.948031)scale(0.07 -0.07)">
     <use xlink:href="#DejaVuSans-77"/>
     <use x="86.279297" xlink:href="#DejaVuSans-101"/>
     <use x="147.802734" xlink:href="#DejaVuSans-109"/>
     <use x="245.214844" xlink:href="#DejaVuSans-111"/>
     <use x="306.396484" xlink:href="#DejaVuSans-114"/>
     <use x="347.509766" xlink:href="#DejaVuSans-121"/>
     <use x="406.689453" xlink:href="#DejaVuSans-32"/>
     <use x="438.476562" xlink:href="#DejaVuSans-112"/>
     <use x="501.953125" xlink:href="#DejaVuSans-101"/>
     <use x="563.476562" xlink:href="#DejaVuSans-114"/>
     <use x="604.589844" xlink:href="#DejaVuSans-32"/>
     <use x="636.376953" xlink:href="#DejaVuSans-86"/>
     <use x="704.785156" xlink:href="#DejaVuSans-80"/>
    </g>
   </g>
  </g>
  <g id="text_63">
   <!-- 4x4 mesocircuit model weak scaling -->
   <defs>
    <path d="M 4.203125 54.6875 
L 13.1875 54.6875 
L 24.421875 12.015625 
L 35.59375 54.6875 
L 46.1875 54.6875 
L 57.421875 12.015625 
L 68.609375 54.6875 
L 77.59375 54.6875 
L 63.28125 0 
L 52.6875 0 
L 40.921875 44.828125 
L 29.109375 0 
L 18.5 0 
z
" id="DejaVuSans-119"/>
    <path d="M 9.078125 75.984375 
L 18.109375 75.984375 
L 18.109375 31.109375 
L 44.921875 54.6875 
L 56.390625 54.6875 
L 27.390625 29.109375 
L 57.625 0 
L 45.90625 0 
L 18.109375 26.703125 
L 18.109375 0 
L 9.078125 0 
z
" id="DejaVuSans-107"/>
   </defs>
   <g transform="translate(131.126004 16.318125)scale(0.12 -0.12)">
    <use xlink:href="#DejaVuSans-52"/>
    <use x="63.623047" xlink:href="#DejaVuSans-120"/>
    <use x="122.802734" xlink:href="#DejaVuSans-52"/>
    <use x="186.425781" xlink:href="#DejaVuSans-32"/>
    <use x="218.212891" xlink:href="#DejaVuSans-109"/>
    <use x="315.625" xlink:href="#DejaVuSans-101"/>
    <use x="377.148438" xlink:href="#DejaVuSans-115"/>
    <use x="429.248047" xlink:href="#DejaVuSans-111"/>
    <use x="490.429688" xlink:href="#DejaVuSans-99"/>
    <use x="545.410156" xlink:href="#DejaVuSans-105"/>
    <use x="573.193359" xlink:href="#DejaVuSans-114"/>
    <use x="614.275391" xlink:href="#DejaVuSans-99"/>
    <use x="669.255859" xlink:href="#DejaVuSans-117"/>
    <use x="732.634766" xlink:href="#DejaVuSans-105"/>
    <use x="760.417969" xlink:href="#DejaVuSans-116"/>
    <use x="799.626953" xlink:href="#DejaVuSans-32"/>
    <use x="831.414062" xlink:href="#DejaVuSans-109"/>
    <use x="928.826172" xlink:href="#DejaVuSans-111"/>
    <use x="990.007812" xlink:href="#DejaVuSans-100"/>
    <use x="1053.484375" xlink:href="#DejaVuSans-101"/>
    <use x="1115.007812" xlink:href="#DejaVuSans-108"/>
    <use x="1142.791016" xlink:href="#DejaVuSans-32"/>
    <use x="1174.578125" xlink:href="#DejaVuSans-119"/>
    <use x="1256.365234" xlink:href="#DejaVuSans-101"/>
    <use x="1317.888672" xlink:href="#DejaVuSans-97"/>
    <use x="1379.167969" xlink:href="#DejaVuSans-107"/>
    <use x="1437.078125" xlink:href="#DejaVuSans-32"/>
    <use x="1468.865234" xlink:href="#DejaVuSans-115"/>
    <use x="1520.964844" xlink:href="#DejaVuSans-99"/>
    <use x="1575.945312" xlink:href="#DejaVuSans-97"/>
    <use x="1637.224609" xlink:href="#DejaVuSans-108"/>
    <use x="1665.007812" xlink:href="#DejaVuSans-105"/>
    <use x="1692.791016" xlink:href="#DejaVuSans-110"/>
    <use x="1756.169922" xlink:href="#DejaVuSans-103"/>
   </g>
  </g>
 </g>
 <defs>
  <clipPath id="pdc821dc1ca">
   <rect height="74.905512" width="59.628796" x="38.335937" y="38.948031"/>
  </clipPath>
  <clipPath id="pd945c05c09">
   <rect height="74.905512" width="59.628796" x="127.779132" y="38.948031"/>
  </clipPath>
  <clipPath id="p0645d92334">
   <rect height="74.905512" width="59.628796" x="217.222327" y="38.948031"/>
  </clipPath>
  <clipPath id="p2b3b4a8239">
   <rect height="74.905512" width="59.628796" x="306.665521" y="38.948031"/>
  </clipPath>
  <clipPath id="pb3fa64c98a">
   <rect height="74.905512" width="59.628796" x="396.108716" y="38.948031"/>
  </clipPath>
 </defs>
</svg>
