<?xml version="1.0" encoding="utf-8" standalone="no"?>
<!DOCTYPE svg PUBLIC "-//W3C//DTD SVG 1.1//EN"
  "http://www.w3.org/Graphics/SVG/1.1/DTD/svg11.dtd">
<!-- Created with matplotlib (https://matplotlib.org/) -->
<svg height="156.215766pt" version="1.1" viewBox="0 0 471.115963 156.215766" width="471.115963pt" xmlns="http://www.w3.org/2000/svg" xmlns:xlink="http://www.w3.org/1999/xlink">
 <defs>
  <style type="text/css">
*{stroke-linecap:butt;stroke-linejoin:round;}
  </style>
 </defs>
 <g id="figure_1">
  <g id="patch_1">
   <path d="M 0 156.215766 
L 471.115963 156.215766 
L 471.115963 0 
L 0 0 
z
" style="fill:#ffffff;"/>
  </g>
  <g id="axes_1">
   <g id="patch_2">
    <path d="M 42.789687 113.853543 
L 102.418484 113.853543 
L 102.418484 38.948031 
L 42.789687 38.948031 
z
" style="fill:#ffffff;"/>
   </g>
   <g id="patch_3">
    <path clip-path="url(#pe83c8cef59)" d="M 45.274221 113.853543 
L 47.758754 113.853543 
L 47.758754 108.415281 
L 45.274221 108.415281 
z
" style="fill:#1f77b4;"/>
   </g>
   <g id="patch_4">
    <path clip-path="url(#pe83c8cef59)" d="M 55.212353 113.853543 
L 57.696887 113.853543 
L 57.696887 106.348486 
L 55.212353 106.348486 
z
" style="fill:#1f77b4;"/>
   </g>
   <g id="patch_5">
    <path clip-path="url(#pe83c8cef59)" d="M 65.150486 113.853543 
L 67.635019 113.853543 
L 67.635019 102.249103 
L 65.150486 102.249103 
z
" style="fill:#1f77b4;"/>
   </g>
   <g id="patch_6">
    <path clip-path="url(#pe83c8cef59)" d="M 75.088619 113.853543 
L 77.573152 113.853543 
L 77.573152 93.867776 
L 75.088619 93.867776 
z
" style="fill:#1f77b4;"/>
   </g>
   <g id="patch_7">
    <path clip-path="url(#pe83c8cef59)" d="M 85.026752 113.853543 
L 87.511285 113.853543 
L 87.511285 77.602708 
L 85.026752 77.602708 
z
" style="fill:#1f77b4;"/>
   </g>
   <g id="patch_8">
    <path clip-path="url(#pe83c8cef59)" d="M 94.964884 113.853543 
L 97.449418 113.853543 
L 97.449418 42.514961 
L 94.964884 42.514961 
z
" style="fill:#1f77b4;"/>
   </g>
   <g id="patch_9">
    <path clip-path="url(#pe83c8cef59)" d="M 47.758754 113.853543 
L 50.243287 113.853543 
L 50.243287 109.75732 
L 47.758754 109.75732 
z
" style="fill:#ff7f0e;"/>
   </g>
   <g id="patch_10">
    <path clip-path="url(#pe83c8cef59)" d="M 57.696887 113.853543 
L 60.18142 113.853543 
L 60.18142 109.666785 
L 57.696887 109.666785 
z
" style="fill:#ff7f0e;"/>
   </g>
   <g id="patch_11">
    <path clip-path="url(#pe83c8cef59)" d="M 67.635019 113.853543 
L 70.119553 113.853543 
L 70.119553 109.454323 
L 67.635019 109.454323 
z
" style="fill:#ff7f0e;"/>
   </g>
   <g id="patch_12">
    <path clip-path="url(#pe83c8cef59)" d="M 77.573152 113.853543 
L 80.057685 113.853543 
L 80.057685 109.071176 
L 77.573152 109.071176 
z
" style="fill:#ff7f0e;"/>
   </g>
   <g id="patch_13">
    <path clip-path="url(#pe83c8cef59)" d="M 87.511285 113.853543 
L 89.995818 113.853543 
L 89.995818 108.43054 
L 87.511285 108.43054 
z
" style="fill:#ff7f0e;"/>
   </g>
   <g id="patch_14">
    <path clip-path="url(#pe83c8cef59)" d="M 97.449418 113.853543 
L 99.933951 113.853543 
L 99.933951 106.809395 
L 97.449418 106.809395 
z
" style="fill:#ff7f0e;"/>
   </g>
   <g id="matplotlib.axis_1">
    <g id="xtick_1">
     <g id="line2d_1">
      <defs>
       <path d="M 0 0 
L 0 3.5 
" id="m3b1d77426d" style="stroke:#000000;stroke-width:0.8;"/>
      </defs>
      <g>
       <use style="stroke:#000000;stroke-width:0.8;" x="47.758754" xlink:href="#m3b1d77426d" y="113.853543"/>
      </g>
     </g>
     <g id="text_1">
      <!-- 36 -->
      <defs>
       <path d="M 40.578125 39.3125 
Q 47.65625 37.796875 51.625 33 
Q 55.609375 28.21875 55.609375 21.1875 
Q 55.609375 10.40625 48.1875 4.484375 
Q 40.765625 -1.421875 27.09375 -1.421875 
Q 22.515625 -1.421875 17.65625 -0.515625 
Q 12.796875 0.390625 7.625 2.203125 
L 7.625 11.71875 
Q 11.71875 9.328125 16.59375 8.109375 
Q 21.484375 6.890625 26.8125 6.890625 
Q 36.078125 6.890625 40.9375 10.546875 
Q 45.796875 14.203125 45.796875 21.1875 
Q 45.796875 27.640625 41.28125 31.265625 
Q 36.765625 34.90625 28.71875 34.90625 
L 20.21875 34.90625 
L 20.21875 43.015625 
L 29.109375 43.015625 
Q 36.375 43.015625 40.234375 45.921875 
Q 44.09375 48.828125 44.09375 54.296875 
Q 44.09375 59.90625 40.109375 62.90625 
Q 36.140625 65.921875 28.71875 65.921875 
Q 24.65625 65.921875 20.015625 65.03125 
Q 15.375 64.15625 9.8125 62.3125 
L 9.8125 71.09375 
Q 15.4375 72.65625 20.34375 73.4375 
Q 25.25 74.21875 29.59375 74.21875 
Q 40.828125 74.21875 47.359375 69.109375 
Q 53.90625 64.015625 53.90625 55.328125 
Q 53.90625 49.265625 50.4375 45.09375 
Q 46.96875 40.921875 40.578125 39.3125 
z
" id="DejaVuSans-51"/>
       <path d="M 33.015625 40.375 
Q 26.375 40.375 22.484375 35.828125 
Q 18.609375 31.296875 18.609375 23.390625 
Q 18.609375 15.53125 22.484375 10.953125 
Q 26.375 6.390625 33.015625 6.390625 
Q 39.65625 6.390625 43.53125 10.953125 
Q 47.40625 15.53125 47.40625 23.390625 
Q 47.40625 31.296875 43.53125 35.828125 
Q 39.65625 40.375 33.015625 40.375 
z
M 52.59375 71.296875 
L 52.59375 62.3125 
Q 48.875 64.0625 45.09375 64.984375 
Q 41.3125 65.921875 37.59375 65.921875 
Q 27.828125 65.921875 22.671875 59.328125 
Q 17.53125 52.734375 16.796875 39.40625 
Q 19.671875 43.65625 24.015625 45.921875 
Q 28.375 48.1875 33.59375 48.1875 
Q 44.578125 48.1875 50.953125 41.515625 
Q 57.328125 34.859375 57.328125 23.390625 
Q 57.328125 12.15625 50.6875 5.359375 
Q 44.046875 -1.421875 33.015625 -1.421875 
Q 20.359375 -1.421875 13.671875 8.265625 
Q 6.984375 17.96875 6.984375 36.375 
Q 6.984375 53.65625 15.1875 63.9375 
Q 23.390625 74.21875 37.203125 74.21875 
Q 40.921875 74.21875 44.703125 73.484375 
Q 48.484375 72.75 52.59375 71.296875 
z
" id="DejaVuSans-54"/>
      </defs>
      <g transform="translate(45.975298 130.913132)rotate(-45)scale(0.07 -0.07)">
       <use xlink:href="#DejaVuSans-51"/>
       <use x="63.623047" xlink:href="#DejaVuSans-54"/>
      </g>
     </g>
    </g>
    <g id="xtick_2">
     <g id="line2d_2">
      <g>
       <use style="stroke:#000000;stroke-width:0.8;" x="57.696887" xlink:href="#m3b1d77426d" y="113.853543"/>
      </g>
     </g>
     <g id="text_2">
      <!-- 72 -->
      <defs>
       <path d="M 8.203125 72.90625 
L 55.078125 72.90625 
L 55.078125 68.703125 
L 28.609375 0 
L 18.3125 0 
L 43.21875 64.59375 
L 8.203125 64.59375 
z
" id="DejaVuSans-55"/>
       <path d="M 19.1875 8.296875 
L 53.609375 8.296875 
L 53.609375 0 
L 7.328125 0 
L 7.328125 8.296875 
Q 12.9375 14.109375 22.625 23.890625 
Q 32.328125 33.6875 34.8125 36.53125 
Q 39.546875 41.84375 41.421875 45.53125 
Q 43.3125 49.21875 43.3125 52.78125 
Q 43.3125 58.59375 39.234375 62.25 
Q 35.15625 65.921875 28.609375 65.921875 
Q 23.96875 65.921875 18.8125 64.3125 
Q 13.671875 62.703125 7.8125 59.421875 
L 7.8125 69.390625 
Q 13.765625 71.78125 18.9375 73 
Q 24.125 74.21875 28.421875 74.21875 
Q 39.75 74.21875 46.484375 68.546875 
Q 53.21875 62.890625 53.21875 53.421875 
Q 53.21875 48.921875 51.53125 44.890625 
Q 49.859375 40.875 45.40625 35.40625 
Q 44.1875 33.984375 37.640625 27.21875 
Q 31.109375 20.453125 19.1875 8.296875 
z
" id="DejaVuSans-50"/>
      </defs>
      <g transform="translate(55.913431 130.913132)rotate(-45)scale(0.07 -0.07)">
       <use xlink:href="#DejaVuSans-55"/>
       <use x="63.623047" xlink:href="#DejaVuSans-50"/>
      </g>
     </g>
    </g>
    <g id="xtick_3">
     <g id="line2d_3">
      <g>
       <use style="stroke:#000000;stroke-width:0.8;" x="67.635019" xlink:href="#m3b1d77426d" y="113.853543"/>
      </g>
     </g>
     <g id="text_3">
      <!-- 144 -->
      <defs>
       <path d="M 12.40625 8.296875 
L 28.515625 8.296875 
L 28.515625 63.921875 
L 10.984375 60.40625 
L 10.984375 69.390625 
L 28.421875 72.90625 
L 38.28125 72.90625 
L 38.28125 8.296875 
L 54.390625 8.296875 
L 54.390625 0 
L 12.40625 0 
z
" id="DejaVuSans-49"/>
       <path d="M 37.796875 64.3125 
L 12.890625 25.390625 
L 37.796875 25.390625 
z
M 35.203125 72.90625 
L 47.609375 72.90625 
L 47.609375 25.390625 
L 58.015625 25.390625 
L 58.015625 17.1875 
L 47.609375 17.1875 
L 47.609375 0 
L 37.796875 0 
L 37.796875 17.1875 
L 4.890625 17.1875 
L 4.890625 26.703125 
z
" id="DejaVuSans-52"/>
      </defs>
      <g transform="translate(64.276925 134.062408)rotate(-45)scale(0.07 -0.07)">
       <use xlink:href="#DejaVuSans-49"/>
       <use x="63.623047" xlink:href="#DejaVuSans-52"/>
       <use x="127.246094" xlink:href="#DejaVuSans-52"/>
      </g>
     </g>
    </g>
    <g id="xtick_4">
     <g id="line2d_4">
      <g>
       <use style="stroke:#000000;stroke-width:0.8;" x="77.573152" xlink:href="#m3b1d77426d" y="113.853543"/>
      </g>
     </g>
     <g id="text_4">
      <!-- 288 -->
      <defs>
       <path d="M 31.78125 34.625 
Q 24.75 34.625 20.71875 30.859375 
Q 16.703125 27.09375 16.703125 20.515625 
Q 16.703125 13.921875 20.71875 10.15625 
Q 24.75 6.390625 31.78125 6.390625 
Q 38.8125 6.390625 42.859375 10.171875 
Q 46.921875 13.96875 46.921875 20.515625 
Q 46.921875 27.09375 42.890625 30.859375 
Q 38.875 34.625 31.78125 34.625 
z
M 21.921875 38.8125 
Q 15.578125 40.375 12.03125 44.71875 
Q 8.5 49.078125 8.5 55.328125 
Q 8.5 64.0625 14.71875 69.140625 
Q 20.953125 74.21875 31.78125 74.21875 
Q 42.671875 74.21875 48.875 69.140625 
Q 55.078125 64.0625 55.078125 55.328125 
Q 55.078125 49.078125 51.53125 44.71875 
Q 48 40.375 41.703125 38.8125 
Q 48.828125 37.15625 52.796875 32.3125 
Q 56.78125 27.484375 56.78125 20.515625 
Q 56.78125 9.90625 50.3125 4.234375 
Q 43.84375 -1.421875 31.78125 -1.421875 
Q 19.734375 -1.421875 13.25 4.234375 
Q 6.78125 9.90625 6.78125 20.515625 
Q 6.78125 27.484375 10.78125 32.3125 
Q 14.796875 37.15625 21.921875 38.8125 
z
M 18.3125 54.390625 
Q 18.3125 48.734375 21.84375 45.5625 
Q 25.390625 42.390625 31.78125 42.390625 
Q 38.140625 42.390625 41.71875 45.5625 
Q 45.3125 48.734375 45.3125 54.390625 
Q 45.3125 60.0625 41.71875 63.234375 
Q 38.140625 66.40625 31.78125 66.40625 
Q 25.390625 66.40625 21.84375 63.234375 
Q 18.3125 60.0625 18.3125 54.390625 
z
" id="DejaVuSans-56"/>
      </defs>
      <g transform="translate(74.215058 134.062408)rotate(-45)scale(0.07 -0.07)">
       <use xlink:href="#DejaVuSans-50"/>
       <use x="63.623047" xlink:href="#DejaVuSans-56"/>
       <use x="127.246094" xlink:href="#DejaVuSans-56"/>
      </g>
     </g>
    </g>
    <g id="xtick_5">
     <g id="line2d_5">
      <g>
       <use style="stroke:#000000;stroke-width:0.8;" x="87.511285" xlink:href="#m3b1d77426d" y="113.853543"/>
      </g>
     </g>
     <g id="text_5">
      <!-- 576 -->
      <defs>
       <path d="M 10.796875 72.90625 
L 49.515625 72.90625 
L 49.515625 64.59375 
L 19.828125 64.59375 
L 19.828125 46.734375 
Q 21.96875 47.46875 24.109375 47.828125 
Q 26.265625 48.1875 28.421875 48.1875 
Q 40.625 48.1875 47.75 41.5 
Q 54.890625 34.8125 54.890625 23.390625 
Q 54.890625 11.625 47.5625 5.09375 
Q 40.234375 -1.421875 26.90625 -1.421875 
Q 22.3125 -1.421875 17.546875 -0.640625 
Q 12.796875 0.140625 7.71875 1.703125 
L 7.71875 11.625 
Q 12.109375 9.234375 16.796875 8.0625 
Q 21.484375 6.890625 26.703125 6.890625 
Q 35.15625 6.890625 40.078125 11.328125 
Q 45.015625 15.765625 45.015625 23.390625 
Q 45.015625 31 40.078125 35.4375 
Q 35.15625 39.890625 26.703125 39.890625 
Q 22.75 39.890625 18.8125 39.015625 
Q 14.890625 38.140625 10.796875 36.28125 
z
" id="DejaVuSans-53"/>
      </defs>
      <g transform="translate(84.153191 134.062408)rotate(-45)scale(0.07 -0.07)">
       <use xlink:href="#DejaVuSans-53"/>
       <use x="63.623047" xlink:href="#DejaVuSans-55"/>
       <use x="127.246094" xlink:href="#DejaVuSans-54"/>
      </g>
     </g>
    </g>
    <g id="xtick_6">
     <g id="line2d_6">
      <g>
       <use style="stroke:#000000;stroke-width:0.8;" x="97.449418" xlink:href="#m3b1d77426d" y="113.853543"/>
      </g>
     </g>
     <g id="text_6">
      <!-- 1152 -->
      <g transform="translate(92.516685 137.211685)rotate(-45)scale(0.07 -0.07)">
       <use xlink:href="#DejaVuSans-49"/>
       <use x="63.623047" xlink:href="#DejaVuSans-49"/>
       <use x="127.246094" xlink:href="#DejaVuSans-53"/>
       <use x="190.869141" xlink:href="#DejaVuSans-50"/>
      </g>
     </g>
    </g>
    <g id="text_7">
     <!-- N_VP -->
     <defs>
      <path d="M 9.8125 72.90625 
L 23.09375 72.90625 
L 55.421875 11.921875 
L 55.421875 72.90625 
L 64.984375 72.90625 
L 64.984375 0 
L 51.703125 0 
L 19.390625 60.984375 
L 19.390625 0 
L 9.8125 0 
z
" id="DejaVuSans-78"/>
      <path d="M 50.984375 -16.609375 
L 50.984375 -23.578125 
L -0.984375 -23.578125 
L -0.984375 -16.609375 
z
" id="DejaVuSans-95"/>
      <path d="M 28.609375 0 
L 0.78125 72.90625 
L 11.078125 72.90625 
L 34.1875 11.53125 
L 57.328125 72.90625 
L 67.578125 72.90625 
L 39.796875 0 
z
" id="DejaVuSans-86"/>
      <path d="M 19.671875 64.796875 
L 19.671875 37.40625 
L 32.078125 37.40625 
Q 38.96875 37.40625 42.71875 40.96875 
Q 46.484375 44.53125 46.484375 51.125 
Q 46.484375 57.671875 42.71875 61.234375 
Q 38.96875 64.796875 32.078125 64.796875 
z
M 9.8125 72.90625 
L 32.078125 72.90625 
Q 44.34375 72.90625 50.609375 67.359375 
Q 56.890625 61.8125 56.890625 51.125 
Q 56.890625 40.328125 50.609375 34.8125 
Q 44.34375 29.296875 32.078125 29.296875 
L 19.671875 29.296875 
L 19.671875 0 
L 9.8125 0 
z
" id="DejaVuSans-80"/>
     </defs>
     <g transform="translate(63.731039 147.365297)scale(0.07 -0.07)">
      <use xlink:href="#DejaVuSans-78"/>
      <use x="74.804688" xlink:href="#DejaVuSans-95"/>
      <use x="124.804688" xlink:href="#DejaVuSans-86"/>
      <use x="193.212891" xlink:href="#DejaVuSans-80"/>
     </g>
    </g>
   </g>
   <g id="matplotlib.axis_2">
    <g id="ytick_1">
     <g id="line2d_7">
      <defs>
       <path d="M 0 0 
L -3.5 0 
" id="mc41f18d3bc" style="stroke:#000000;stroke-width:0.8;"/>
      </defs>
      <g>
       <use style="stroke:#000000;stroke-width:0.8;" x="42.789687" xlink:href="#mc41f18d3bc" y="113.853543"/>
      </g>
     </g>
     <g id="text_8">
      <!-- 0 -->
      <defs>
       <path d="M 31.78125 66.40625 
Q 24.171875 66.40625 20.328125 58.90625 
Q 16.5 51.421875 16.5 36.375 
Q 16.5 21.390625 20.328125 13.890625 
Q 24.171875 6.390625 31.78125 6.390625 
Q 39.453125 6.390625 43.28125 13.890625 
Q 47.125 21.390625 47.125 36.375 
Q 47.125 51.421875 43.28125 58.90625 
Q 39.453125 66.40625 31.78125 66.40625 
z
M 31.78125 74.21875 
Q 44.046875 74.21875 50.515625 64.515625 
Q 56.984375 54.828125 56.984375 36.375 
Q 56.984375 17.96875 50.515625 8.265625 
Q 44.046875 -1.421875 31.78125 -1.421875 
Q 19.53125 -1.421875 13.0625 8.265625 
Q 6.59375 17.96875 6.59375 36.375 
Q 6.59375 54.828125 13.0625 64.515625 
Q 19.53125 74.21875 31.78125 74.21875 
z
" id="DejaVuSans-48"/>
      </defs>
      <g transform="translate(31.335938 116.512996)scale(0.07 -0.07)">
       <use xlink:href="#DejaVuSans-48"/>
      </g>
     </g>
    </g>
    <g id="ytick_2">
     <g id="line2d_8">
      <g>
       <use style="stroke:#000000;stroke-width:0.8;" x="42.789687" xlink:href="#mc41f18d3bc" y="87.252583"/>
      </g>
     </g>
     <g id="text_9">
      <!-- 500 -->
      <g transform="translate(22.428437 89.912036)scale(0.07 -0.07)">
       <use xlink:href="#DejaVuSans-53"/>
       <use x="63.623047" xlink:href="#DejaVuSans-48"/>
       <use x="127.246094" xlink:href="#DejaVuSans-48"/>
      </g>
     </g>
    </g>
    <g id="ytick_3">
     <g id="line2d_9">
      <g>
       <use style="stroke:#000000;stroke-width:0.8;" x="42.789687" xlink:href="#mc41f18d3bc" y="60.651623"/>
      </g>
     </g>
     <g id="text_10">
      <!-- 1000 -->
      <g transform="translate(17.974687 63.311076)scale(0.07 -0.07)">
       <use xlink:href="#DejaVuSans-49"/>
       <use x="63.623047" xlink:href="#DejaVuSans-48"/>
       <use x="127.246094" xlink:href="#DejaVuSans-48"/>
       <use x="190.869141" xlink:href="#DejaVuSans-48"/>
      </g>
     </g>
    </g>
    <g id="text_11">
     <!-- Time [s] -->
     <defs>
      <path d="M -0.296875 72.90625 
L 61.375 72.90625 
L 61.375 64.59375 
L 35.5 64.59375 
L 35.5 0 
L 25.59375 0 
L 25.59375 64.59375 
L -0.296875 64.59375 
z
" id="DejaVuSans-84"/>
      <path d="M 9.421875 54.6875 
L 18.40625 54.6875 
L 18.40625 0 
L 9.421875 0 
z
M 9.421875 75.984375 
L 18.40625 75.984375 
L 18.40625 64.59375 
L 9.421875 64.59375 
z
" id="DejaVuSans-105"/>
      <path d="M 52 44.1875 
Q 55.375 50.25 60.0625 53.125 
Q 64.75 56 71.09375 56 
Q 79.640625 56 84.28125 50.015625 
Q 88.921875 44.046875 88.921875 33.015625 
L 88.921875 0 
L 79.890625 0 
L 79.890625 32.71875 
Q 79.890625 40.578125 77.09375 44.375 
Q 74.3125 48.1875 68.609375 48.1875 
Q 61.625 48.1875 57.5625 43.546875 
Q 53.515625 38.921875 53.515625 30.90625 
L 53.515625 0 
L 44.484375 0 
L 44.484375 32.71875 
Q 44.484375 40.625 41.703125 44.40625 
Q 38.921875 48.1875 33.109375 48.1875 
Q 26.21875 48.1875 22.15625 43.53125 
Q 18.109375 38.875 18.109375 30.90625 
L 18.109375 0 
L 9.078125 0 
L 9.078125 54.6875 
L 18.109375 54.6875 
L 18.109375 46.1875 
Q 21.1875 51.21875 25.484375 53.609375 
Q 29.78125 56 35.6875 56 
Q 41.65625 56 45.828125 52.96875 
Q 50 49.953125 52 44.1875 
z
" id="DejaVuSans-109"/>
      <path d="M 56.203125 29.59375 
L 56.203125 25.203125 
L 14.890625 25.203125 
Q 15.484375 15.921875 20.484375 11.0625 
Q 25.484375 6.203125 34.421875 6.203125 
Q 39.59375 6.203125 44.453125 7.46875 
Q 49.3125 8.734375 54.109375 11.28125 
L 54.109375 2.78125 
Q 49.265625 0.734375 44.1875 -0.34375 
Q 39.109375 -1.421875 33.890625 -1.421875 
Q 20.796875 -1.421875 13.15625 6.1875 
Q 5.515625 13.8125 5.515625 26.8125 
Q 5.515625 40.234375 12.765625 48.109375 
Q 20.015625 56 32.328125 56 
Q 43.359375 56 49.78125 48.890625 
Q 56.203125 41.796875 56.203125 29.59375 
z
M 47.21875 32.234375 
Q 47.125 39.59375 43.09375 43.984375 
Q 39.0625 48.390625 32.421875 48.390625 
Q 24.90625 48.390625 20.390625 44.140625 
Q 15.875 39.890625 15.1875 32.171875 
z
" id="DejaVuSans-101"/>
      <path id="DejaVuSans-32"/>
      <path d="M 8.59375 75.984375 
L 29.296875 75.984375 
L 29.296875 69 
L 17.578125 69 
L 17.578125 -6.203125 
L 29.296875 -6.203125 
L 29.296875 -13.1875 
L 8.59375 -13.1875 
z
" id="DejaVuSans-91"/>
      <path d="M 44.28125 53.078125 
L 44.28125 44.578125 
Q 40.484375 46.53125 36.375 47.5 
Q 32.28125 48.484375 27.875 48.484375 
Q 21.1875 48.484375 17.84375 46.4375 
Q 14.5 44.390625 14.5 40.28125 
Q 14.5 37.15625 16.890625 35.375 
Q 19.28125 33.59375 26.515625 31.984375 
L 29.59375 31.296875 
Q 39.15625 29.25 43.1875 25.515625 
Q 47.21875 21.78125 47.21875 15.09375 
Q 47.21875 7.46875 41.1875 3.015625 
Q 35.15625 -1.421875 24.609375 -1.421875 
Q 20.21875 -1.421875 15.453125 -0.5625 
Q 10.6875 0.296875 5.421875 2 
L 5.421875 11.28125 
Q 10.40625 8.6875 15.234375 7.390625 
Q 20.0625 6.109375 24.8125 6.109375 
Q 31.15625 6.109375 34.5625 8.28125 
Q 37.984375 10.453125 37.984375 14.40625 
Q 37.984375 18.0625 35.515625 20.015625 
Q 33.0625 21.96875 24.703125 23.78125 
L 21.578125 24.515625 
Q 13.234375 26.265625 9.515625 29.90625 
Q 5.8125 33.546875 5.8125 39.890625 
Q 5.8125 47.609375 11.28125 51.796875 
Q 16.75 56 26.8125 56 
Q 31.78125 56 36.171875 55.265625 
Q 40.578125 54.546875 44.28125 53.078125 
z
" id="DejaVuSans-115"/>
      <path d="M 30.421875 75.984375 
L 30.421875 -13.1875 
L 9.71875 -13.1875 
L 9.71875 -6.203125 
L 21.390625 -6.203125 
L 21.390625 69 
L 9.71875 69 
L 9.71875 75.984375 
z
" id="DejaVuSans-93"/>
     </defs>
     <g transform="translate(12.518906 90.738756)rotate(-90)scale(0.07 -0.07)">
      <use xlink:href="#DejaVuSans-84"/>
      <use x="61.037109" xlink:href="#DejaVuSans-105"/>
      <use x="88.820312" xlink:href="#DejaVuSans-109"/>
      <use x="186.232422" xlink:href="#DejaVuSans-101"/>
      <use x="247.755859" xlink:href="#DejaVuSans-32"/>
      <use x="279.542969" xlink:href="#DejaVuSans-91"/>
      <use x="318.556641" xlink:href="#DejaVuSans-115"/>
      <use x="370.65625" xlink:href="#DejaVuSans-93"/>
     </g>
    </g>
   </g>
   <g id="patch_15">
    <path d="M 42.789687 113.853543 
L 42.789687 38.948031 
" style="fill:none;stroke:#000000;stroke-linecap:square;stroke-linejoin:miter;stroke-width:0.8;"/>
   </g>
   <g id="patch_16">
    <path d="M 102.418484 113.853543 
L 102.418484 38.948031 
" style="fill:none;stroke:#000000;stroke-linecap:square;stroke-linejoin:miter;stroke-width:0.8;"/>
   </g>
   <g id="patch_17">
    <path d="M 42.789687 113.853543 
L 102.418484 113.853543 
" style="fill:none;stroke:#000000;stroke-linecap:square;stroke-linejoin:miter;stroke-width:0.8;"/>
   </g>
   <g id="patch_18">
    <path d="M 42.789687 38.948031 
L 102.418484 38.948031 
" style="fill:none;stroke:#000000;stroke-linecap:square;stroke-linejoin:miter;stroke-width:0.8;"/>
   </g>
   <g id="text_12">
    <!-- Conn. Creation (min) -->
    <defs>
     <path d="M 64.40625 67.28125 
L 64.40625 56.890625 
Q 59.421875 61.53125 53.78125 63.8125 
Q 48.140625 66.109375 41.796875 66.109375 
Q 29.296875 66.109375 22.65625 58.46875 
Q 16.015625 50.828125 16.015625 36.375 
Q 16.015625 21.96875 22.65625 14.328125 
Q 29.296875 6.6875 41.796875 6.6875 
Q 48.140625 6.6875 53.78125 8.984375 
Q 59.421875 11.28125 64.40625 15.921875 
L 64.40625 5.609375 
Q 59.234375 2.09375 53.4375 0.328125 
Q 47.65625 -1.421875 41.21875 -1.421875 
Q 24.65625 -1.421875 15.125 8.703125 
Q 5.609375 18.84375 5.609375 36.375 
Q 5.609375 53.953125 15.125 64.078125 
Q 24.65625 74.21875 41.21875 74.21875 
Q 47.75 74.21875 53.53125 72.484375 
Q 59.328125 70.75 64.40625 67.28125 
z
" id="DejaVuSans-67"/>
     <path d="M 30.609375 48.390625 
Q 23.390625 48.390625 19.1875 42.75 
Q 14.984375 37.109375 14.984375 27.296875 
Q 14.984375 17.484375 19.15625 11.84375 
Q 23.34375 6.203125 30.609375 6.203125 
Q 37.796875 6.203125 41.984375 11.859375 
Q 46.1875 17.53125 46.1875 27.296875 
Q 46.1875 37.015625 41.984375 42.703125 
Q 37.796875 48.390625 30.609375 48.390625 
z
M 30.609375 56 
Q 42.328125 56 49.015625 48.375 
Q 55.71875 40.765625 55.71875 27.296875 
Q 55.71875 13.875 49.015625 6.21875 
Q 42.328125 -1.421875 30.609375 -1.421875 
Q 18.84375 -1.421875 12.171875 6.21875 
Q 5.515625 13.875 5.515625 27.296875 
Q 5.515625 40.765625 12.171875 48.375 
Q 18.84375 56 30.609375 56 
z
" id="DejaVuSans-111"/>
     <path d="M 54.890625 33.015625 
L 54.890625 0 
L 45.90625 0 
L 45.90625 32.71875 
Q 45.90625 40.484375 42.875 44.328125 
Q 39.84375 48.1875 33.796875 48.1875 
Q 26.515625 48.1875 22.3125 43.546875 
Q 18.109375 38.921875 18.109375 30.90625 
L 18.109375 0 
L 9.078125 0 
L 9.078125 54.6875 
L 18.109375 54.6875 
L 18.109375 46.1875 
Q 21.34375 51.125 25.703125 53.5625 
Q 30.078125 56 35.796875 56 
Q 45.21875 56 50.046875 50.171875 
Q 54.890625 44.34375 54.890625 33.015625 
z
" id="DejaVuSans-110"/>
     <path d="M 10.6875 12.40625 
L 21 12.40625 
L 21 0 
L 10.6875 0 
z
" id="DejaVuSans-46"/>
     <path d="M 41.109375 46.296875 
Q 39.59375 47.171875 37.8125 47.578125 
Q 36.03125 48 33.890625 48 
Q 26.265625 48 22.1875 43.046875 
Q 18.109375 38.09375 18.109375 28.8125 
L 18.109375 0 
L 9.078125 0 
L 9.078125 54.6875 
L 18.109375 54.6875 
L 18.109375 46.1875 
Q 20.953125 51.171875 25.484375 53.578125 
Q 30.03125 56 36.53125 56 
Q 37.453125 56 38.578125 55.875 
Q 39.703125 55.765625 41.0625 55.515625 
z
" id="DejaVuSans-114"/>
     <path d="M 34.28125 27.484375 
Q 23.390625 27.484375 19.1875 25 
Q 14.984375 22.515625 14.984375 16.5 
Q 14.984375 11.71875 18.140625 8.90625 
Q 21.296875 6.109375 26.703125 6.109375 
Q 34.1875 6.109375 38.703125 11.40625 
Q 43.21875 16.703125 43.21875 25.484375 
L 43.21875 27.484375 
z
M 52.203125 31.203125 
L 52.203125 0 
L 43.21875 0 
L 43.21875 8.296875 
Q 40.140625 3.328125 35.546875 0.953125 
Q 30.953125 -1.421875 24.3125 -1.421875 
Q 15.921875 -1.421875 10.953125 3.296875 
Q 6 8.015625 6 15.921875 
Q 6 25.140625 12.171875 29.828125 
Q 18.359375 34.515625 30.609375 34.515625 
L 43.21875 34.515625 
L 43.21875 35.40625 
Q 43.21875 41.609375 39.140625 45 
Q 35.0625 48.390625 27.6875 48.390625 
Q 23 48.390625 18.546875 47.265625 
Q 14.109375 46.140625 10.015625 43.890625 
L 10.015625 52.203125 
Q 14.9375 54.109375 19.578125 55.046875 
Q 24.21875 56 28.609375 56 
Q 40.484375 56 46.34375 49.84375 
Q 52.203125 43.703125 52.203125 31.203125 
z
" id="DejaVuSans-97"/>
     <path d="M 18.3125 70.21875 
L 18.3125 54.6875 
L 36.8125 54.6875 
L 36.8125 47.703125 
L 18.3125 47.703125 
L 18.3125 18.015625 
Q 18.3125 11.328125 20.140625 9.421875 
Q 21.96875 7.515625 27.59375 7.515625 
L 36.8125 7.515625 
L 36.8125 0 
L 27.59375 0 
Q 17.1875 0 13.234375 3.875 
Q 9.28125 7.765625 9.28125 18.015625 
L 9.28125 47.703125 
L 2.6875 47.703125 
L 2.6875 54.6875 
L 9.28125 54.6875 
L 9.28125 70.21875 
z
" id="DejaVuSans-116"/>
     <path d="M 31 75.875 
Q 24.46875 64.65625 21.28125 53.65625 
Q 18.109375 42.671875 18.109375 31.390625 
Q 18.109375 20.125 21.3125 9.0625 
Q 24.515625 -2 31 -13.1875 
L 23.1875 -13.1875 
Q 15.875 -1.703125 12.234375 9.375 
Q 8.59375 20.453125 8.59375 31.390625 
Q 8.59375 42.28125 12.203125 53.3125 
Q 15.828125 64.359375 23.1875 75.875 
z
" id="DejaVuSans-40"/>
     <path d="M 8.015625 75.875 
L 15.828125 75.875 
Q 23.140625 64.359375 26.78125 53.3125 
Q 30.421875 42.28125 30.421875 31.390625 
Q 30.421875 20.453125 26.78125 9.375 
Q 23.140625 -1.703125 15.828125 -13.1875 
L 8.015625 -13.1875 
Q 14.5 -2 17.703125 9.0625 
Q 20.90625 20.125 20.90625 31.390625 
Q 20.90625 42.671875 17.703125 53.65625 
Q 14.5 64.65625 8.015625 75.875 
z
" id="DejaVuSans-41"/>
    </defs>
    <g transform="translate(36.030179 32.948031)scale(0.07 -0.07)">
     <use xlink:href="#DejaVuSans-67"/>
     <use x="69.824219" xlink:href="#DejaVuSans-111"/>
     <use x="131.005859" xlink:href="#DejaVuSans-110"/>
     <use x="194.384766" xlink:href="#DejaVuSans-110"/>
     <use x="257.763672" xlink:href="#DejaVuSans-46"/>
     <use x="289.550781" xlink:href="#DejaVuSans-32"/>
     <use x="321.337891" xlink:href="#DejaVuSans-67"/>
     <use x="391.162109" xlink:href="#DejaVuSans-114"/>
     <use x="432.244141" xlink:href="#DejaVuSans-101"/>
     <use x="493.767578" xlink:href="#DejaVuSans-97"/>
     <use x="555.046875" xlink:href="#DejaVuSans-116"/>
     <use x="594.255859" xlink:href="#DejaVuSans-105"/>
     <use x="622.039062" xlink:href="#DejaVuSans-111"/>
     <use x="683.220703" xlink:href="#DejaVuSans-110"/>
     <use x="746.599609" xlink:href="#DejaVuSans-32"/>
     <use x="778.386719" xlink:href="#DejaVuSans-40"/>
     <use x="817.400391" xlink:href="#DejaVuSans-109"/>
     <use x="914.8125" xlink:href="#DejaVuSans-105"/>
     <use x="942.595703" xlink:href="#DejaVuSans-110"/>
     <use x="1005.974609" xlink:href="#DejaVuSans-41"/>
    </g>
   </g>
   <g id="legend_1">
    <g id="patch_19">
     <path d="M 45.589687 53.890531 
L 103.644688 53.890531 
Q 104.444688 53.890531 104.444688 53.090531 
L 104.444688 41.748031 
Q 104.444688 40.948031 103.644688 40.948031 
L 45.589687 40.948031 
Q 44.789687 40.948031 44.789687 41.748031 
L 44.789687 53.090531 
Q 44.789687 53.890531 45.589687 53.890531 
z
" style="fill:#ffffff;opacity:0.8;stroke:#cccccc;stroke-linejoin:miter;"/>
    </g>
    <g id="patch_20">
     <path d="M 46.389688 45.587406 
L 54.389688 45.587406 
L 54.389688 42.787406 
L 46.389688 42.787406 
z
" style="fill:#1f77b4;"/>
    </g>
    <g id="text_13">
     <!-- Master (02a44ba55) -->
     <defs>
      <path d="M 9.8125 72.90625 
L 24.515625 72.90625 
L 43.109375 23.296875 
L 61.8125 72.90625 
L 76.515625 72.90625 
L 76.515625 0 
L 66.890625 0 
L 66.890625 64.015625 
L 48.09375 14.015625 
L 38.1875 14.015625 
L 19.390625 64.015625 
L 19.390625 0 
L 9.8125 0 
z
" id="DejaVuSans-77"/>
      <path d="M 48.6875 27.296875 
Q 48.6875 37.203125 44.609375 42.84375 
Q 40.53125 48.484375 33.40625 48.484375 
Q 26.265625 48.484375 22.1875 42.84375 
Q 18.109375 37.203125 18.109375 27.296875 
Q 18.109375 17.390625 22.1875 11.75 
Q 26.265625 6.109375 33.40625 6.109375 
Q 40.53125 6.109375 44.609375 11.75 
Q 48.6875 17.390625 48.6875 27.296875 
z
M 18.109375 46.390625 
Q 20.953125 51.265625 25.265625 53.625 
Q 29.59375 56 35.59375 56 
Q 45.5625 56 51.78125 48.09375 
Q 58.015625 40.1875 58.015625 27.296875 
Q 58.015625 14.40625 51.78125 6.484375 
Q 45.5625 -1.421875 35.59375 -1.421875 
Q 29.59375 -1.421875 25.265625 0.953125 
Q 20.953125 3.328125 18.109375 8.203125 
L 18.109375 0 
L 9.078125 0 
L 9.078125 75.984375 
L 18.109375 75.984375 
z
" id="DejaVuSans-98"/>
     </defs>
     <g transform="translate(57.589687 45.587406)scale(0.04 -0.04)">
      <use xlink:href="#DejaVuSans-77"/>
      <use x="86.279297" xlink:href="#DejaVuSans-97"/>
      <use x="147.558594" xlink:href="#DejaVuSans-115"/>
      <use x="199.658203" xlink:href="#DejaVuSans-116"/>
      <use x="238.867188" xlink:href="#DejaVuSans-101"/>
      <use x="300.390625" xlink:href="#DejaVuSans-114"/>
      <use x="341.503906" xlink:href="#DejaVuSans-32"/>
      <use x="373.291016" xlink:href="#DejaVuSans-40"/>
      <use x="412.304688" xlink:href="#DejaVuSans-48"/>
      <use x="475.927734" xlink:href="#DejaVuSans-50"/>
      <use x="539.550781" xlink:href="#DejaVuSans-97"/>
      <use x="600.830078" xlink:href="#DejaVuSans-52"/>
      <use x="664.453125" xlink:href="#DejaVuSans-52"/>
      <use x="728.076172" xlink:href="#DejaVuSans-98"/>
      <use x="791.552734" xlink:href="#DejaVuSans-97"/>
      <use x="852.832031" xlink:href="#DejaVuSans-53"/>
      <use x="916.455078" xlink:href="#DejaVuSans-53"/>
      <use x="980.078125" xlink:href="#DejaVuSans-41"/>
     </g>
    </g>
    <g id="patch_21">
     <path d="M 46.389688 51.458656 
L 54.389688 51.458656 
L 54.389688 48.658656 
L 46.389688 48.658656 
z
" style="fill:#ff7f0e;"/>
    </g>
    <g id="text_14">
     <!-- NEST 3.0 (47a9175e4) -->
     <defs>
      <path d="M 9.8125 72.90625 
L 55.90625 72.90625 
L 55.90625 64.59375 
L 19.671875 64.59375 
L 19.671875 43.015625 
L 54.390625 43.015625 
L 54.390625 34.71875 
L 19.671875 34.71875 
L 19.671875 8.296875 
L 56.78125 8.296875 
L 56.78125 0 
L 9.8125 0 
z
" id="DejaVuSans-69"/>
      <path d="M 53.515625 70.515625 
L 53.515625 60.890625 
Q 47.90625 63.578125 42.921875 64.890625 
Q 37.9375 66.21875 33.296875 66.21875 
Q 25.25 66.21875 20.875 63.09375 
Q 16.5 59.96875 16.5 54.203125 
Q 16.5 49.359375 19.40625 46.890625 
Q 22.3125 44.4375 30.421875 42.921875 
L 36.375 41.703125 
Q 47.40625 39.59375 52.65625 34.296875 
Q 57.90625 29 57.90625 20.125 
Q 57.90625 9.515625 50.796875 4.046875 
Q 43.703125 -1.421875 29.984375 -1.421875 
Q 24.8125 -1.421875 18.96875 -0.25 
Q 13.140625 0.921875 6.890625 3.21875 
L 6.890625 13.375 
Q 12.890625 10.015625 18.65625 8.296875 
Q 24.421875 6.59375 29.984375 6.59375 
Q 38.421875 6.59375 43.015625 9.90625 
Q 47.609375 13.234375 47.609375 19.390625 
Q 47.609375 24.75 44.3125 27.78125 
Q 41.015625 30.8125 33.5 32.328125 
L 27.484375 33.5 
Q 16.453125 35.6875 11.515625 40.375 
Q 6.59375 45.0625 6.59375 53.421875 
Q 6.59375 63.09375 13.40625 68.65625 
Q 20.21875 74.21875 32.171875 74.21875 
Q 37.3125 74.21875 42.625 73.28125 
Q 47.953125 72.359375 53.515625 70.515625 
z
" id="DejaVuSans-83"/>
      <path d="M 10.984375 1.515625 
L 10.984375 10.5 
Q 14.703125 8.734375 18.5 7.8125 
Q 22.3125 6.890625 25.984375 6.890625 
Q 35.75 6.890625 40.890625 13.453125 
Q 46.046875 20.015625 46.78125 33.40625 
Q 43.953125 29.203125 39.59375 26.953125 
Q 35.25 24.703125 29.984375 24.703125 
Q 19.046875 24.703125 12.671875 31.3125 
Q 6.296875 37.9375 6.296875 49.421875 
Q 6.296875 60.640625 12.9375 67.421875 
Q 19.578125 74.21875 30.609375 74.21875 
Q 43.265625 74.21875 49.921875 64.515625 
Q 56.59375 54.828125 56.59375 36.375 
Q 56.59375 19.140625 48.40625 8.859375 
Q 40.234375 -1.421875 26.421875 -1.421875 
Q 22.703125 -1.421875 18.890625 -0.6875 
Q 15.09375 0.046875 10.984375 1.515625 
z
M 30.609375 32.421875 
Q 37.25 32.421875 41.125 36.953125 
Q 45.015625 41.5 45.015625 49.421875 
Q 45.015625 57.28125 41.125 61.84375 
Q 37.25 66.40625 30.609375 66.40625 
Q 23.96875 66.40625 20.09375 61.84375 
Q 16.21875 57.28125 16.21875 49.421875 
Q 16.21875 41.5 20.09375 36.953125 
Q 23.96875 32.421875 30.609375 32.421875 
z
" id="DejaVuSans-57"/>
     </defs>
     <g transform="translate(57.589687 51.458656)scale(0.04 -0.04)">
      <use xlink:href="#DejaVuSans-78"/>
      <use x="74.804688" xlink:href="#DejaVuSans-69"/>
      <use x="137.988281" xlink:href="#DejaVuSans-83"/>
      <use x="201.464844" xlink:href="#DejaVuSans-84"/>
      <use x="262.548828" xlink:href="#DejaVuSans-32"/>
      <use x="294.335938" xlink:href="#DejaVuSans-51"/>
      <use x="357.958984" xlink:href="#DejaVuSans-46"/>
      <use x="389.746094" xlink:href="#DejaVuSans-48"/>
      <use x="453.369141" xlink:href="#DejaVuSans-32"/>
      <use x="485.15625" xlink:href="#DejaVuSans-40"/>
      <use x="524.169922" xlink:href="#DejaVuSans-52"/>
      <use x="587.792969" xlink:href="#DejaVuSans-55"/>
      <use x="651.416016" xlink:href="#DejaVuSans-97"/>
      <use x="712.695312" xlink:href="#DejaVuSans-57"/>
      <use x="776.318359" xlink:href="#DejaVuSans-49"/>
      <use x="839.941406" xlink:href="#DejaVuSans-55"/>
      <use x="903.564453" xlink:href="#DejaVuSans-53"/>
      <use x="967.1875" xlink:href="#DejaVuSans-101"/>
      <use x="1028.710938" xlink:href="#DejaVuSans-52"/>
      <use x="1092.333984" xlink:href="#DejaVuSans-41"/>
     </g>
    </g>
   </g>
  </g>
  <g id="axes_2">
   <g id="patch_22">
    <path d="M 132.232882 113.853543 
L 191.861679 113.853543 
L 191.861679 38.948031 
L 132.232882 38.948031 
z
" style="fill:#ffffff;"/>
   </g>
   <g id="patch_23">
    <path clip-path="url(#p26bdde87c1)" d="M 134.717415 113.853543 
L 137.201948 113.853543 
L 137.201948 81.835006 
L 134.717415 81.835006 
z
" style="fill:#1f77b4;"/>
   </g>
   <g id="patch_24">
    <path clip-path="url(#p26bdde87c1)" d="M 144.655548 113.853543 
L 147.140081 113.853543 
L 147.140081 79.331411 
L 144.655548 79.331411 
z
" style="fill:#1f77b4;"/>
   </g>
   <g id="patch_25">
    <path clip-path="url(#p26bdde87c1)" d="M 154.593681 113.853543 
L 157.078214 113.853543 
L 157.078214 76.893873 
L 154.593681 76.893873 
z
" style="fill:#1f77b4;"/>
   </g>
   <g id="patch_26">
    <path clip-path="url(#p26bdde87c1)" d="M 164.531813 113.853543 
L 167.016347 113.853543 
L 167.016347 71.430422 
L 164.531813 71.430422 
z
" style="fill:#1f77b4;"/>
   </g>
   <g id="patch_27">
    <path clip-path="url(#p26bdde87c1)" d="M 174.469946 113.853543 
L 176.954479 113.853543 
L 176.954479 73.063892 
L 174.469946 73.063892 
z
" style="fill:#1f77b4;"/>
   </g>
   <g id="patch_28">
    <path clip-path="url(#p26bdde87c1)" d="M 184.408079 113.853543 
L 186.892612 113.853543 
L 186.892612 42.514961 
L 184.408079 42.514961 
z
" style="fill:#1f77b4;"/>
   </g>
   <g id="patch_29">
    <path clip-path="url(#p26bdde87c1)" d="M 137.201948 113.853543 
L 139.686482 113.853543 
L 139.686482 79.419426 
L 137.201948 79.419426 
z
" style="fill:#ff7f0e;"/>
   </g>
   <g id="patch_30">
    <path clip-path="url(#p26bdde87c1)" d="M 147.140081 113.853543 
L 149.624614 113.853543 
L 149.624614 77.0842 
L 147.140081 77.0842 
z
" style="fill:#ff7f0e;"/>
   </g>
   <g id="patch_31">
    <path clip-path="url(#p26bdde87c1)" d="M 157.078214 113.853543 
L 159.562747 113.853543 
L 159.562747 75.15093 
L 157.078214 75.15093 
z
" style="fill:#ff7f0e;"/>
   </g>
   <g id="patch_32">
    <path clip-path="url(#p26bdde87c1)" d="M 167.016347 113.853543 
L 169.50088 113.853543 
L 169.50088 69.012142 
L 167.016347 69.012142 
z
" style="fill:#ff7f0e;"/>
   </g>
   <g id="patch_33">
    <path clip-path="url(#p26bdde87c1)" d="M 176.954479 113.853543 
L 179.439013 113.853543 
L 179.439013 72.339283 
L 176.954479 72.339283 
z
" style="fill:#ff7f0e;"/>
   </g>
   <g id="patch_34">
    <path clip-path="url(#p26bdde87c1)" d="M 186.892612 113.853543 
L 189.377145 113.853543 
L 189.377145 44.956737 
L 186.892612 44.956737 
z
" style="fill:#ff7f0e;"/>
   </g>
   <g id="matplotlib.axis_3">
    <g id="xtick_7">
     <g id="line2d_10">
      <g>
       <use style="stroke:#000000;stroke-width:0.8;" x="137.201948" xlink:href="#m3b1d77426d" y="113.853543"/>
      </g>
     </g>
     <g id="text_15">
      <!-- 36 -->
      <g transform="translate(135.418493 130.913132)rotate(-45)scale(0.07 -0.07)">
       <use xlink:href="#DejaVuSans-51"/>
       <use x="63.623047" xlink:href="#DejaVuSans-54"/>
      </g>
     </g>
    </g>
    <g id="xtick_8">
     <g id="line2d_11">
      <g>
       <use style="stroke:#000000;stroke-width:0.8;" x="147.140081" xlink:href="#m3b1d77426d" y="113.853543"/>
      </g>
     </g>
     <g id="text_16">
      <!-- 72 -->
      <g transform="translate(145.356625 130.913132)rotate(-45)scale(0.07 -0.07)">
       <use xlink:href="#DejaVuSans-55"/>
       <use x="63.623047" xlink:href="#DejaVuSans-50"/>
      </g>
     </g>
    </g>
    <g id="xtick_9">
     <g id="line2d_12">
      <g>
       <use style="stroke:#000000;stroke-width:0.8;" x="157.078214" xlink:href="#m3b1d77426d" y="113.853543"/>
      </g>
     </g>
     <g id="text_17">
      <!-- 144 -->
      <g transform="translate(153.72012 134.062408)rotate(-45)scale(0.07 -0.07)">
       <use xlink:href="#DejaVuSans-49"/>
       <use x="63.623047" xlink:href="#DejaVuSans-52"/>
       <use x="127.246094" xlink:href="#DejaVuSans-52"/>
      </g>
     </g>
    </g>
    <g id="xtick_10">
     <g id="line2d_13">
      <g>
       <use style="stroke:#000000;stroke-width:0.8;" x="167.016347" xlink:href="#m3b1d77426d" y="113.853543"/>
      </g>
     </g>
     <g id="text_18">
      <!-- 288 -->
      <g transform="translate(163.658252 134.062408)rotate(-45)scale(0.07 -0.07)">
       <use xlink:href="#DejaVuSans-50"/>
       <use x="63.623047" xlink:href="#DejaVuSans-56"/>
       <use x="127.246094" xlink:href="#DejaVuSans-56"/>
      </g>
     </g>
    </g>
    <g id="xtick_11">
     <g id="line2d_14">
      <g>
       <use style="stroke:#000000;stroke-width:0.8;" x="176.954479" xlink:href="#m3b1d77426d" y="113.853543"/>
      </g>
     </g>
     <g id="text_19">
      <!-- 576 -->
      <g transform="translate(173.596385 134.062408)rotate(-45)scale(0.07 -0.07)">
       <use xlink:href="#DejaVuSans-53"/>
       <use x="63.623047" xlink:href="#DejaVuSans-55"/>
       <use x="127.246094" xlink:href="#DejaVuSans-54"/>
      </g>
     </g>
    </g>
    <g id="xtick_12">
     <g id="line2d_15">
      <g>
       <use style="stroke:#000000;stroke-width:0.8;" x="186.892612" xlink:href="#m3b1d77426d" y="113.853543"/>
      </g>
     </g>
     <g id="text_20">
      <!-- 1152 -->
      <g transform="translate(181.959879 137.211685)rotate(-45)scale(0.07 -0.07)">
       <use xlink:href="#DejaVuSans-49"/>
       <use x="63.623047" xlink:href="#DejaVuSans-49"/>
       <use x="127.246094" xlink:href="#DejaVuSans-53"/>
       <use x="190.869141" xlink:href="#DejaVuSans-50"/>
      </g>
     </g>
    </g>
    <g id="text_21">
     <!-- N_VP -->
     <g transform="translate(153.174233 147.365297)scale(0.07 -0.07)">
      <use xlink:href="#DejaVuSans-78"/>
      <use x="74.804688" xlink:href="#DejaVuSans-95"/>
      <use x="124.804688" xlink:href="#DejaVuSans-86"/>
      <use x="193.212891" xlink:href="#DejaVuSans-80"/>
     </g>
    </g>
   </g>
   <g id="matplotlib.axis_4">
    <g id="ytick_4">
     <g id="line2d_16">
      <g>
       <use style="stroke:#000000;stroke-width:0.8;" x="132.232882" xlink:href="#mc41f18d3bc" y="113.853543"/>
      </g>
     </g>
     <g id="text_22">
      <!-- 0 -->
      <g transform="translate(120.779132 116.512996)scale(0.07 -0.07)">
       <use xlink:href="#DejaVuSans-48"/>
      </g>
     </g>
    </g>
    <g id="ytick_5">
     <g id="line2d_17">
      <g>
       <use style="stroke:#000000;stroke-width:0.8;" x="132.232882" xlink:href="#mc41f18d3bc" y="91.775348"/>
      </g>
     </g>
     <g id="text_23">
      <!-- 25 -->
      <g transform="translate(116.325382 94.434801)scale(0.07 -0.07)">
       <use xlink:href="#DejaVuSans-50"/>
       <use x="63.623047" xlink:href="#DejaVuSans-53"/>
      </g>
     </g>
    </g>
    <g id="ytick_6">
     <g id="line2d_18">
      <g>
       <use style="stroke:#000000;stroke-width:0.8;" x="132.232882" xlink:href="#mc41f18d3bc" y="69.697153"/>
      </g>
     </g>
     <g id="text_24">
      <!-- 50 -->
      <g transform="translate(116.325382 72.356606)scale(0.07 -0.07)">
       <use xlink:href="#DejaVuSans-53"/>
       <use x="63.623047" xlink:href="#DejaVuSans-48"/>
      </g>
     </g>
    </g>
    <g id="ytick_7">
     <g id="line2d_19">
      <g>
       <use style="stroke:#000000;stroke-width:0.8;" x="132.232882" xlink:href="#mc41f18d3bc" y="47.618957"/>
      </g>
     </g>
     <g id="text_25">
      <!-- 75 -->
      <g transform="translate(116.325382 50.278411)scale(0.07 -0.07)">
       <use xlink:href="#DejaVuSans-55"/>
       <use x="63.623047" xlink:href="#DejaVuSans-53"/>
      </g>
     </g>
    </g>
   </g>
   <g id="patch_35">
    <path d="M 132.232882 113.853543 
L 132.232882 38.948031 
" style="fill:none;stroke:#000000;stroke-linecap:square;stroke-linejoin:miter;stroke-width:0.8;"/>
   </g>
   <g id="patch_36">
    <path d="M 191.861679 113.853543 
L 191.861679 38.948031 
" style="fill:none;stroke:#000000;stroke-linecap:square;stroke-linejoin:miter;stroke-width:0.8;"/>
   </g>
   <g id="patch_37">
    <path d="M 132.232882 113.853543 
L 191.861679 113.853543 
" style="fill:none;stroke:#000000;stroke-linecap:square;stroke-linejoin:miter;stroke-width:0.8;"/>
   </g>
   <g id="patch_38">
    <path d="M 132.232882 38.948031 
L 191.861679 38.948031 
" style="fill:none;stroke:#000000;stroke-linecap:square;stroke-linejoin:miter;stroke-width:0.8;"/>
   </g>
   <g id="text_26">
    <!-- Conn. Exchange (min) -->
    <defs>
     <path d="M 54.890625 54.6875 
L 35.109375 28.078125 
L 55.90625 0 
L 45.3125 0 
L 29.390625 21.484375 
L 13.484375 0 
L 2.875 0 
L 24.125 28.609375 
L 4.6875 54.6875 
L 15.28125 54.6875 
L 29.78125 35.203125 
L 44.28125 54.6875 
z
" id="DejaVuSans-120"/>
     <path d="M 48.78125 52.59375 
L 48.78125 44.1875 
Q 44.96875 46.296875 41.140625 47.34375 
Q 37.3125 48.390625 33.40625 48.390625 
Q 24.65625 48.390625 19.8125 42.84375 
Q 14.984375 37.3125 14.984375 27.296875 
Q 14.984375 17.28125 19.8125 11.734375 
Q 24.65625 6.203125 33.40625 6.203125 
Q 37.3125 6.203125 41.140625 7.25 
Q 44.96875 8.296875 48.78125 10.40625 
L 48.78125 2.09375 
Q 45.015625 0.34375 40.984375 -0.53125 
Q 36.96875 -1.421875 32.421875 -1.421875 
Q 20.0625 -1.421875 12.78125 6.34375 
Q 5.515625 14.109375 5.515625 27.296875 
Q 5.515625 40.671875 12.859375 48.328125 
Q 20.21875 56 33.015625 56 
Q 37.15625 56 41.109375 55.140625 
Q 45.0625 54.296875 48.78125 52.59375 
z
" id="DejaVuSans-99"/>
     <path d="M 54.890625 33.015625 
L 54.890625 0 
L 45.90625 0 
L 45.90625 32.71875 
Q 45.90625 40.484375 42.875 44.328125 
Q 39.84375 48.1875 33.796875 48.1875 
Q 26.515625 48.1875 22.3125 43.546875 
Q 18.109375 38.921875 18.109375 30.90625 
L 18.109375 0 
L 9.078125 0 
L 9.078125 75.984375 
L 18.109375 75.984375 
L 18.109375 46.1875 
Q 21.34375 51.125 25.703125 53.5625 
Q 30.078125 56 35.796875 56 
Q 45.21875 56 50.046875 50.171875 
Q 54.890625 44.34375 54.890625 33.015625 
z
" id="DejaVuSans-104"/>
     <path d="M 45.40625 27.984375 
Q 45.40625 37.75 41.375 43.109375 
Q 37.359375 48.484375 30.078125 48.484375 
Q 22.859375 48.484375 18.828125 43.109375 
Q 14.796875 37.75 14.796875 27.984375 
Q 14.796875 18.265625 18.828125 12.890625 
Q 22.859375 7.515625 30.078125 7.515625 
Q 37.359375 7.515625 41.375 12.890625 
Q 45.40625 18.265625 45.40625 27.984375 
z
M 54.390625 6.78125 
Q 54.390625 -7.171875 48.1875 -13.984375 
Q 42 -20.796875 29.203125 -20.796875 
Q 24.46875 -20.796875 20.265625 -20.09375 
Q 16.0625 -19.390625 12.109375 -17.921875 
L 12.109375 -9.1875 
Q 16.0625 -11.328125 19.921875 -12.34375 
Q 23.78125 -13.375 27.78125 -13.375 
Q 36.625 -13.375 41.015625 -8.765625 
Q 45.40625 -4.15625 45.40625 5.171875 
L 45.40625 9.625 
Q 42.625 4.78125 38.28125 2.390625 
Q 33.9375 0 27.875 0 
Q 17.828125 0 11.671875 7.65625 
Q 5.515625 15.328125 5.515625 27.984375 
Q 5.515625 40.671875 11.671875 48.328125 
Q 17.828125 56 27.875 56 
Q 33.9375 56 38.28125 53.609375 
Q 42.625 51.21875 45.40625 46.390625 
L 45.40625 54.6875 
L 54.390625 54.6875 
z
" id="DejaVuSans-103"/>
    </defs>
    <g transform="translate(123.193999 32.948031)scale(0.07 -0.07)">
     <use xlink:href="#DejaVuSans-67"/>
     <use x="69.824219" xlink:href="#DejaVuSans-111"/>
     <use x="131.005859" xlink:href="#DejaVuSans-110"/>
     <use x="194.384766" xlink:href="#DejaVuSans-110"/>
     <use x="257.763672" xlink:href="#DejaVuSans-46"/>
     <use x="289.550781" xlink:href="#DejaVuSans-32"/>
     <use x="321.337891" xlink:href="#DejaVuSans-69"/>
     <use x="384.521484" xlink:href="#DejaVuSans-120"/>
     <use x="443.685547" xlink:href="#DejaVuSans-99"/>
     <use x="498.666016" xlink:href="#DejaVuSans-104"/>
     <use x="562.044922" xlink:href="#DejaVuSans-97"/>
     <use x="623.324219" xlink:href="#DejaVuSans-110"/>
     <use x="686.703125" xlink:href="#DejaVuSans-103"/>
     <use x="750.179688" xlink:href="#DejaVuSans-101"/>
     <use x="811.703125" xlink:href="#DejaVuSans-32"/>
     <use x="843.490234" xlink:href="#DejaVuSans-40"/>
     <use x="882.503906" xlink:href="#DejaVuSans-109"/>
     <use x="979.916016" xlink:href="#DejaVuSans-105"/>
     <use x="1007.699219" xlink:href="#DejaVuSans-110"/>
     <use x="1071.078125" xlink:href="#DejaVuSans-41"/>
    </g>
   </g>
  </g>
  <g id="axes_3">
   <g id="patch_39">
    <path d="M 221.676077 113.853543 
L 281.304873 113.853543 
L 281.304873 38.948031 
L 221.676077 38.948031 
z
" style="fill:#ffffff;"/>
   </g>
   <g id="patch_40">
    <path clip-path="url(#pb3e18b4aff)" d="M 224.16061 113.853543 
L 226.645143 113.853543 
L 226.645143 106.904985 
L 224.16061 106.904985 
z
" style="fill:#1f77b4;"/>
   </g>
   <g id="patch_41">
    <path clip-path="url(#pb3e18b4aff)" d="M 234.098743 113.853543 
L 236.583276 113.853543 
L 236.583276 104.813369 
L 234.098743 104.813369 
z
" style="fill:#1f77b4;"/>
   </g>
   <g id="patch_42">
    <path clip-path="url(#pb3e18b4aff)" d="M 244.036875 113.853543 
L 246.521409 113.853543 
L 246.521409 100.808407 
L 244.036875 100.808407 
z
" style="fill:#1f77b4;"/>
   </g>
   <g id="patch_43">
    <path clip-path="url(#pb3e18b4aff)" d="M 253.975008 113.853543 
L 256.459541 113.853543 
L 256.459541 92.592876 
L 253.975008 92.592876 
z
" style="fill:#1f77b4;"/>
   </g>
   <g id="patch_44">
    <path clip-path="url(#pb3e18b4aff)" d="M 263.913141 113.853543 
L 266.397674 113.853543 
L 266.397674 77.344774 
L 263.913141 77.344774 
z
" style="fill:#1f77b4;"/>
   </g>
   <g id="patch_45">
    <path clip-path="url(#pb3e18b4aff)" d="M 273.851274 113.853543 
L 276.335807 113.853543 
L 276.335807 42.514961 
L 273.851274 42.514961 
z
" style="fill:#1f77b4;"/>
   </g>
   <g id="patch_46">
    <path clip-path="url(#pb3e18b4aff)" d="M 226.645143 113.853543 
L 229.129676 113.853543 
L 229.129676 108.03353 
L 226.645143 108.03353 
z
" style="fill:#ff7f0e;"/>
   </g>
   <g id="patch_47">
    <path clip-path="url(#pb3e18b4aff)" d="M 236.583276 113.853543 
L 239.067809 113.853543 
L 239.067809 107.815449 
L 236.583276 107.815449 
z
" style="fill:#ff7f0e;"/>
   </g>
   <g id="patch_48">
    <path clip-path="url(#pb3e18b4aff)" d="M 246.521409 113.853543 
L 249.005942 113.853543 
L 249.005942 107.505212 
L 246.521409 107.505212 
z
" style="fill:#ff7f0e;"/>
   </g>
   <g id="patch_49">
    <path clip-path="url(#pb3e18b4aff)" d="M 256.459541 113.853543 
L 258.944074 113.853543 
L 258.944074 106.795031 
L 256.459541 106.795031 
z
" style="fill:#ff7f0e;"/>
   </g>
   <g id="patch_50">
    <path clip-path="url(#pb3e18b4aff)" d="M 266.397674 113.853543 
L 268.882207 113.853543 
L 268.882207 106.379835 
L 266.397674 106.379835 
z
" style="fill:#ff7f0e;"/>
   </g>
   <g id="patch_51">
    <path clip-path="url(#pb3e18b4aff)" d="M 276.335807 113.853543 
L 278.82034 113.853543 
L 278.82034 103.294943 
L 276.335807 103.294943 
z
" style="fill:#ff7f0e;"/>
   </g>
   <g id="matplotlib.axis_5">
    <g id="xtick_13">
     <g id="line2d_20">
      <g>
       <use style="stroke:#000000;stroke-width:0.8;" x="226.645143" xlink:href="#m3b1d77426d" y="113.853543"/>
      </g>
     </g>
     <g id="text_27">
      <!-- 36 -->
      <g transform="translate(224.861687 130.913132)rotate(-45)scale(0.07 -0.07)">
       <use xlink:href="#DejaVuSans-51"/>
       <use x="63.623047" xlink:href="#DejaVuSans-54"/>
      </g>
     </g>
    </g>
    <g id="xtick_14">
     <g id="line2d_21">
      <g>
       <use style="stroke:#000000;stroke-width:0.8;" x="236.583276" xlink:href="#m3b1d77426d" y="113.853543"/>
      </g>
     </g>
     <g id="text_28">
      <!-- 72 -->
      <g transform="translate(234.79982 130.913132)rotate(-45)scale(0.07 -0.07)">
       <use xlink:href="#DejaVuSans-55"/>
       <use x="63.623047" xlink:href="#DejaVuSans-50"/>
      </g>
     </g>
    </g>
    <g id="xtick_15">
     <g id="line2d_22">
      <g>
       <use style="stroke:#000000;stroke-width:0.8;" x="246.521409" xlink:href="#m3b1d77426d" y="113.853543"/>
      </g>
     </g>
     <g id="text_29">
      <!-- 144 -->
      <g transform="translate(243.163314 134.062408)rotate(-45)scale(0.07 -0.07)">
       <use xlink:href="#DejaVuSans-49"/>
       <use x="63.623047" xlink:href="#DejaVuSans-52"/>
       <use x="127.246094" xlink:href="#DejaVuSans-52"/>
      </g>
     </g>
    </g>
    <g id="xtick_16">
     <g id="line2d_23">
      <g>
       <use style="stroke:#000000;stroke-width:0.8;" x="256.459541" xlink:href="#m3b1d77426d" y="113.853543"/>
      </g>
     </g>
     <g id="text_30">
      <!-- 288 -->
      <g transform="translate(253.101447 134.062408)rotate(-45)scale(0.07 -0.07)">
       <use xlink:href="#DejaVuSans-50"/>
       <use x="63.623047" xlink:href="#DejaVuSans-56"/>
       <use x="127.246094" xlink:href="#DejaVuSans-56"/>
      </g>
     </g>
    </g>
    <g id="xtick_17">
     <g id="line2d_24">
      <g>
       <use style="stroke:#000000;stroke-width:0.8;" x="266.397674" xlink:href="#m3b1d77426d" y="113.853543"/>
      </g>
     </g>
     <g id="text_31">
      <!-- 576 -->
      <g transform="translate(263.03958 134.062408)rotate(-45)scale(0.07 -0.07)">
       <use xlink:href="#DejaVuSans-53"/>
       <use x="63.623047" xlink:href="#DejaVuSans-55"/>
       <use x="127.246094" xlink:href="#DejaVuSans-54"/>
      </g>
     </g>
    </g>
    <g id="xtick_18">
     <g id="line2d_25">
      <g>
       <use style="stroke:#000000;stroke-width:0.8;" x="276.335807" xlink:href="#m3b1d77426d" y="113.853543"/>
      </g>
     </g>
     <g id="text_32">
      <!-- 1152 -->
      <g transform="translate(271.403074 137.211685)rotate(-45)scale(0.07 -0.07)">
       <use xlink:href="#DejaVuSans-49"/>
       <use x="63.623047" xlink:href="#DejaVuSans-49"/>
       <use x="127.246094" xlink:href="#DejaVuSans-53"/>
       <use x="190.869141" xlink:href="#DejaVuSans-50"/>
      </g>
     </g>
    </g>
    <g id="text_33">
     <!-- N_VP -->
     <g transform="translate(242.617428 147.365297)scale(0.07 -0.07)">
      <use xlink:href="#DejaVuSans-78"/>
      <use x="74.804688" xlink:href="#DejaVuSans-95"/>
      <use x="124.804688" xlink:href="#DejaVuSans-86"/>
      <use x="193.212891" xlink:href="#DejaVuSans-80"/>
     </g>
    </g>
   </g>
   <g id="matplotlib.axis_6">
    <g id="ytick_8">
     <g id="line2d_26">
      <g>
       <use style="stroke:#000000;stroke-width:0.8;" x="221.676077" xlink:href="#mc41f18d3bc" y="113.853543"/>
      </g>
     </g>
     <g id="text_34">
      <!-- 0 -->
      <g transform="translate(210.222327 116.512996)scale(0.07 -0.07)">
       <use xlink:href="#DejaVuSans-48"/>
      </g>
     </g>
    </g>
    <g id="ytick_9">
     <g id="line2d_27">
      <g>
       <use style="stroke:#000000;stroke-width:0.8;" x="221.676077" xlink:href="#mc41f18d3bc" y="88.764049"/>
      </g>
     </g>
     <g id="text_35">
      <!-- 500 -->
      <g transform="translate(201.314827 91.423502)scale(0.07 -0.07)">
       <use xlink:href="#DejaVuSans-53"/>
       <use x="63.623047" xlink:href="#DejaVuSans-48"/>
       <use x="127.246094" xlink:href="#DejaVuSans-48"/>
      </g>
     </g>
    </g>
    <g id="ytick_10">
     <g id="line2d_28">
      <g>
       <use style="stroke:#000000;stroke-width:0.8;" x="221.676077" xlink:href="#mc41f18d3bc" y="63.674555"/>
      </g>
     </g>
     <g id="text_36">
      <!-- 1000 -->
      <g transform="translate(196.861077 66.334008)scale(0.07 -0.07)">
       <use xlink:href="#DejaVuSans-49"/>
       <use x="63.623047" xlink:href="#DejaVuSans-48"/>
       <use x="127.246094" xlink:href="#DejaVuSans-48"/>
       <use x="190.869141" xlink:href="#DejaVuSans-48"/>
      </g>
     </g>
    </g>
   </g>
   <g id="patch_52">
    <path d="M 221.676077 113.853543 
L 221.676077 38.948031 
" style="fill:none;stroke:#000000;stroke-linecap:square;stroke-linejoin:miter;stroke-width:0.8;"/>
   </g>
   <g id="patch_53">
    <path d="M 281.304873 113.853543 
L 281.304873 38.948031 
" style="fill:none;stroke:#000000;stroke-linecap:square;stroke-linejoin:miter;stroke-width:0.8;"/>
   </g>
   <g id="patch_54">
    <path d="M 221.676077 113.853543 
L 281.304873 113.853543 
" style="fill:none;stroke:#000000;stroke-linecap:square;stroke-linejoin:miter;stroke-width:0.8;"/>
   </g>
   <g id="patch_55">
    <path d="M 221.676077 38.948031 
L 281.304873 38.948031 
" style="fill:none;stroke:#000000;stroke-linecap:square;stroke-linejoin:miter;stroke-width:0.8;"/>
   </g>
   <g id="text_37">
    <!-- Conn. Total -->
    <defs>
     <path d="M 9.421875 75.984375 
L 18.40625 75.984375 
L 18.40625 0 
L 9.421875 0 
z
" id="DejaVuSans-108"/>
    </defs>
    <g transform="translate(231.484694 32.948031)scale(0.07 -0.07)">
     <use xlink:href="#DejaVuSans-67"/>
     <use x="69.824219" xlink:href="#DejaVuSans-111"/>
     <use x="131.005859" xlink:href="#DejaVuSans-110"/>
     <use x="194.384766" xlink:href="#DejaVuSans-110"/>
     <use x="257.763672" xlink:href="#DejaVuSans-46"/>
     <use x="289.550781" xlink:href="#DejaVuSans-32"/>
     <use x="321.337891" xlink:href="#DejaVuSans-84"/>
     <use x="382.15625" xlink:href="#DejaVuSans-111"/>
     <use x="443.337891" xlink:href="#DejaVuSans-116"/>
     <use x="482.546875" xlink:href="#DejaVuSans-97"/>
     <use x="543.826172" xlink:href="#DejaVuSans-108"/>
    </g>
   </g>
  </g>
  <g id="axes_4">
   <g id="patch_56">
    <path d="M 311.119271 113.853543 
L 370.748068 113.853543 
L 370.748068 38.948031 
L 311.119271 38.948031 
z
" style="fill:#ffffff;"/>
   </g>
   <g id="patch_57">
    <path clip-path="url(#p632aeba330)" d="M 313.603804 113.853543 
L 316.088338 113.853543 
L 316.088338 88.057504 
L 313.603804 88.057504 
z
" style="fill:#1f77b4;"/>
   </g>
   <g id="patch_58">
    <path clip-path="url(#p632aeba330)" d="M 323.541937 113.853543 
L 326.02647 113.853543 
L 326.02647 76.733957 
L 323.541937 76.733957 
z
" style="fill:#1f77b4;"/>
   </g>
   <g id="patch_59">
    <path clip-path="url(#p632aeba330)" d="M 333.48007 113.853543 
L 335.964603 113.853543 
L 335.964603 73.619469 
L 333.48007 73.619469 
z
" style="fill:#1f77b4;"/>
   </g>
   <g id="patch_60">
    <path clip-path="url(#p632aeba330)" d="M 343.418203 113.853543 
L 345.902736 113.853543 
L 345.902736 61.559942 
L 343.418203 61.559942 
z
" style="fill:#1f77b4;"/>
   </g>
   <g id="patch_61">
    <path clip-path="url(#p632aeba330)" d="M 353.356335 113.853543 
L 355.840869 113.853543 
L 355.840869 108.345143 
L 353.356335 108.345143 
z
" style="fill:#1f77b4;"/>
   </g>
   <g id="patch_62">
    <path clip-path="url(#p632aeba330)" d="M 363.294468 113.853543 
L 365.779001 113.853543 
L 365.779001 42.514961 
L 363.294468 42.514961 
z
" style="fill:#1f77b4;"/>
   </g>
   <g id="patch_63">
    <path clip-path="url(#p632aeba330)" d="M 316.088338 113.853543 
L 318.572871 113.853543 
L 318.572871 92.148746 
L 316.088338 92.148746 
z
" style="fill:#ff7f0e;"/>
   </g>
   <g id="patch_64">
    <path clip-path="url(#p632aeba330)" d="M 326.02647 113.853543 
L 328.511004 113.853543 
L 328.511004 85.663241 
L 326.02647 85.663241 
z
" style="fill:#ff7f0e;"/>
   </g>
   <g id="patch_65">
    <path clip-path="url(#p632aeba330)" d="M 335.964603 113.853543 
L 338.449136 113.853543 
L 338.449136 80.607623 
L 335.964603 80.607623 
z
" style="fill:#ff7f0e;"/>
   </g>
   <g id="patch_66">
    <path clip-path="url(#p632aeba330)" d="M 345.902736 113.853543 
L 348.387269 113.853543 
L 348.387269 74.74923 
L 345.902736 74.74923 
z
" style="fill:#ff7f0e;"/>
   </g>
   <g id="patch_67">
    <path clip-path="url(#p632aeba330)" d="M 355.840869 113.853543 
L 358.325402 113.853543 
L 358.325402 112.704485 
L 355.840869 112.704485 
z
" style="fill:#ff7f0e;"/>
   </g>
   <g id="patch_68">
    <path clip-path="url(#p632aeba330)" d="M 365.779001 113.853543 
L 368.263535 113.853543 
L 368.263535 43.129313 
L 365.779001 43.129313 
z
" style="fill:#ff7f0e;"/>
   </g>
   <g id="matplotlib.axis_7">
    <g id="xtick_19">
     <g id="line2d_29">
      <g>
       <use style="stroke:#000000;stroke-width:0.8;" x="316.088338" xlink:href="#m3b1d77426d" y="113.853543"/>
      </g>
     </g>
     <g id="text_38">
      <!-- 36 -->
      <g transform="translate(314.304882 130.913132)rotate(-45)scale(0.07 -0.07)">
       <use xlink:href="#DejaVuSans-51"/>
       <use x="63.623047" xlink:href="#DejaVuSans-54"/>
      </g>
     </g>
    </g>
    <g id="xtick_20">
     <g id="line2d_30">
      <g>
       <use style="stroke:#000000;stroke-width:0.8;" x="326.02647" xlink:href="#m3b1d77426d" y="113.853543"/>
      </g>
     </g>
     <g id="text_39">
      <!-- 72 -->
      <g transform="translate(324.243015 130.913132)rotate(-45)scale(0.07 -0.07)">
       <use xlink:href="#DejaVuSans-55"/>
       <use x="63.623047" xlink:href="#DejaVuSans-50"/>
      </g>
     </g>
    </g>
    <g id="xtick_21">
     <g id="line2d_31">
      <g>
       <use style="stroke:#000000;stroke-width:0.8;" x="335.964603" xlink:href="#m3b1d77426d" y="113.853543"/>
      </g>
     </g>
     <g id="text_40">
      <!-- 144 -->
      <g transform="translate(332.606509 134.062408)rotate(-45)scale(0.07 -0.07)">
       <use xlink:href="#DejaVuSans-49"/>
       <use x="63.623047" xlink:href="#DejaVuSans-52"/>
       <use x="127.246094" xlink:href="#DejaVuSans-52"/>
      </g>
     </g>
    </g>
    <g id="xtick_22">
     <g id="line2d_32">
      <g>
       <use style="stroke:#000000;stroke-width:0.8;" x="345.902736" xlink:href="#m3b1d77426d" y="113.853543"/>
      </g>
     </g>
     <g id="text_41">
      <!-- 288 -->
      <g transform="translate(342.544642 134.062408)rotate(-45)scale(0.07 -0.07)">
       <use xlink:href="#DejaVuSans-50"/>
       <use x="63.623047" xlink:href="#DejaVuSans-56"/>
       <use x="127.246094" xlink:href="#DejaVuSans-56"/>
      </g>
     </g>
    </g>
    <g id="xtick_23">
     <g id="line2d_33">
      <g>
       <use style="stroke:#000000;stroke-width:0.8;" x="355.840869" xlink:href="#m3b1d77426d" y="113.853543"/>
      </g>
     </g>
     <g id="text_42">
      <!-- 576 -->
      <g transform="translate(352.482774 134.062408)rotate(-45)scale(0.07 -0.07)">
       <use xlink:href="#DejaVuSans-53"/>
       <use x="63.623047" xlink:href="#DejaVuSans-55"/>
       <use x="127.246094" xlink:href="#DejaVuSans-54"/>
      </g>
     </g>
    </g>
    <g id="xtick_24">
     <g id="line2d_34">
      <g>
       <use style="stroke:#000000;stroke-width:0.8;" x="365.779001" xlink:href="#m3b1d77426d" y="113.853543"/>
      </g>
     </g>
     <g id="text_43">
      <!-- 1152 -->
      <g transform="translate(360.846269 137.211685)rotate(-45)scale(0.07 -0.07)">
       <use xlink:href="#DejaVuSans-49"/>
       <use x="63.623047" xlink:href="#DejaVuSans-49"/>
       <use x="127.246094" xlink:href="#DejaVuSans-53"/>
       <use x="190.869141" xlink:href="#DejaVuSans-50"/>
      </g>
     </g>
    </g>
    <g id="text_44">
     <!-- N_VP -->
     <g transform="translate(332.060623 147.365297)scale(0.07 -0.07)">
      <use xlink:href="#DejaVuSans-78"/>
      <use x="74.804688" xlink:href="#DejaVuSans-95"/>
      <use x="124.804688" xlink:href="#DejaVuSans-86"/>
      <use x="193.212891" xlink:href="#DejaVuSans-80"/>
     </g>
    </g>
   </g>
   <g id="matplotlib.axis_8">
    <g id="ytick_11">
     <g id="line2d_35">
      <g>
       <use style="stroke:#000000;stroke-width:0.8;" x="311.119271" xlink:href="#mc41f18d3bc" y="113.853543"/>
      </g>
     </g>
     <g id="text_45">
      <!-- 0 -->
      <g transform="translate(299.665521 116.512996)scale(0.07 -0.07)">
       <use xlink:href="#DejaVuSans-48"/>
      </g>
     </g>
    </g>
    <g id="ytick_12">
     <g id="line2d_36">
      <g>
       <use style="stroke:#000000;stroke-width:0.8;" x="311.119271" xlink:href="#mc41f18d3bc" y="93.191612"/>
      </g>
     </g>
     <g id="text_46">
      <!-- 1000 -->
      <g transform="translate(286.304271 95.851065)scale(0.07 -0.07)">
       <use xlink:href="#DejaVuSans-49"/>
       <use x="63.623047" xlink:href="#DejaVuSans-48"/>
       <use x="127.246094" xlink:href="#DejaVuSans-48"/>
       <use x="190.869141" xlink:href="#DejaVuSans-48"/>
      </g>
     </g>
    </g>
    <g id="ytick_13">
     <g id="line2d_37">
      <g>
       <use style="stroke:#000000;stroke-width:0.8;" x="311.119271" xlink:href="#mc41f18d3bc" y="72.52968"/>
      </g>
     </g>
     <g id="text_47">
      <!-- 2000 -->
      <g transform="translate(286.304271 75.189133)scale(0.07 -0.07)">
       <use xlink:href="#DejaVuSans-50"/>
       <use x="63.623047" xlink:href="#DejaVuSans-48"/>
       <use x="127.246094" xlink:href="#DejaVuSans-48"/>
       <use x="190.869141" xlink:href="#DejaVuSans-48"/>
      </g>
     </g>
    </g>
    <g id="ytick_14">
     <g id="line2d_38">
      <g>
       <use style="stroke:#000000;stroke-width:0.8;" x="311.119271" xlink:href="#mc41f18d3bc" y="51.867749"/>
      </g>
     </g>
     <g id="text_48">
      <!-- 3000 -->
      <g transform="translate(286.304271 54.527202)scale(0.07 -0.07)">
       <use xlink:href="#DejaVuSans-51"/>
       <use x="63.623047" xlink:href="#DejaVuSans-48"/>
       <use x="127.246094" xlink:href="#DejaVuSans-48"/>
       <use x="190.869141" xlink:href="#DejaVuSans-48"/>
      </g>
     </g>
    </g>
   </g>
   <g id="patch_69">
    <path d="M 311.119271 113.853543 
L 311.119271 38.948031 
" style="fill:none;stroke:#000000;stroke-linecap:square;stroke-linejoin:miter;stroke-width:0.8;"/>
   </g>
   <g id="patch_70">
    <path d="M 370.748068 113.853543 
L 370.748068 38.948031 
" style="fill:none;stroke:#000000;stroke-linecap:square;stroke-linejoin:miter;stroke-width:0.8;"/>
   </g>
   <g id="patch_71">
    <path d="M 311.119271 113.853543 
L 370.748068 113.853543 
" style="fill:none;stroke:#000000;stroke-linecap:square;stroke-linejoin:miter;stroke-width:0.8;"/>
   </g>
   <g id="patch_72">
    <path d="M 311.119271 38.948031 
L 370.748068 38.948031 
" style="fill:none;stroke:#000000;stroke-linecap:square;stroke-linejoin:miter;stroke-width:0.8;"/>
   </g>
   <g id="text_49">
    <!-- Simulation time -->
    <defs>
     <path d="M 8.5 21.578125 
L 8.5 54.6875 
L 17.484375 54.6875 
L 17.484375 21.921875 
Q 17.484375 14.15625 20.5 10.265625 
Q 23.53125 6.390625 29.59375 6.390625 
Q 36.859375 6.390625 41.078125 11.03125 
Q 45.3125 15.671875 45.3125 23.6875 
L 45.3125 54.6875 
L 54.296875 54.6875 
L 54.296875 0 
L 45.3125 0 
L 45.3125 8.40625 
Q 42.046875 3.421875 37.71875 1 
Q 33.40625 -1.421875 27.6875 -1.421875 
Q 18.265625 -1.421875 13.375 4.4375 
Q 8.5 10.296875 8.5 21.578125 
z
M 31.109375 56 
z
" id="DejaVuSans-117"/>
    </defs>
    <g transform="translate(313.271091 32.948031)scale(0.07 -0.07)">
     <use xlink:href="#DejaVuSans-83"/>
     <use x="63.476562" xlink:href="#DejaVuSans-105"/>
     <use x="91.259766" xlink:href="#DejaVuSans-109"/>
     <use x="188.671875" xlink:href="#DejaVuSans-117"/>
     <use x="252.050781" xlink:href="#DejaVuSans-108"/>
     <use x="279.833984" xlink:href="#DejaVuSans-97"/>
     <use x="341.113281" xlink:href="#DejaVuSans-116"/>
     <use x="380.322266" xlink:href="#DejaVuSans-105"/>
     <use x="408.105469" xlink:href="#DejaVuSans-111"/>
     <use x="469.287109" xlink:href="#DejaVuSans-110"/>
     <use x="532.666016" xlink:href="#DejaVuSans-32"/>
     <use x="564.453125" xlink:href="#DejaVuSans-116"/>
     <use x="603.662109" xlink:href="#DejaVuSans-105"/>
     <use x="631.445312" xlink:href="#DejaVuSans-109"/>
     <use x="728.857422" xlink:href="#DejaVuSans-101"/>
    </g>
   </g>
  </g>
  <g id="axes_5">
   <g id="patch_73">
    <path d="M 400.562466 113.853543 
L 460.191262 113.853543 
L 460.191262 38.948031 
L 400.562466 38.948031 
z
" style="fill:#ffffff;"/>
   </g>
   <g id="patch_74">
    <path clip-path="url(#pdd49e6c945)" d="M 403.046999 113.853543 
L 405.531532 113.853543 
L 405.531532 59.724135 
L 403.046999 59.724135 
z
" style="fill:#1f77b4;"/>
   </g>
   <g id="patch_75">
    <path clip-path="url(#pdd49e6c945)" d="M 412.985132 113.853543 
L 415.469665 113.853543 
L 415.469665 58.37226 
L 412.985132 58.37226 
z
" style="fill:#1f77b4;"/>
   </g>
   <g id="patch_76">
    <path clip-path="url(#pdd49e6c945)" d="M 422.923265 113.853543 
L 425.407798 113.853543 
L 425.407798 57.335276 
L 422.923265 57.335276 
z
" style="fill:#1f77b4;"/>
   </g>
   <g id="patch_77">
    <path clip-path="url(#pdd49e6c945)" d="M 432.861397 113.853543 
L 435.34593 113.853543 
L 435.34593 54.218143 
L 432.861397 54.218143 
z
" style="fill:#1f77b4;"/>
   </g>
   <g id="patch_78">
    <path clip-path="url(#pdd49e6c945)" d="M 442.79953 113.853543 
L 445.284063 113.853543 
L 445.284063 56.301153 
L 442.79953 56.301153 
z
" style="fill:#1f77b4;"/>
   </g>
   <g id="patch_79">
    <path clip-path="url(#pdd49e6c945)" d="M 452.737663 113.853543 
L 455.222196 113.853543 
L 455.222196 42.514961 
L 452.737663 42.514961 
z
" style="fill:#1f77b4;"/>
   </g>
   <g id="patch_80">
    <path clip-path="url(#pdd49e6c945)" d="M 405.531532 113.853543 
L 408.016065 113.853543 
L 408.016065 60.278879 
L 405.531532 60.278879 
z
" style="fill:#ff7f0e;"/>
   </g>
   <g id="patch_81">
    <path clip-path="url(#pdd49e6c945)" d="M 415.469665 113.853543 
L 417.954198 113.853543 
L 417.954198 58.64647 
L 415.469665 58.64647 
z
" style="fill:#ff7f0e;"/>
   </g>
   <g id="patch_82">
    <path clip-path="url(#pdd49e6c945)" d="M 425.407798 113.853543 
L 427.892331 113.853543 
L 427.892331 57.378606 
L 425.407798 57.378606 
z
" style="fill:#ff7f0e;"/>
   </g>
   <g id="patch_83">
    <path clip-path="url(#pdd49e6c945)" d="M 435.34593 113.853543 
L 437.830464 113.853543 
L 437.830464 55.114718 
L 435.34593 55.114718 
z
" style="fill:#ff7f0e;"/>
   </g>
   <g id="patch_84">
    <path clip-path="url(#pdd49e6c945)" d="M 445.284063 113.853543 
L 447.768596 113.853543 
L 447.768596 59.569787 
L 445.284063 59.569787 
z
" style="fill:#ff7f0e;"/>
   </g>
   <g id="patch_85">
    <path clip-path="url(#pdd49e6c945)" d="M 455.222196 113.853543 
L 457.706729 113.853543 
L 457.706729 49.837423 
L 455.222196 49.837423 
z
" style="fill:#ff7f0e;"/>
   </g>
   <g id="matplotlib.axis_9">
    <g id="xtick_25">
     <g id="line2d_39">
      <g>
       <use style="stroke:#000000;stroke-width:0.8;" x="405.531532" xlink:href="#m3b1d77426d" y="113.853543"/>
      </g>
     </g>
     <g id="text_50">
      <!-- 36 -->
      <g transform="translate(403.748076 130.913132)rotate(-45)scale(0.07 -0.07)">
       <use xlink:href="#DejaVuSans-51"/>
       <use x="63.623047" xlink:href="#DejaVuSans-54"/>
      </g>
     </g>
    </g>
    <g id="xtick_26">
     <g id="line2d_40">
      <g>
       <use style="stroke:#000000;stroke-width:0.8;" x="415.469665" xlink:href="#m3b1d77426d" y="113.853543"/>
      </g>
     </g>
     <g id="text_51">
      <!-- 72 -->
      <g transform="translate(413.686209 130.913132)rotate(-45)scale(0.07 -0.07)">
       <use xlink:href="#DejaVuSans-55"/>
       <use x="63.623047" xlink:href="#DejaVuSans-50"/>
      </g>
     </g>
    </g>
    <g id="xtick_27">
     <g id="line2d_41">
      <g>
       <use style="stroke:#000000;stroke-width:0.8;" x="425.407798" xlink:href="#m3b1d77426d" y="113.853543"/>
      </g>
     </g>
     <g id="text_52">
      <!-- 144 -->
      <g transform="translate(422.049703 134.062408)rotate(-45)scale(0.07 -0.07)">
       <use xlink:href="#DejaVuSans-49"/>
       <use x="63.623047" xlink:href="#DejaVuSans-52"/>
       <use x="127.246094" xlink:href="#DejaVuSans-52"/>
      </g>
     </g>
    </g>
    <g id="xtick_28">
     <g id="line2d_42">
      <g>
       <use style="stroke:#000000;stroke-width:0.8;" x="435.34593" xlink:href="#m3b1d77426d" y="113.853543"/>
      </g>
     </g>
     <g id="text_53">
      <!-- 288 -->
      <g transform="translate(431.987836 134.062408)rotate(-45)scale(0.07 -0.07)">
       <use xlink:href="#DejaVuSans-50"/>
       <use x="63.623047" xlink:href="#DejaVuSans-56"/>
       <use x="127.246094" xlink:href="#DejaVuSans-56"/>
      </g>
     </g>
    </g>
    <g id="xtick_29">
     <g id="line2d_43">
      <g>
       <use style="stroke:#000000;stroke-width:0.8;" x="445.284063" xlink:href="#m3b1d77426d" y="113.853543"/>
      </g>
     </g>
     <g id="text_54">
      <!-- 576 -->
      <g transform="translate(441.925969 134.062408)rotate(-45)scale(0.07 -0.07)">
       <use xlink:href="#DejaVuSans-53"/>
       <use x="63.623047" xlink:href="#DejaVuSans-55"/>
       <use x="127.246094" xlink:href="#DejaVuSans-54"/>
      </g>
     </g>
    </g>
    <g id="xtick_30">
     <g id="line2d_44">
      <g>
       <use style="stroke:#000000;stroke-width:0.8;" x="455.222196" xlink:href="#m3b1d77426d" y="113.853543"/>
      </g>
     </g>
     <g id="text_55">
      <!-- 1152 -->
      <g transform="translate(450.289463 137.211685)rotate(-45)scale(0.07 -0.07)">
       <use xlink:href="#DejaVuSans-49"/>
       <use x="63.623047" xlink:href="#DejaVuSans-49"/>
       <use x="127.246094" xlink:href="#DejaVuSans-53"/>
       <use x="190.869141" xlink:href="#DejaVuSans-50"/>
      </g>
     </g>
    </g>
    <g id="text_56">
     <!-- N_VP -->
     <g transform="translate(421.503817 147.365297)scale(0.07 -0.07)">
      <use xlink:href="#DejaVuSans-78"/>
      <use x="74.804688" xlink:href="#DejaVuSans-95"/>
      <use x="124.804688" xlink:href="#DejaVuSans-86"/>
      <use x="193.212891" xlink:href="#DejaVuSans-80"/>
     </g>
    </g>
   </g>
   <g id="matplotlib.axis_10">
    <g id="ytick_15">
     <g id="line2d_45">
      <g>
       <use style="stroke:#000000;stroke-width:0.8;" x="400.562466" xlink:href="#mc41f18d3bc" y="113.853543"/>
      </g>
     </g>
     <g id="text_57">
      <!-- 0 -->
      <g transform="translate(389.108716 116.512996)scale(0.07 -0.07)">
       <use xlink:href="#DejaVuSans-48"/>
      </g>
     </g>
    </g>
    <g id="ytick_16">
     <g id="line2d_46">
      <g>
       <use style="stroke:#000000;stroke-width:0.8;" x="400.562466" xlink:href="#mc41f18d3bc" y="93.170299"/>
      </g>
     </g>
     <g id="text_58">
      <!-- 1 -->
      <g transform="translate(389.108716 95.829752)scale(0.07 -0.07)">
       <use xlink:href="#DejaVuSans-49"/>
      </g>
     </g>
    </g>
    <g id="ytick_17">
     <g id="line2d_47">
      <g>
       <use style="stroke:#000000;stroke-width:0.8;" x="400.562466" xlink:href="#mc41f18d3bc" y="72.487055"/>
      </g>
     </g>
     <g id="text_59">
      <!-- 2 -->
      <g transform="translate(389.108716 75.146508)scale(0.07 -0.07)">
       <use xlink:href="#DejaVuSans-50"/>
      </g>
     </g>
    </g>
    <g id="ytick_18">
     <g id="line2d_48">
      <g>
       <use style="stroke:#000000;stroke-width:0.8;" x="400.562466" xlink:href="#mc41f18d3bc" y="51.80381"/>
      </g>
     </g>
     <g id="text_60">
      <!-- 3 -->
      <g transform="translate(389.108716 54.463263)scale(0.07 -0.07)">
       <use xlink:href="#DejaVuSans-51"/>
      </g>
     </g>
    </g>
    <g id="text_61">
     <!-- Memory [GiB] -->
     <defs>
      <path d="M 32.171875 -5.078125 
Q 28.375 -14.84375 24.75 -17.8125 
Q 21.140625 -20.796875 15.09375 -20.796875 
L 7.90625 -20.796875 
L 7.90625 -13.28125 
L 13.1875 -13.28125 
Q 16.890625 -13.28125 18.9375 -11.515625 
Q 21 -9.765625 23.484375 -3.21875 
L 25.09375 0.875 
L 2.984375 54.6875 
L 12.5 54.6875 
L 29.59375 11.921875 
L 46.6875 54.6875 
L 56.203125 54.6875 
z
" id="DejaVuSans-121"/>
      <path d="M 59.515625 10.40625 
L 59.515625 29.984375 
L 43.40625 29.984375 
L 43.40625 38.09375 
L 69.28125 38.09375 
L 69.28125 6.78125 
Q 63.578125 2.734375 56.6875 0.65625 
Q 49.8125 -1.421875 42 -1.421875 
Q 24.90625 -1.421875 15.25 8.5625 
Q 5.609375 18.5625 5.609375 36.375 
Q 5.609375 54.25 15.25 64.234375 
Q 24.90625 74.21875 42 74.21875 
Q 49.125 74.21875 55.546875 72.453125 
Q 61.96875 70.703125 67.390625 67.28125 
L 67.390625 56.78125 
Q 61.921875 61.421875 55.765625 63.765625 
Q 49.609375 66.109375 42.828125 66.109375 
Q 29.4375 66.109375 22.71875 58.640625 
Q 16.015625 51.171875 16.015625 36.375 
Q 16.015625 21.625 22.71875 14.15625 
Q 29.4375 6.6875 42.828125 6.6875 
Q 48.046875 6.6875 52.140625 7.59375 
Q 56.25 8.5 59.515625 10.40625 
z
" id="DejaVuSans-71"/>
      <path d="M 19.671875 34.8125 
L 19.671875 8.109375 
L 35.5 8.109375 
Q 43.453125 8.109375 47.28125 11.40625 
Q 51.125 14.703125 51.125 21.484375 
Q 51.125 28.328125 47.28125 31.5625 
Q 43.453125 34.8125 35.5 34.8125 
z
M 19.671875 64.796875 
L 19.671875 42.828125 
L 34.28125 42.828125 
Q 41.5 42.828125 45.03125 45.53125 
Q 48.578125 48.25 48.578125 53.8125 
Q 48.578125 59.328125 45.03125 62.0625 
Q 41.5 64.796875 34.28125 64.796875 
z
M 9.8125 72.90625 
L 35.015625 72.90625 
Q 46.296875 72.90625 52.390625 68.21875 
Q 58.5 63.53125 58.5 54.890625 
Q 58.5 48.1875 55.375 44.234375 
Q 52.25 40.28125 46.1875 39.3125 
Q 53.46875 37.75 57.5 32.78125 
Q 61.53125 27.828125 61.53125 20.40625 
Q 61.53125 10.640625 54.890625 5.3125 
Q 48.25 0 35.984375 0 
L 9.8125 0 
z
" id="DejaVuSans-66"/>
     </defs>
     <g transform="translate(383.652935 100.564459)rotate(-90)scale(0.07 -0.07)">
      <use xlink:href="#DejaVuSans-77"/>
      <use x="86.279297" xlink:href="#DejaVuSans-101"/>
      <use x="147.802734" xlink:href="#DejaVuSans-109"/>
      <use x="245.214844" xlink:href="#DejaVuSans-111"/>
      <use x="306.396484" xlink:href="#DejaVuSans-114"/>
      <use x="347.509766" xlink:href="#DejaVuSans-121"/>
      <use x="406.689453" xlink:href="#DejaVuSans-32"/>
      <use x="438.476562" xlink:href="#DejaVuSans-91"/>
      <use x="477.490234" xlink:href="#DejaVuSans-71"/>
      <use x="554.980469" xlink:href="#DejaVuSans-105"/>
      <use x="582.763672" xlink:href="#DejaVuSans-66"/>
      <use x="651.367188" xlink:href="#DejaVuSans-93"/>
     </g>
    </g>
   </g>
   <g id="patch_86">
    <path d="M 400.562466 113.853543 
L 400.562466 38.948031 
" style="fill:none;stroke:#000000;stroke-linecap:square;stroke-linejoin:miter;stroke-width:0.8;"/>
   </g>
   <g id="patch_87">
    <path d="M 460.191262 113.853543 
L 460.191262 38.948031 
" style="fill:none;stroke:#000000;stroke-linecap:square;stroke-linejoin:miter;stroke-width:0.8;"/>
   </g>
   <g id="patch_88">
    <path d="M 400.562466 113.853543 
L 460.191262 113.853543 
" style="fill:none;stroke:#000000;stroke-linecap:square;stroke-linejoin:miter;stroke-width:0.8;"/>
   </g>
   <g id="patch_89">
    <path d="M 400.562466 38.948031 
L 460.191262 38.948031 
" style="fill:none;stroke:#000000;stroke-linecap:square;stroke-linejoin:miter;stroke-width:0.8;"/>
   </g>
   <g id="text_62">
    <!-- Memory per VP -->
    <defs>
     <path d="M 18.109375 8.203125 
L 18.109375 -20.796875 
L 9.078125 -20.796875 
L 9.078125 54.6875 
L 18.109375 54.6875 
L 18.109375 46.390625 
Q 20.953125 51.265625 25.265625 53.625 
Q 29.59375 56 35.59375 56 
Q 45.5625 56 51.78125 48.09375 
Q 58.015625 40.1875 58.015625 27.296875 
Q 58.015625 14.40625 51.78125 6.484375 
Q 45.5625 -1.421875 35.59375 -1.421875 
Q 29.59375 -1.421875 25.265625 0.953125 
Q 20.953125 3.328125 18.109375 8.203125 
z
M 48.6875 27.296875 
Q 48.6875 37.203125 44.609375 42.84375 
Q 40.53125 48.484375 33.40625 48.484375 
Q 26.265625 48.484375 22.1875 42.84375 
Q 18.109375 37.203125 18.109375 27.296875 
Q 18.109375 17.390625 22.1875 11.75 
Q 26.265625 6.109375 33.40625 6.109375 
Q 40.53125 6.109375 44.609375 11.75 
Q 48.6875 17.390625 48.6875 27.296875 
z
" id="DejaVuSans-112"/>
    </defs>
    <g transform="translate(403.598583 32.948031)scale(0.07 -0.07)">
     <use xlink:href="#DejaVuSans-77"/>
     <use x="86.279297" xlink:href="#DejaVuSans-101"/>
     <use x="147.802734" xlink:href="#DejaVuSans-109"/>
     <use x="245.214844" xlink:href="#DejaVuSans-111"/>
     <use x="306.396484" xlink:href="#DejaVuSans-114"/>
     <use x="347.509766" xlink:href="#DejaVuSans-121"/>
     <use x="406.689453" xlink:href="#DejaVuSans-32"/>
     <use x="438.476562" xlink:href="#DejaVuSans-112"/>
     <use x="501.953125" xlink:href="#DejaVuSans-101"/>
     <use x="563.476562" xlink:href="#DejaVuSans-114"/>
     <use x="604.589844" xlink:href="#DejaVuSans-32"/>
     <use x="636.376953" xlink:href="#DejaVuSans-86"/>
     <use x="704.785156" xlink:href="#DejaVuSans-80"/>
    </g>
   </g>
  </g>
  <g id="text_63">
   <!-- Multi-Area model weak scaling -->
   <defs>
    <path d="M 4.890625 31.390625 
L 31.203125 31.390625 
L 31.203125 23.390625 
L 4.890625 23.390625 
z
" id="DejaVuSans-45"/>
    <path d="M 34.1875 63.1875 
L 20.796875 26.90625 
L 47.609375 26.90625 
z
M 28.609375 72.90625 
L 39.796875 72.90625 
L 67.578125 0 
L 57.328125 0 
L 50.6875 18.703125 
L 17.828125 18.703125 
L 11.1875 0 
L 0.78125 0 
z
" id="DejaVuSans-65"/>
    <path d="M 45.40625 46.390625 
L 45.40625 75.984375 
L 54.390625 75.984375 
L 54.390625 0 
L 45.40625 0 
L 45.40625 8.203125 
Q 42.578125 3.328125 38.25 0.953125 
Q 33.9375 -1.421875 27.875 -1.421875 
Q 17.96875 -1.421875 11.734375 6.484375 
Q 5.515625 14.40625 5.515625 27.296875 
Q 5.515625 40.1875 11.734375 48.09375 
Q 17.96875 56 27.875 56 
Q 33.9375 56 38.25 53.625 
Q 42.578125 51.265625 45.40625 46.390625 
z
M 14.796875 27.296875 
Q 14.796875 17.390625 18.875 11.75 
Q 22.953125 6.109375 30.078125 6.109375 
Q 37.203125 6.109375 41.296875 11.75 
Q 45.40625 17.390625 45.40625 27.296875 
Q 45.40625 37.203125 41.296875 42.84375 
Q 37.203125 48.484375 30.078125 48.484375 
Q 22.953125 48.484375 18.875 42.84375 
Q 14.796875 37.203125 14.796875 27.296875 
z
" id="DejaVuSans-100"/>
    <path d="M 4.203125 54.6875 
L 13.1875 54.6875 
L 24.421875 12.015625 
L 35.59375 54.6875 
L 46.1875 54.6875 
L 57.421875 12.015625 
L 68.609375 54.6875 
L 77.59375 54.6875 
L 63.28125 0 
L 52.6875 0 
L 40.921875 44.828125 
L 29.109375 0 
L 18.5 0 
z
" id="DejaVuSans-119"/>
    <path d="M 9.078125 75.984375 
L 18.109375 75.984375 
L 18.109375 31.109375 
L 44.921875 54.6875 
L 56.390625 54.6875 
L 27.390625 29.109375 
L 57.625 0 
L 45.90625 0 
L 18.109375 26.703125 
L 18.109375 0 
L 9.078125 0 
z
" id="DejaVuSans-107"/>
   </defs>
   <g transform="translate(152.791316 16.318125)scale(0.12 -0.12)">
    <use xlink:href="#DejaVuSans-77"/>
    <use x="86.279297" xlink:href="#DejaVuSans-117"/>
    <use x="149.658203" xlink:href="#DejaVuSans-108"/>
    <use x="177.441406" xlink:href="#DejaVuSans-116"/>
    <use x="216.650391" xlink:href="#DejaVuSans-105"/>
    <use x="244.433594" xlink:href="#DejaVuSans-45"/>
    <use x="280.486328" xlink:href="#DejaVuSans-65"/>
    <use x="348.894531" xlink:href="#DejaVuSans-114"/>
    <use x="389.976562" xlink:href="#DejaVuSans-101"/>
    <use x="451.5" xlink:href="#DejaVuSans-97"/>
    <use x="512.779297" xlink:href="#DejaVuSans-32"/>
    <use x="544.566406" xlink:href="#DejaVuSans-109"/>
    <use x="641.978516" xlink:href="#DejaVuSans-111"/>
    <use x="703.160156" xlink:href="#DejaVuSans-100"/>
    <use x="766.636719" xlink:href="#DejaVuSans-101"/>
    <use x="828.160156" xlink:href="#DejaVuSans-108"/>
    <use x="855.943359" xlink:href="#DejaVuSans-32"/>
    <use x="887.730469" xlink:href="#DejaVuSans-119"/>
    <use x="969.517578" xlink:href="#DejaVuSans-101"/>
    <use x="1031.041016" xlink:href="#DejaVuSans-97"/>
    <use x="1092.320312" xlink:href="#DejaVuSans-107"/>
    <use x="1150.230469" xlink:href="#DejaVuSans-32"/>
    <use x="1182.017578" xlink:href="#DejaVuSans-115"/>
    <use x="1234.117188" xlink:href="#DejaVuSans-99"/>
    <use x="1289.097656" xlink:href="#DejaVuSans-97"/>
    <use x="1350.376953" xlink:href="#DejaVuSans-108"/>
    <use x="1378.160156" xlink:href="#DejaVuSans-105"/>
    <use x="1405.943359" xlink:href="#DejaVuSans-110"/>
    <use x="1469.322266" xlink:href="#DejaVuSans-103"/>
   </g>
  </g>
 </g>
 <defs>
  <clipPath id="pe83c8cef59">
   <rect height="74.905512" width="59.628796" x="42.789687" y="38.948031"/>
  </clipPath>
  <clipPath id="p26bdde87c1">
   <rect height="74.905512" width="59.628796" x="132.232882" y="38.948031"/>
  </clipPath>
  <clipPath id="pb3e18b4aff">
   <rect height="74.905512" width="59.628796" x="221.676077" y="38.948031"/>
  </clipPath>
  <clipPath id="p632aeba330">
   <rect height="74.905512" width="59.628796" x="311.119271" y="38.948031"/>
  </clipPath>
  <clipPath id="pdd49e6c945">
   <rect height="74.905512" width="59.628796" x="400.562466" y="38.948031"/>
  </clipPath>
 </defs>
</svg>
