<?xml version="1.0" encoding="utf-8" standalone="no"?>
<!DOCTYPE svg PUBLIC "-//W3C//DTD SVG 1.1//EN"
  "http://www.w3.org/Graphics/SVG/1.1/DTD/svg11.dtd">
<!-- Created with matplotlib (https://matplotlib.org/) -->
<svg height="156.215766pt" version="1.1" viewBox="0 0 465.307013 156.215766" width="465.307013pt" xmlns="http://www.w3.org/2000/svg" xmlns:xlink="http://www.w3.org/1999/xlink">
 <defs>
  <style type="text/css">
*{stroke-linecap:butt;stroke-linejoin:round;}
  </style>
 </defs>
 <g id="figure_1">
  <g id="patch_1">
   <path d="M 0 156.215766 
L 465.307013 156.215766 
L 465.307013 0 
L 0 0 
z
" style="fill:#ffffff;"/>
  </g>
  <g id="axes_1">
   <g id="patch_2">
    <path d="M 38.335937 113.853543 
L 114.227133 113.853543 
L 114.227133 38.948031 
L 38.335937 38.948031 
z
" style="fill:#ffffff;"/>
   </g>
   <g id="patch_3">
    <path clip-path="url(#p3416a7e934)" d="M 41.498071 113.853543 
L 42.762924 113.853543 
L 42.762924 109.618313 
L 41.498071 109.618313 
z
" style="fill:#1f77b4;"/>
   </g>
   <g id="patch_4">
    <path clip-path="url(#p3416a7e934)" d="M 54.146603 113.853543 
L 55.411456 113.853543 
L 55.411456 106.337353 
L 54.146603 106.337353 
z
" style="fill:#1f77b4;"/>
   </g>
   <g id="patch_5">
    <path clip-path="url(#p3416a7e934)" d="M 66.795136 113.853543 
L 68.059989 113.853543 
L 68.059989 102.075579 
L 66.795136 102.075579 
z
" style="fill:#1f77b4;"/>
   </g>
   <g id="patch_6">
    <path clip-path="url(#p3416a7e934)" d="M 79.443668 113.853543 
L 80.708522 113.853543 
L 80.708522 94.215503 
L 79.443668 94.215503 
z
" style="fill:#1f77b4;"/>
   </g>
   <g id="patch_7">
    <path clip-path="url(#p3416a7e934)" d="M 92.092201 113.853543 
L 93.357054 113.853543 
L 93.357054 76.78226 
L 92.092201 76.78226 
z
" style="fill:#1f77b4;"/>
   </g>
   <g id="patch_8">
    <path clip-path="url(#p3416a7e934)" d="M 104.740733 113.853543 
L 106.005587 113.853543 
L 106.005587 42.514961 
L 104.740733 42.514961 
z
" style="fill:#1f77b4;"/>
   </g>
   <g id="patch_9">
    <path clip-path="url(#p3416a7e934)" d="M 42.762924 113.853543 
L 44.027777 113.853543 
L 44.027777 110.40102 
L 42.762924 110.40102 
z
" style="fill:#ff7f0e;"/>
   </g>
   <g id="patch_10">
    <path clip-path="url(#p3416a7e934)" d="M 55.411456 113.853543 
L 56.67631 113.853543 
L 56.67631 108.668889 
L 55.411456 108.668889 
z
" style="fill:#ff7f0e;"/>
   </g>
   <g id="patch_11">
    <path clip-path="url(#p3416a7e934)" d="M 68.059989 113.853543 
L 69.324842 113.853543 
L 69.324842 107.108818 
L 68.059989 107.108818 
z
" style="fill:#ff7f0e;"/>
   </g>
   <g id="patch_12">
    <path clip-path="url(#p3416a7e934)" d="M 80.708522 113.853543 
L 81.973375 113.853543 
L 81.973375 104.068953 
L 80.708522 104.068953 
z
" style="fill:#ff7f0e;"/>
   </g>
   <g id="patch_13">
    <path clip-path="url(#p3416a7e934)" d="M 93.357054 113.853543 
L 94.621907 113.853543 
L 94.621907 97.621808 
L 93.357054 97.621808 
z
" style="fill:#ff7f0e;"/>
   </g>
   <g id="patch_14">
    <path clip-path="url(#p3416a7e934)" d="M 106.005587 113.853543 
L 107.27044 113.853543 
L 107.27044 84.958558 
L 106.005587 84.958558 
z
" style="fill:#ff7f0e;"/>
   </g>
   <g id="patch_15">
    <path clip-path="url(#p3416a7e934)" d="M 44.027777 113.853543 
L 45.29263 113.853543 
L 45.29263 110.404772 
L 44.027777 110.404772 
z
" style="fill:#2ca02c;"/>
   </g>
   <g id="patch_16">
    <path clip-path="url(#p3416a7e934)" d="M 56.67631 113.853543 
L 57.941163 113.853543 
L 57.941163 108.674333 
L 56.67631 108.674333 
z
" style="fill:#2ca02c;"/>
   </g>
   <g id="patch_17">
    <path clip-path="url(#p3416a7e934)" d="M 69.324842 113.853543 
L 70.589696 113.853543 
L 70.589696 107.087868 
L 69.324842 107.087868 
z
" style="fill:#2ca02c;"/>
   </g>
   <g id="patch_18">
    <path clip-path="url(#p3416a7e934)" d="M 81.973375 113.853543 
L 83.238228 113.853543 
L 83.238228 103.955711 
L 81.973375 103.955711 
z
" style="fill:#2ca02c;"/>
   </g>
   <g id="patch_19">
    <path clip-path="url(#p3416a7e934)" d="M 94.621907 113.853543 
L 95.886761 113.853543 
L 95.886761 97.420862 
L 94.621907 97.420862 
z
" style="fill:#2ca02c;"/>
   </g>
   <g id="patch_20">
    <path clip-path="url(#p3416a7e934)" d="M 107.27044 113.853543 
L 108.535293 113.853543 
L 108.535293 84.610095 
L 107.27044 84.610095 
z
" style="fill:#2ca02c;"/>
   </g>
   <g id="patch_21">
    <path clip-path="url(#p3416a7e934)" d="M 45.29263 113.853543 
L 46.557484 113.853543 
L 46.557484 110.29435 
L 45.29263 110.29435 
z
" style="fill:#d62728;"/>
   </g>
   <g id="patch_22">
    <path clip-path="url(#p3416a7e934)" d="M 57.941163 113.853543 
L 59.206016 113.853543 
L 59.206016 108.500602 
L 57.941163 108.500602 
z
" style="fill:#d62728;"/>
   </g>
   <g id="patch_23">
    <path clip-path="url(#p3416a7e934)" d="M 70.589696 113.853543 
L 71.854549 113.853543 
L 71.854549 106.859787 
L 70.589696 106.859787 
z
" style="fill:#d62728;"/>
   </g>
   <g id="patch_24">
    <path clip-path="url(#p3416a7e934)" d="M 83.238228 113.853543 
L 84.503081 113.853543 
L 84.503081 103.547154 
L 83.238228 103.547154 
z
" style="fill:#d62728;"/>
   </g>
   <g id="patch_25">
    <path clip-path="url(#p3416a7e934)" d="M 95.886761 113.853543 
L 97.151614 113.853543 
L 97.151614 96.691975 
L 95.886761 96.691975 
z
" style="fill:#d62728;"/>
   </g>
   <g id="patch_26">
    <path clip-path="url(#p3416a7e934)" d="M 108.535293 113.853543 
L 109.800147 113.853543 
L 109.800147 83.267102 
L 108.535293 83.267102 
z
" style="fill:#d62728;"/>
   </g>
   <g id="patch_27">
    <path clip-path="url(#p3416a7e934)" d="M 46.557484 113.853543 
L 47.822337 113.853543 
L 47.822337 110.320682 
L 46.557484 110.320682 
z
" style="fill:#9467bd;"/>
   </g>
   <g id="patch_28">
    <path clip-path="url(#p3416a7e934)" d="M 59.206016 113.853543 
L 60.470869 113.853543 
L 60.470869 108.506173 
L 59.206016 108.506173 
z
" style="fill:#9467bd;"/>
   </g>
   <g id="patch_29">
    <path clip-path="url(#p3416a7e934)" d="M 71.854549 113.853543 
L 73.119402 113.853543 
L 73.119402 106.859704 
L 71.854549 106.859704 
z
" style="fill:#9467bd;"/>
   </g>
   <g id="patch_30">
    <path clip-path="url(#p3416a7e934)" d="M 84.503081 113.853543 
L 85.767935 113.853543 
L 85.767935 103.535674 
L 84.503081 103.535674 
z
" style="fill:#9467bd;"/>
   </g>
   <g id="patch_31">
    <path clip-path="url(#p3416a7e934)" d="M 97.151614 113.853543 
L 98.416467 113.853543 
L 98.416467 96.653981 
L 97.151614 96.653981 
z
" style="fill:#9467bd;"/>
   </g>
   <g id="patch_32">
    <path clip-path="url(#p3416a7e934)" d="M 109.800147 113.853543 
L 111.065 113.853543 
L 111.065 83.144563 
L 109.800147 83.144563 
z
" style="fill:#9467bd;"/>
   </g>
   <g id="matplotlib.axis_1">
    <g id="xtick_1">
     <g id="line2d_1">
      <defs>
       <path d="M 0 0 
L 0 3.5 
" id="m4cf38f3c4d" style="stroke:#000000;stroke-width:0.8;"/>
      </defs>
      <g>
       <use style="stroke:#000000;stroke-width:0.8;" x="44.660204" xlink:href="#m4cf38f3c4d" y="113.853543"/>
      </g>
     </g>
     <g id="text_1">
      <!-- 36 -->
      <defs>
       <path d="M 40.578125 39.3125 
Q 47.65625 37.796875 51.625 33 
Q 55.609375 28.21875 55.609375 21.1875 
Q 55.609375 10.40625 48.1875 4.484375 
Q 40.765625 -1.421875 27.09375 -1.421875 
Q 22.515625 -1.421875 17.65625 -0.515625 
Q 12.796875 0.390625 7.625 2.203125 
L 7.625 11.71875 
Q 11.71875 9.328125 16.59375 8.109375 
Q 21.484375 6.890625 26.8125 6.890625 
Q 36.078125 6.890625 40.9375 10.546875 
Q 45.796875 14.203125 45.796875 21.1875 
Q 45.796875 27.640625 41.28125 31.265625 
Q 36.765625 34.90625 28.71875 34.90625 
L 20.21875 34.90625 
L 20.21875 43.015625 
L 29.109375 43.015625 
Q 36.375 43.015625 40.234375 45.921875 
Q 44.09375 48.828125 44.09375 54.296875 
Q 44.09375 59.90625 40.109375 62.90625 
Q 36.140625 65.921875 28.71875 65.921875 
Q 24.65625 65.921875 20.015625 65.03125 
Q 15.375 64.15625 9.8125 62.3125 
L 9.8125 71.09375 
Q 15.4375 72.65625 20.34375 73.4375 
Q 25.25 74.21875 29.59375 74.21875 
Q 40.828125 74.21875 47.359375 69.109375 
Q 53.90625 64.015625 53.90625 55.328125 
Q 53.90625 49.265625 50.4375 45.09375 
Q 46.96875 40.921875 40.578125 39.3125 
z
" id="DejaVuSans-51"/>
       <path d="M 33.015625 40.375 
Q 26.375 40.375 22.484375 35.828125 
Q 18.609375 31.296875 18.609375 23.390625 
Q 18.609375 15.53125 22.484375 10.953125 
Q 26.375 6.390625 33.015625 6.390625 
Q 39.65625 6.390625 43.53125 10.953125 
Q 47.40625 15.53125 47.40625 23.390625 
Q 47.40625 31.296875 43.53125 35.828125 
Q 39.65625 40.375 33.015625 40.375 
z
M 52.59375 71.296875 
L 52.59375 62.3125 
Q 48.875 64.0625 45.09375 64.984375 
Q 41.3125 65.921875 37.59375 65.921875 
Q 27.828125 65.921875 22.671875 59.328125 
Q 17.53125 52.734375 16.796875 39.40625 
Q 19.671875 43.65625 24.015625 45.921875 
Q 28.375 48.1875 33.59375 48.1875 
Q 44.578125 48.1875 50.953125 41.515625 
Q 57.328125 34.859375 57.328125 23.390625 
Q 57.328125 12.15625 50.6875 5.359375 
Q 44.046875 -1.421875 33.015625 -1.421875 
Q 20.359375 -1.421875 13.671875 8.265625 
Q 6.984375 17.96875 6.984375 36.375 
Q 6.984375 53.65625 15.1875 63.9375 
Q 23.390625 74.21875 37.203125 74.21875 
Q 40.921875 74.21875 44.703125 73.484375 
Q 48.484375 72.75 52.59375 71.296875 
z
" id="DejaVuSans-54"/>
      </defs>
      <g transform="translate(42.876748 130.913132)rotate(-45)scale(0.07 -0.07)">
       <use xlink:href="#DejaVuSans-51"/>
       <use x="63.623047" xlink:href="#DejaVuSans-54"/>
      </g>
     </g>
    </g>
    <g id="xtick_2">
     <g id="line2d_2">
      <g>
       <use style="stroke:#000000;stroke-width:0.8;" x="57.308736" xlink:href="#m4cf38f3c4d" y="113.853543"/>
      </g>
     </g>
     <g id="text_2">
      <!-- 72 -->
      <defs>
       <path d="M 8.203125 72.90625 
L 55.078125 72.90625 
L 55.078125 68.703125 
L 28.609375 0 
L 18.3125 0 
L 43.21875 64.59375 
L 8.203125 64.59375 
z
" id="DejaVuSans-55"/>
       <path d="M 19.1875 8.296875 
L 53.609375 8.296875 
L 53.609375 0 
L 7.328125 0 
L 7.328125 8.296875 
Q 12.9375 14.109375 22.625 23.890625 
Q 32.328125 33.6875 34.8125 36.53125 
Q 39.546875 41.84375 41.421875 45.53125 
Q 43.3125 49.21875 43.3125 52.78125 
Q 43.3125 58.59375 39.234375 62.25 
Q 35.15625 65.921875 28.609375 65.921875 
Q 23.96875 65.921875 18.8125 64.3125 
Q 13.671875 62.703125 7.8125 59.421875 
L 7.8125 69.390625 
Q 13.765625 71.78125 18.9375 73 
Q 24.125 74.21875 28.421875 74.21875 
Q 39.75 74.21875 46.484375 68.546875 
Q 53.21875 62.890625 53.21875 53.421875 
Q 53.21875 48.921875 51.53125 44.890625 
Q 49.859375 40.875 45.40625 35.40625 
Q 44.1875 33.984375 37.640625 27.21875 
Q 31.109375 20.453125 19.1875 8.296875 
z
" id="DejaVuSans-50"/>
      </defs>
      <g transform="translate(55.52528 130.913132)rotate(-45)scale(0.07 -0.07)">
       <use xlink:href="#DejaVuSans-55"/>
       <use x="63.623047" xlink:href="#DejaVuSans-50"/>
      </g>
     </g>
    </g>
    <g id="xtick_3">
     <g id="line2d_3">
      <g>
       <use style="stroke:#000000;stroke-width:0.8;" x="69.957269" xlink:href="#m4cf38f3c4d" y="113.853543"/>
      </g>
     </g>
     <g id="text_3">
      <!-- 144 -->
      <defs>
       <path d="M 12.40625 8.296875 
L 28.515625 8.296875 
L 28.515625 63.921875 
L 10.984375 60.40625 
L 10.984375 69.390625 
L 28.421875 72.90625 
L 38.28125 72.90625 
L 38.28125 8.296875 
L 54.390625 8.296875 
L 54.390625 0 
L 12.40625 0 
z
" id="DejaVuSans-49"/>
       <path d="M 37.796875 64.3125 
L 12.890625 25.390625 
L 37.796875 25.390625 
z
M 35.203125 72.90625 
L 47.609375 72.90625 
L 47.609375 25.390625 
L 58.015625 25.390625 
L 58.015625 17.1875 
L 47.609375 17.1875 
L 47.609375 0 
L 37.796875 0 
L 37.796875 17.1875 
L 4.890625 17.1875 
L 4.890625 26.703125 
z
" id="DejaVuSans-52"/>
      </defs>
      <g transform="translate(66.599175 134.062408)rotate(-45)scale(0.07 -0.07)">
       <use xlink:href="#DejaVuSans-49"/>
       <use x="63.623047" xlink:href="#DejaVuSans-52"/>
       <use x="127.246094" xlink:href="#DejaVuSans-52"/>
      </g>
     </g>
    </g>
    <g id="xtick_4">
     <g id="line2d_4">
      <g>
       <use style="stroke:#000000;stroke-width:0.8;" x="82.605801" xlink:href="#m4cf38f3c4d" y="113.853543"/>
      </g>
     </g>
     <g id="text_4">
      <!-- 288 -->
      <defs>
       <path d="M 31.78125 34.625 
Q 24.75 34.625 20.71875 30.859375 
Q 16.703125 27.09375 16.703125 20.515625 
Q 16.703125 13.921875 20.71875 10.15625 
Q 24.75 6.390625 31.78125 6.390625 
Q 38.8125 6.390625 42.859375 10.171875 
Q 46.921875 13.96875 46.921875 20.515625 
Q 46.921875 27.09375 42.890625 30.859375 
Q 38.875 34.625 31.78125 34.625 
z
M 21.921875 38.8125 
Q 15.578125 40.375 12.03125 44.71875 
Q 8.5 49.078125 8.5 55.328125 
Q 8.5 64.0625 14.71875 69.140625 
Q 20.953125 74.21875 31.78125 74.21875 
Q 42.671875 74.21875 48.875 69.140625 
Q 55.078125 64.0625 55.078125 55.328125 
Q 55.078125 49.078125 51.53125 44.71875 
Q 48 40.375 41.703125 38.8125 
Q 48.828125 37.15625 52.796875 32.3125 
Q 56.78125 27.484375 56.78125 20.515625 
Q 56.78125 9.90625 50.3125 4.234375 
Q 43.84375 -1.421875 31.78125 -1.421875 
Q 19.734375 -1.421875 13.25 4.234375 
Q 6.78125 9.90625 6.78125 20.515625 
Q 6.78125 27.484375 10.78125 32.3125 
Q 14.796875 37.15625 21.921875 38.8125 
z
M 18.3125 54.390625 
Q 18.3125 48.734375 21.84375 45.5625 
Q 25.390625 42.390625 31.78125 42.390625 
Q 38.140625 42.390625 41.71875 45.5625 
Q 45.3125 48.734375 45.3125 54.390625 
Q 45.3125 60.0625 41.71875 63.234375 
Q 38.140625 66.40625 31.78125 66.40625 
Q 25.390625 66.40625 21.84375 63.234375 
Q 18.3125 60.0625 18.3125 54.390625 
z
" id="DejaVuSans-56"/>
      </defs>
      <g transform="translate(79.247707 134.062408)rotate(-45)scale(0.07 -0.07)">
       <use xlink:href="#DejaVuSans-50"/>
       <use x="63.623047" xlink:href="#DejaVuSans-56"/>
       <use x="127.246094" xlink:href="#DejaVuSans-56"/>
      </g>
     </g>
    </g>
    <g id="xtick_5">
     <g id="line2d_5">
      <g>
       <use style="stroke:#000000;stroke-width:0.8;" x="95.254334" xlink:href="#m4cf38f3c4d" y="113.853543"/>
      </g>
     </g>
     <g id="text_5">
      <!-- 576 -->
      <defs>
       <path d="M 10.796875 72.90625 
L 49.515625 72.90625 
L 49.515625 64.59375 
L 19.828125 64.59375 
L 19.828125 46.734375 
Q 21.96875 47.46875 24.109375 47.828125 
Q 26.265625 48.1875 28.421875 48.1875 
Q 40.625 48.1875 47.75 41.5 
Q 54.890625 34.8125 54.890625 23.390625 
Q 54.890625 11.625 47.5625 5.09375 
Q 40.234375 -1.421875 26.90625 -1.421875 
Q 22.3125 -1.421875 17.546875 -0.640625 
Q 12.796875 0.140625 7.71875 1.703125 
L 7.71875 11.625 
Q 12.109375 9.234375 16.796875 8.0625 
Q 21.484375 6.890625 26.703125 6.890625 
Q 35.15625 6.890625 40.078125 11.328125 
Q 45.015625 15.765625 45.015625 23.390625 
Q 45.015625 31 40.078125 35.4375 
Q 35.15625 39.890625 26.703125 39.890625 
Q 22.75 39.890625 18.8125 39.015625 
Q 14.890625 38.140625 10.796875 36.28125 
z
" id="DejaVuSans-53"/>
      </defs>
      <g transform="translate(91.89624 134.062408)rotate(-45)scale(0.07 -0.07)">
       <use xlink:href="#DejaVuSans-53"/>
       <use x="63.623047" xlink:href="#DejaVuSans-55"/>
       <use x="127.246094" xlink:href="#DejaVuSans-54"/>
      </g>
     </g>
    </g>
    <g id="xtick_6">
     <g id="line2d_6">
      <g>
       <use style="stroke:#000000;stroke-width:0.8;" x="107.902867" xlink:href="#m4cf38f3c4d" y="113.853543"/>
      </g>
     </g>
     <g id="text_6">
      <!-- 1152 -->
      <g transform="translate(102.970134 137.211685)rotate(-45)scale(0.07 -0.07)">
       <use xlink:href="#DejaVuSans-49"/>
       <use x="63.623047" xlink:href="#DejaVuSans-49"/>
       <use x="127.246094" xlink:href="#DejaVuSans-53"/>
       <use x="190.869141" xlink:href="#DejaVuSans-50"/>
      </g>
     </g>
    </g>
    <g id="text_7">
     <!-- N_VP -->
     <defs>
      <path d="M 9.8125 72.90625 
L 23.09375 72.90625 
L 55.421875 11.921875 
L 55.421875 72.90625 
L 64.984375 72.90625 
L 64.984375 0 
L 51.703125 0 
L 19.390625 60.984375 
L 19.390625 0 
L 9.8125 0 
z
" id="DejaVuSans-78"/>
      <path d="M 50.984375 -16.609375 
L 50.984375 -23.578125 
L -0.984375 -23.578125 
L -0.984375 -16.609375 
z
" id="DejaVuSans-95"/>
      <path d="M 28.609375 0 
L 0.78125 72.90625 
L 11.078125 72.90625 
L 34.1875 11.53125 
L 57.328125 72.90625 
L 67.578125 72.90625 
L 39.796875 0 
z
" id="DejaVuSans-86"/>
      <path d="M 19.671875 64.796875 
L 19.671875 37.40625 
L 32.078125 37.40625 
Q 38.96875 37.40625 42.71875 40.96875 
Q 46.484375 44.53125 46.484375 51.125 
Q 46.484375 57.671875 42.71875 61.234375 
Q 38.96875 64.796875 32.078125 64.796875 
z
M 9.8125 72.90625 
L 32.078125 72.90625 
Q 44.34375 72.90625 50.609375 67.359375 
Q 56.890625 61.8125 56.890625 51.125 
Q 56.890625 40.328125 50.609375 34.8125 
Q 44.34375 29.296875 32.078125 29.296875 
L 19.671875 29.296875 
L 19.671875 0 
L 9.8125 0 
z
" id="DejaVuSans-80"/>
     </defs>
     <g transform="translate(67.408488 147.365297)scale(0.07 -0.07)">
      <use xlink:href="#DejaVuSans-78"/>
      <use x="74.804688" xlink:href="#DejaVuSans-95"/>
      <use x="124.804688" xlink:href="#DejaVuSans-86"/>
      <use x="193.212891" xlink:href="#DejaVuSans-80"/>
     </g>
    </g>
   </g>
   <g id="matplotlib.axis_2">
    <g id="ytick_1">
     <g id="line2d_7">
      <defs>
       <path d="M 0 0 
L -3.5 0 
" id="m4d1041df02" style="stroke:#000000;stroke-width:0.8;"/>
      </defs>
      <g>
       <use style="stroke:#000000;stroke-width:0.8;" x="38.335937" xlink:href="#m4d1041df02" y="113.853543"/>
      </g>
     </g>
     <g id="text_8">
      <!-- 0 -->
      <defs>
       <path d="M 31.78125 66.40625 
Q 24.171875 66.40625 20.328125 58.90625 
Q 16.5 51.421875 16.5 36.375 
Q 16.5 21.390625 20.328125 13.890625 
Q 24.171875 6.390625 31.78125 6.390625 
Q 39.453125 6.390625 43.28125 13.890625 
Q 47.125 21.390625 47.125 36.375 
Q 47.125 51.421875 43.28125 58.90625 
Q 39.453125 66.40625 31.78125 66.40625 
z
M 31.78125 74.21875 
Q 44.046875 74.21875 50.515625 64.515625 
Q 56.984375 54.828125 56.984375 36.375 
Q 56.984375 17.96875 50.515625 8.265625 
Q 44.046875 -1.421875 31.78125 -1.421875 
Q 19.53125 -1.421875 13.0625 8.265625 
Q 6.59375 17.96875 6.59375 36.375 
Q 6.59375 54.828125 13.0625 64.515625 
Q 19.53125 74.21875 31.78125 74.21875 
z
" id="DejaVuSans-48"/>
      </defs>
      <g transform="translate(26.882187 116.512996)scale(0.07 -0.07)">
       <use xlink:href="#DejaVuSans-48"/>
      </g>
     </g>
    </g>
    <g id="ytick_2">
     <g id="line2d_8">
      <g>
       <use style="stroke:#000000;stroke-width:0.8;" x="38.335937" xlink:href="#m4d1041df02" y="90.497311"/>
      </g>
     </g>
     <g id="text_9">
      <!-- 250 -->
      <g transform="translate(17.974687 93.156764)scale(0.07 -0.07)">
       <use xlink:href="#DejaVuSans-50"/>
       <use x="63.623047" xlink:href="#DejaVuSans-53"/>
       <use x="127.246094" xlink:href="#DejaVuSans-48"/>
      </g>
     </g>
    </g>
    <g id="ytick_3">
     <g id="line2d_9">
      <g>
       <use style="stroke:#000000;stroke-width:0.8;" x="38.335937" xlink:href="#m4d1041df02" y="67.141078"/>
      </g>
     </g>
     <g id="text_10">
      <!-- 500 -->
      <g transform="translate(17.974687 69.800531)scale(0.07 -0.07)">
       <use xlink:href="#DejaVuSans-53"/>
       <use x="63.623047" xlink:href="#DejaVuSans-48"/>
       <use x="127.246094" xlink:href="#DejaVuSans-48"/>
      </g>
     </g>
    </g>
    <g id="ytick_4">
     <g id="line2d_10">
      <g>
       <use style="stroke:#000000;stroke-width:0.8;" x="38.335937" xlink:href="#m4d1041df02" y="43.784845"/>
      </g>
     </g>
     <g id="text_11">
      <!-- 750 -->
      <g transform="translate(17.974687 46.444298)scale(0.07 -0.07)">
       <use xlink:href="#DejaVuSans-55"/>
       <use x="63.623047" xlink:href="#DejaVuSans-53"/>
       <use x="127.246094" xlink:href="#DejaVuSans-48"/>
      </g>
     </g>
    </g>
    <g id="text_12">
     <!-- Time [s] -->
     <defs>
      <path d="M -0.296875 72.90625 
L 61.375 72.90625 
L 61.375 64.59375 
L 35.5 64.59375 
L 35.5 0 
L 25.59375 0 
L 25.59375 64.59375 
L -0.296875 64.59375 
z
" id="DejaVuSans-84"/>
      <path d="M 9.421875 54.6875 
L 18.40625 54.6875 
L 18.40625 0 
L 9.421875 0 
z
M 9.421875 75.984375 
L 18.40625 75.984375 
L 18.40625 64.59375 
L 9.421875 64.59375 
z
" id="DejaVuSans-105"/>
      <path d="M 52 44.1875 
Q 55.375 50.25 60.0625 53.125 
Q 64.75 56 71.09375 56 
Q 79.640625 56 84.28125 50.015625 
Q 88.921875 44.046875 88.921875 33.015625 
L 88.921875 0 
L 79.890625 0 
L 79.890625 32.71875 
Q 79.890625 40.578125 77.09375 44.375 
Q 74.3125 48.1875 68.609375 48.1875 
Q 61.625 48.1875 57.5625 43.546875 
Q 53.515625 38.921875 53.515625 30.90625 
L 53.515625 0 
L 44.484375 0 
L 44.484375 32.71875 
Q 44.484375 40.625 41.703125 44.40625 
Q 38.921875 48.1875 33.109375 48.1875 
Q 26.21875 48.1875 22.15625 43.53125 
Q 18.109375 38.875 18.109375 30.90625 
L 18.109375 0 
L 9.078125 0 
L 9.078125 54.6875 
L 18.109375 54.6875 
L 18.109375 46.1875 
Q 21.1875 51.21875 25.484375 53.609375 
Q 29.78125 56 35.6875 56 
Q 41.65625 56 45.828125 52.96875 
Q 50 49.953125 52 44.1875 
z
" id="DejaVuSans-109"/>
      <path d="M 56.203125 29.59375 
L 56.203125 25.203125 
L 14.890625 25.203125 
Q 15.484375 15.921875 20.484375 11.0625 
Q 25.484375 6.203125 34.421875 6.203125 
Q 39.59375 6.203125 44.453125 7.46875 
Q 49.3125 8.734375 54.109375 11.28125 
L 54.109375 2.78125 
Q 49.265625 0.734375 44.1875 -0.34375 
Q 39.109375 -1.421875 33.890625 -1.421875 
Q 20.796875 -1.421875 13.15625 6.1875 
Q 5.515625 13.8125 5.515625 26.8125 
Q 5.515625 40.234375 12.765625 48.109375 
Q 20.015625 56 32.328125 56 
Q 43.359375 56 49.78125 48.890625 
Q 56.203125 41.796875 56.203125 29.59375 
z
M 47.21875 32.234375 
Q 47.125 39.59375 43.09375 43.984375 
Q 39.0625 48.390625 32.421875 48.390625 
Q 24.90625 48.390625 20.390625 44.140625 
Q 15.875 39.890625 15.1875 32.171875 
z
" id="DejaVuSans-101"/>
      <path id="DejaVuSans-32"/>
      <path d="M 8.59375 75.984375 
L 29.296875 75.984375 
L 29.296875 69 
L 17.578125 69 
L 17.578125 -6.203125 
L 29.296875 -6.203125 
L 29.296875 -13.1875 
L 8.59375 -13.1875 
z
" id="DejaVuSans-91"/>
      <path d="M 44.28125 53.078125 
L 44.28125 44.578125 
Q 40.484375 46.53125 36.375 47.5 
Q 32.28125 48.484375 27.875 48.484375 
Q 21.1875 48.484375 17.84375 46.4375 
Q 14.5 44.390625 14.5 40.28125 
Q 14.5 37.15625 16.890625 35.375 
Q 19.28125 33.59375 26.515625 31.984375 
L 29.59375 31.296875 
Q 39.15625 29.25 43.1875 25.515625 
Q 47.21875 21.78125 47.21875 15.09375 
Q 47.21875 7.46875 41.1875 3.015625 
Q 35.15625 -1.421875 24.609375 -1.421875 
Q 20.21875 -1.421875 15.453125 -0.5625 
Q 10.6875 0.296875 5.421875 2 
L 5.421875 11.28125 
Q 10.40625 8.6875 15.234375 7.390625 
Q 20.0625 6.109375 24.8125 6.109375 
Q 31.15625 6.109375 34.5625 8.28125 
Q 37.984375 10.453125 37.984375 14.40625 
Q 37.984375 18.0625 35.515625 20.015625 
Q 33.0625 21.96875 24.703125 23.78125 
L 21.578125 24.515625 
Q 13.234375 26.265625 9.515625 29.90625 
Q 5.8125 33.546875 5.8125 39.890625 
Q 5.8125 47.609375 11.28125 51.796875 
Q 16.75 56 26.8125 56 
Q 31.78125 56 36.171875 55.265625 
Q 40.578125 54.546875 44.28125 53.078125 
z
" id="DejaVuSans-115"/>
      <path d="M 30.421875 75.984375 
L 30.421875 -13.1875 
L 9.71875 -13.1875 
L 9.71875 -6.203125 
L 21.390625 -6.203125 
L 21.390625 69 
L 9.71875 69 
L 9.71875 75.984375 
z
" id="DejaVuSans-93"/>
     </defs>
     <g transform="translate(12.518906 90.738756)rotate(-90)scale(0.07 -0.07)">
      <use xlink:href="#DejaVuSans-84"/>
      <use x="61.037109" xlink:href="#DejaVuSans-105"/>
      <use x="88.820312" xlink:href="#DejaVuSans-109"/>
      <use x="186.232422" xlink:href="#DejaVuSans-101"/>
      <use x="247.755859" xlink:href="#DejaVuSans-32"/>
      <use x="279.542969" xlink:href="#DejaVuSans-91"/>
      <use x="318.556641" xlink:href="#DejaVuSans-115"/>
      <use x="370.65625" xlink:href="#DejaVuSans-93"/>
     </g>
    </g>
   </g>
   <g id="patch_33">
    <path d="M 38.335937 113.853543 
L 38.335937 38.948031 
" style="fill:none;stroke:#000000;stroke-linecap:square;stroke-linejoin:miter;stroke-width:0.8;"/>
   </g>
   <g id="patch_34">
    <path d="M 114.227133 113.853543 
L 114.227133 38.948031 
" style="fill:none;stroke:#000000;stroke-linecap:square;stroke-linejoin:miter;stroke-width:0.8;"/>
   </g>
   <g id="patch_35">
    <path d="M 38.335937 113.853543 
L 114.227133 113.853543 
" style="fill:none;stroke:#000000;stroke-linecap:square;stroke-linejoin:miter;stroke-width:0.8;"/>
   </g>
   <g id="patch_36">
    <path d="M 38.335937 38.948031 
L 114.227133 38.948031 
" style="fill:none;stroke:#000000;stroke-linecap:square;stroke-linejoin:miter;stroke-width:0.8;"/>
   </g>
   <g id="text_13">
    <!-- Conn. Creation (min) -->
    <defs>
     <path d="M 64.40625 67.28125 
L 64.40625 56.890625 
Q 59.421875 61.53125 53.78125 63.8125 
Q 48.140625 66.109375 41.796875 66.109375 
Q 29.296875 66.109375 22.65625 58.46875 
Q 16.015625 50.828125 16.015625 36.375 
Q 16.015625 21.96875 22.65625 14.328125 
Q 29.296875 6.6875 41.796875 6.6875 
Q 48.140625 6.6875 53.78125 8.984375 
Q 59.421875 11.28125 64.40625 15.921875 
L 64.40625 5.609375 
Q 59.234375 2.09375 53.4375 0.328125 
Q 47.65625 -1.421875 41.21875 -1.421875 
Q 24.65625 -1.421875 15.125 8.703125 
Q 5.609375 18.84375 5.609375 36.375 
Q 5.609375 53.953125 15.125 64.078125 
Q 24.65625 74.21875 41.21875 74.21875 
Q 47.75 74.21875 53.53125 72.484375 
Q 59.328125 70.75 64.40625 67.28125 
z
" id="DejaVuSans-67"/>
     <path d="M 30.609375 48.390625 
Q 23.390625 48.390625 19.1875 42.75 
Q 14.984375 37.109375 14.984375 27.296875 
Q 14.984375 17.484375 19.15625 11.84375 
Q 23.34375 6.203125 30.609375 6.203125 
Q 37.796875 6.203125 41.984375 11.859375 
Q 46.1875 17.53125 46.1875 27.296875 
Q 46.1875 37.015625 41.984375 42.703125 
Q 37.796875 48.390625 30.609375 48.390625 
z
M 30.609375 56 
Q 42.328125 56 49.015625 48.375 
Q 55.71875 40.765625 55.71875 27.296875 
Q 55.71875 13.875 49.015625 6.21875 
Q 42.328125 -1.421875 30.609375 -1.421875 
Q 18.84375 -1.421875 12.171875 6.21875 
Q 5.515625 13.875 5.515625 27.296875 
Q 5.515625 40.765625 12.171875 48.375 
Q 18.84375 56 30.609375 56 
z
" id="DejaVuSans-111"/>
     <path d="M 54.890625 33.015625 
L 54.890625 0 
L 45.90625 0 
L 45.90625 32.71875 
Q 45.90625 40.484375 42.875 44.328125 
Q 39.84375 48.1875 33.796875 48.1875 
Q 26.515625 48.1875 22.3125 43.546875 
Q 18.109375 38.921875 18.109375 30.90625 
L 18.109375 0 
L 9.078125 0 
L 9.078125 54.6875 
L 18.109375 54.6875 
L 18.109375 46.1875 
Q 21.34375 51.125 25.703125 53.5625 
Q 30.078125 56 35.796875 56 
Q 45.21875 56 50.046875 50.171875 
Q 54.890625 44.34375 54.890625 33.015625 
z
" id="DejaVuSans-110"/>
     <path d="M 10.6875 12.40625 
L 21 12.40625 
L 21 0 
L 10.6875 0 
z
" id="DejaVuSans-46"/>
     <path d="M 41.109375 46.296875 
Q 39.59375 47.171875 37.8125 47.578125 
Q 36.03125 48 33.890625 48 
Q 26.265625 48 22.1875 43.046875 
Q 18.109375 38.09375 18.109375 28.8125 
L 18.109375 0 
L 9.078125 0 
L 9.078125 54.6875 
L 18.109375 54.6875 
L 18.109375 46.1875 
Q 20.953125 51.171875 25.484375 53.578125 
Q 30.03125 56 36.53125 56 
Q 37.453125 56 38.578125 55.875 
Q 39.703125 55.765625 41.0625 55.515625 
z
" id="DejaVuSans-114"/>
     <path d="M 34.28125 27.484375 
Q 23.390625 27.484375 19.1875 25 
Q 14.984375 22.515625 14.984375 16.5 
Q 14.984375 11.71875 18.140625 8.90625 
Q 21.296875 6.109375 26.703125 6.109375 
Q 34.1875 6.109375 38.703125 11.40625 
Q 43.21875 16.703125 43.21875 25.484375 
L 43.21875 27.484375 
z
M 52.203125 31.203125 
L 52.203125 0 
L 43.21875 0 
L 43.21875 8.296875 
Q 40.140625 3.328125 35.546875 0.953125 
Q 30.953125 -1.421875 24.3125 -1.421875 
Q 15.921875 -1.421875 10.953125 3.296875 
Q 6 8.015625 6 15.921875 
Q 6 25.140625 12.171875 29.828125 
Q 18.359375 34.515625 30.609375 34.515625 
L 43.21875 34.515625 
L 43.21875 35.40625 
Q 43.21875 41.609375 39.140625 45 
Q 35.0625 48.390625 27.6875 48.390625 
Q 23 48.390625 18.546875 47.265625 
Q 14.109375 46.140625 10.015625 43.890625 
L 10.015625 52.203125 
Q 14.9375 54.109375 19.578125 55.046875 
Q 24.21875 56 28.609375 56 
Q 40.484375 56 46.34375 49.84375 
Q 52.203125 43.703125 52.203125 31.203125 
z
" id="DejaVuSans-97"/>
     <path d="M 18.3125 70.21875 
L 18.3125 54.6875 
L 36.8125 54.6875 
L 36.8125 47.703125 
L 18.3125 47.703125 
L 18.3125 18.015625 
Q 18.3125 11.328125 20.140625 9.421875 
Q 21.96875 7.515625 27.59375 7.515625 
L 36.8125 7.515625 
L 36.8125 0 
L 27.59375 0 
Q 17.1875 0 13.234375 3.875 
Q 9.28125 7.765625 9.28125 18.015625 
L 9.28125 47.703125 
L 2.6875 47.703125 
L 2.6875 54.6875 
L 9.28125 54.6875 
L 9.28125 70.21875 
z
" id="DejaVuSans-116"/>
     <path d="M 31 75.875 
Q 24.46875 64.65625 21.28125 53.65625 
Q 18.109375 42.671875 18.109375 31.390625 
Q 18.109375 20.125 21.3125 9.0625 
Q 24.515625 -2 31 -13.1875 
L 23.1875 -13.1875 
Q 15.875 -1.703125 12.234375 9.375 
Q 8.59375 20.453125 8.59375 31.390625 
Q 8.59375 42.28125 12.203125 53.3125 
Q 15.828125 64.359375 23.1875 75.875 
z
" id="DejaVuSans-40"/>
     <path d="M 8.015625 75.875 
L 15.828125 75.875 
Q 23.140625 64.359375 26.78125 53.3125 
Q 30.421875 42.28125 30.421875 31.390625 
Q 30.421875 20.453125 26.78125 9.375 
Q 23.140625 -1.703125 15.828125 -13.1875 
L 8.015625 -13.1875 
Q 14.5 -2 17.703125 9.0625 
Q 20.90625 20.125 20.90625 31.390625 
Q 20.90625 42.671875 17.703125 53.65625 
Q 14.5 64.65625 8.015625 75.875 
z
" id="DejaVuSans-41"/>
    </defs>
    <g transform="translate(39.707629 32.948031)scale(0.07 -0.07)">
     <use xlink:href="#DejaVuSans-67"/>
     <use x="69.824219" xlink:href="#DejaVuSans-111"/>
     <use x="131.005859" xlink:href="#DejaVuSans-110"/>
     <use x="194.384766" xlink:href="#DejaVuSans-110"/>
     <use x="257.763672" xlink:href="#DejaVuSans-46"/>
     <use x="289.550781" xlink:href="#DejaVuSans-32"/>
     <use x="321.337891" xlink:href="#DejaVuSans-67"/>
     <use x="391.162109" xlink:href="#DejaVuSans-114"/>
     <use x="432.244141" xlink:href="#DejaVuSans-101"/>
     <use x="493.767578" xlink:href="#DejaVuSans-97"/>
     <use x="555.046875" xlink:href="#DejaVuSans-116"/>
     <use x="594.255859" xlink:href="#DejaVuSans-105"/>
     <use x="622.039062" xlink:href="#DejaVuSans-111"/>
     <use x="683.220703" xlink:href="#DejaVuSans-110"/>
     <use x="746.599609" xlink:href="#DejaVuSans-32"/>
     <use x="778.386719" xlink:href="#DejaVuSans-40"/>
     <use x="817.400391" xlink:href="#DejaVuSans-109"/>
     <use x="914.8125" xlink:href="#DejaVuSans-105"/>
     <use x="942.595703" xlink:href="#DejaVuSans-110"/>
     <use x="1005.974609" xlink:href="#DejaVuSans-41"/>
    </g>
   </g>
   <g id="legend_1">
    <g id="patch_37">
     <path d="M 41.135937 71.504281 
L 110.350938 71.504281 
Q 111.150937 71.504281 111.150937 70.704281 
L 111.150937 41.748031 
Q 111.150937 40.948031 110.350938 40.948031 
L 41.135937 40.948031 
Q 40.335937 40.948031 40.335937 41.748031 
L 40.335937 70.704281 
Q 40.335937 71.504281 41.135937 71.504281 
z
" style="fill:#ffffff;opacity:0.8;stroke:#cccccc;stroke-linejoin:miter;"/>
    </g>
    <g id="patch_38">
     <path d="M 41.935937 45.587406 
L 49.935937 45.587406 
L 49.935937 42.787406 
L 41.935937 42.787406 
z
" style="fill:#1f77b4;"/>
    </g>
    <g id="text_14">
     <!-- NEST 2.20 -->
     <defs>
      <path d="M 9.8125 72.90625 
L 55.90625 72.90625 
L 55.90625 64.59375 
L 19.671875 64.59375 
L 19.671875 43.015625 
L 54.390625 43.015625 
L 54.390625 34.71875 
L 19.671875 34.71875 
L 19.671875 8.296875 
L 56.78125 8.296875 
L 56.78125 0 
L 9.8125 0 
z
" id="DejaVuSans-69"/>
      <path d="M 53.515625 70.515625 
L 53.515625 60.890625 
Q 47.90625 63.578125 42.921875 64.890625 
Q 37.9375 66.21875 33.296875 66.21875 
Q 25.25 66.21875 20.875 63.09375 
Q 16.5 59.96875 16.5 54.203125 
Q 16.5 49.359375 19.40625 46.890625 
Q 22.3125 44.4375 30.421875 42.921875 
L 36.375 41.703125 
Q 47.40625 39.59375 52.65625 34.296875 
Q 57.90625 29 57.90625 20.125 
Q 57.90625 9.515625 50.796875 4.046875 
Q 43.703125 -1.421875 29.984375 -1.421875 
Q 24.8125 -1.421875 18.96875 -0.25 
Q 13.140625 0.921875 6.890625 3.21875 
L 6.890625 13.375 
Q 12.890625 10.015625 18.65625 8.296875 
Q 24.421875 6.59375 29.984375 6.59375 
Q 38.421875 6.59375 43.015625 9.90625 
Q 47.609375 13.234375 47.609375 19.390625 
Q 47.609375 24.75 44.3125 27.78125 
Q 41.015625 30.8125 33.5 32.328125 
L 27.484375 33.5 
Q 16.453125 35.6875 11.515625 40.375 
Q 6.59375 45.0625 6.59375 53.421875 
Q 6.59375 63.09375 13.40625 68.65625 
Q 20.21875 74.21875 32.171875 74.21875 
Q 37.3125 74.21875 42.625 73.28125 
Q 47.953125 72.359375 53.515625 70.515625 
z
" id="DejaVuSans-83"/>
     </defs>
     <g transform="translate(53.135937 45.587406)scale(0.04 -0.04)">
      <use xlink:href="#DejaVuSans-78"/>
      <use x="74.804688" xlink:href="#DejaVuSans-69"/>
      <use x="137.988281" xlink:href="#DejaVuSans-83"/>
      <use x="201.464844" xlink:href="#DejaVuSans-84"/>
      <use x="262.548828" xlink:href="#DejaVuSans-32"/>
      <use x="294.335938" xlink:href="#DejaVuSans-50"/>
      <use x="357.958984" xlink:href="#DejaVuSans-46"/>
      <use x="389.746094" xlink:href="#DejaVuSans-50"/>
      <use x="453.369141" xlink:href="#DejaVuSans-48"/>
     </g>
    </g>
    <g id="patch_39">
     <path d="M 41.935937 51.458656 
L 49.935937 51.458656 
L 49.935937 48.658656 
L 41.935937 48.658656 
z
" style="fill:#ff7f0e;"/>
    </g>
    <g id="text_15">
     <!-- NEST 3.0 (47a9175e4) - old -->
     <defs>
      <path d="M 10.984375 1.515625 
L 10.984375 10.5 
Q 14.703125 8.734375 18.5 7.8125 
Q 22.3125 6.890625 25.984375 6.890625 
Q 35.75 6.890625 40.890625 13.453125 
Q 46.046875 20.015625 46.78125 33.40625 
Q 43.953125 29.203125 39.59375 26.953125 
Q 35.25 24.703125 29.984375 24.703125 
Q 19.046875 24.703125 12.671875 31.3125 
Q 6.296875 37.9375 6.296875 49.421875 
Q 6.296875 60.640625 12.9375 67.421875 
Q 19.578125 74.21875 30.609375 74.21875 
Q 43.265625 74.21875 49.921875 64.515625 
Q 56.59375 54.828125 56.59375 36.375 
Q 56.59375 19.140625 48.40625 8.859375 
Q 40.234375 -1.421875 26.421875 -1.421875 
Q 22.703125 -1.421875 18.890625 -0.6875 
Q 15.09375 0.046875 10.984375 1.515625 
z
M 30.609375 32.421875 
Q 37.25 32.421875 41.125 36.953125 
Q 45.015625 41.5 45.015625 49.421875 
Q 45.015625 57.28125 41.125 61.84375 
Q 37.25 66.40625 30.609375 66.40625 
Q 23.96875 66.40625 20.09375 61.84375 
Q 16.21875 57.28125 16.21875 49.421875 
Q 16.21875 41.5 20.09375 36.953125 
Q 23.96875 32.421875 30.609375 32.421875 
z
" id="DejaVuSans-57"/>
      <path d="M 4.890625 31.390625 
L 31.203125 31.390625 
L 31.203125 23.390625 
L 4.890625 23.390625 
z
" id="DejaVuSans-45"/>
      <path d="M 9.421875 75.984375 
L 18.40625 75.984375 
L 18.40625 0 
L 9.421875 0 
z
" id="DejaVuSans-108"/>
      <path d="M 45.40625 46.390625 
L 45.40625 75.984375 
L 54.390625 75.984375 
L 54.390625 0 
L 45.40625 0 
L 45.40625 8.203125 
Q 42.578125 3.328125 38.25 0.953125 
Q 33.9375 -1.421875 27.875 -1.421875 
Q 17.96875 -1.421875 11.734375 6.484375 
Q 5.515625 14.40625 5.515625 27.296875 
Q 5.515625 40.1875 11.734375 48.09375 
Q 17.96875 56 27.875 56 
Q 33.9375 56 38.25 53.625 
Q 42.578125 51.265625 45.40625 46.390625 
z
M 14.796875 27.296875 
Q 14.796875 17.390625 18.875 11.75 
Q 22.953125 6.109375 30.078125 6.109375 
Q 37.203125 6.109375 41.296875 11.75 
Q 45.40625 17.390625 45.40625 27.296875 
Q 45.40625 37.203125 41.296875 42.84375 
Q 37.203125 48.484375 30.078125 48.484375 
Q 22.953125 48.484375 18.875 42.84375 
Q 14.796875 37.203125 14.796875 27.296875 
z
" id="DejaVuSans-100"/>
     </defs>
     <g transform="translate(53.135937 51.458656)scale(0.04 -0.04)">
      <use xlink:href="#DejaVuSans-78"/>
      <use x="74.804688" xlink:href="#DejaVuSans-69"/>
      <use x="137.988281" xlink:href="#DejaVuSans-83"/>
      <use x="201.464844" xlink:href="#DejaVuSans-84"/>
      <use x="262.548828" xlink:href="#DejaVuSans-32"/>
      <use x="294.335938" xlink:href="#DejaVuSans-51"/>
      <use x="357.958984" xlink:href="#DejaVuSans-46"/>
      <use x="389.746094" xlink:href="#DejaVuSans-48"/>
      <use x="453.369141" xlink:href="#DejaVuSans-32"/>
      <use x="485.15625" xlink:href="#DejaVuSans-40"/>
      <use x="524.169922" xlink:href="#DejaVuSans-52"/>
      <use x="587.792969" xlink:href="#DejaVuSans-55"/>
      <use x="651.416016" xlink:href="#DejaVuSans-97"/>
      <use x="712.695312" xlink:href="#DejaVuSans-57"/>
      <use x="776.318359" xlink:href="#DejaVuSans-49"/>
      <use x="839.941406" xlink:href="#DejaVuSans-55"/>
      <use x="903.564453" xlink:href="#DejaVuSans-53"/>
      <use x="967.1875" xlink:href="#DejaVuSans-101"/>
      <use x="1028.710938" xlink:href="#DejaVuSans-52"/>
      <use x="1092.333984" xlink:href="#DejaVuSans-41"/>
      <use x="1131.347656" xlink:href="#DejaVuSans-32"/>
      <use x="1163.134766" xlink:href="#DejaVuSans-45"/>
      <use x="1199.21875" xlink:href="#DejaVuSans-32"/>
      <use x="1231.005859" xlink:href="#DejaVuSans-111"/>
      <use x="1292.1875" xlink:href="#DejaVuSans-108"/>
      <use x="1319.970703" xlink:href="#DejaVuSans-100"/>
     </g>
    </g>
    <g id="patch_40">
     <path d="M 41.935937 57.329906 
L 49.935937 57.329906 
L 49.935937 54.529906 
L 41.935937 54.529906 
z
" style="fill:#2ca02c;"/>
    </g>
    <g id="text_16">
     <!-- NEST 3.0 (630a97265) -->
     <g transform="translate(53.135937 57.329906)scale(0.04 -0.04)">
      <use xlink:href="#DejaVuSans-78"/>
      <use x="74.804688" xlink:href="#DejaVuSans-69"/>
      <use x="137.988281" xlink:href="#DejaVuSans-83"/>
      <use x="201.464844" xlink:href="#DejaVuSans-84"/>
      <use x="262.548828" xlink:href="#DejaVuSans-32"/>
      <use x="294.335938" xlink:href="#DejaVuSans-51"/>
      <use x="357.958984" xlink:href="#DejaVuSans-46"/>
      <use x="389.746094" xlink:href="#DejaVuSans-48"/>
      <use x="453.369141" xlink:href="#DejaVuSans-32"/>
      <use x="485.15625" xlink:href="#DejaVuSans-40"/>
      <use x="524.169922" xlink:href="#DejaVuSans-54"/>
      <use x="587.792969" xlink:href="#DejaVuSans-51"/>
      <use x="651.416016" xlink:href="#DejaVuSans-48"/>
      <use x="715.039062" xlink:href="#DejaVuSans-97"/>
      <use x="776.318359" xlink:href="#DejaVuSans-57"/>
      <use x="839.941406" xlink:href="#DejaVuSans-55"/>
      <use x="903.564453" xlink:href="#DejaVuSans-50"/>
      <use x="967.1875" xlink:href="#DejaVuSans-54"/>
      <use x="1030.810547" xlink:href="#DejaVuSans-53"/>
      <use x="1094.433594" xlink:href="#DejaVuSans-41"/>
     </g>
    </g>
    <g id="patch_41">
     <path d="M 41.935937 63.201156 
L 49.935937 63.201156 
L 49.935937 60.401156 
L 41.935937 60.401156 
z
" style="fill:#d62728;"/>
    </g>
    <g id="text_17">
     <!-- NEST 3.0 (d4d1b3f59 inline) -->
     <defs>
      <path d="M 48.6875 27.296875 
Q 48.6875 37.203125 44.609375 42.84375 
Q 40.53125 48.484375 33.40625 48.484375 
Q 26.265625 48.484375 22.1875 42.84375 
Q 18.109375 37.203125 18.109375 27.296875 
Q 18.109375 17.390625 22.1875 11.75 
Q 26.265625 6.109375 33.40625 6.109375 
Q 40.53125 6.109375 44.609375 11.75 
Q 48.6875 17.390625 48.6875 27.296875 
z
M 18.109375 46.390625 
Q 20.953125 51.265625 25.265625 53.625 
Q 29.59375 56 35.59375 56 
Q 45.5625 56 51.78125 48.09375 
Q 58.015625 40.1875 58.015625 27.296875 
Q 58.015625 14.40625 51.78125 6.484375 
Q 45.5625 -1.421875 35.59375 -1.421875 
Q 29.59375 -1.421875 25.265625 0.953125 
Q 20.953125 3.328125 18.109375 8.203125 
L 18.109375 0 
L 9.078125 0 
L 9.078125 75.984375 
L 18.109375 75.984375 
z
" id="DejaVuSans-98"/>
      <path d="M 37.109375 75.984375 
L 37.109375 68.5 
L 28.515625 68.5 
Q 23.6875 68.5 21.796875 66.546875 
Q 19.921875 64.59375 19.921875 59.515625 
L 19.921875 54.6875 
L 34.71875 54.6875 
L 34.71875 47.703125 
L 19.921875 47.703125 
L 19.921875 0 
L 10.890625 0 
L 10.890625 47.703125 
L 2.296875 47.703125 
L 2.296875 54.6875 
L 10.890625 54.6875 
L 10.890625 58.5 
Q 10.890625 67.625 15.140625 71.796875 
Q 19.390625 75.984375 28.609375 75.984375 
z
" id="DejaVuSans-102"/>
     </defs>
     <g transform="translate(53.135937 63.201156)scale(0.04 -0.04)">
      <use xlink:href="#DejaVuSans-78"/>
      <use x="74.804688" xlink:href="#DejaVuSans-69"/>
      <use x="137.988281" xlink:href="#DejaVuSans-83"/>
      <use x="201.464844" xlink:href="#DejaVuSans-84"/>
      <use x="262.548828" xlink:href="#DejaVuSans-32"/>
      <use x="294.335938" xlink:href="#DejaVuSans-51"/>
      <use x="357.958984" xlink:href="#DejaVuSans-46"/>
      <use x="389.746094" xlink:href="#DejaVuSans-48"/>
      <use x="453.369141" xlink:href="#DejaVuSans-32"/>
      <use x="485.15625" xlink:href="#DejaVuSans-40"/>
      <use x="524.169922" xlink:href="#DejaVuSans-100"/>
      <use x="587.646484" xlink:href="#DejaVuSans-52"/>
      <use x="651.269531" xlink:href="#DejaVuSans-100"/>
      <use x="714.746094" xlink:href="#DejaVuSans-49"/>
      <use x="778.369141" xlink:href="#DejaVuSans-98"/>
      <use x="841.845703" xlink:href="#DejaVuSans-51"/>
      <use x="905.46875" xlink:href="#DejaVuSans-102"/>
      <use x="940.673828" xlink:href="#DejaVuSans-53"/>
      <use x="1004.296875" xlink:href="#DejaVuSans-57"/>
      <use x="1067.919922" xlink:href="#DejaVuSans-32"/>
      <use x="1099.707031" xlink:href="#DejaVuSans-105"/>
      <use x="1127.490234" xlink:href="#DejaVuSans-110"/>
      <use x="1190.869141" xlink:href="#DejaVuSans-108"/>
      <use x="1218.652344" xlink:href="#DejaVuSans-105"/>
      <use x="1246.435547" xlink:href="#DejaVuSans-110"/>
      <use x="1309.814453" xlink:href="#DejaVuSans-101"/>
      <use x="1371.337891" xlink:href="#DejaVuSans-41"/>
     </g>
    </g>
    <g id="patch_42">
     <path d="M 41.935937 69.072406 
L 49.935937 69.072406 
L 49.935937 66.272406 
L 41.935937 66.272406 
z
" style="fill:#9467bd;"/>
    </g>
    <g id="text_18">
     <!-- NEST 3.0 (d4d1b3f59) -->
     <g transform="translate(53.135937 69.072406)scale(0.04 -0.04)">
      <use xlink:href="#DejaVuSans-78"/>
      <use x="74.804688" xlink:href="#DejaVuSans-69"/>
      <use x="137.988281" xlink:href="#DejaVuSans-83"/>
      <use x="201.464844" xlink:href="#DejaVuSans-84"/>
      <use x="262.548828" xlink:href="#DejaVuSans-32"/>
      <use x="294.335938" xlink:href="#DejaVuSans-51"/>
      <use x="357.958984" xlink:href="#DejaVuSans-46"/>
      <use x="389.746094" xlink:href="#DejaVuSans-48"/>
      <use x="453.369141" xlink:href="#DejaVuSans-32"/>
      <use x="485.15625" xlink:href="#DejaVuSans-40"/>
      <use x="524.169922" xlink:href="#DejaVuSans-100"/>
      <use x="587.646484" xlink:href="#DejaVuSans-52"/>
      <use x="651.269531" xlink:href="#DejaVuSans-100"/>
      <use x="714.746094" xlink:href="#DejaVuSans-49"/>
      <use x="778.369141" xlink:href="#DejaVuSans-98"/>
      <use x="841.845703" xlink:href="#DejaVuSans-51"/>
      <use x="905.46875" xlink:href="#DejaVuSans-102"/>
      <use x="940.673828" xlink:href="#DejaVuSans-53"/>
      <use x="1004.296875" xlink:href="#DejaVuSans-57"/>
      <use x="1067.919922" xlink:href="#DejaVuSans-41"/>
     </g>
    </g>
   </g>
  </g>
  <g id="axes_2">
   <g id="patch_43">
    <path d="M 152.172731 113.853543 
L 228.063926 113.853543 
L 228.063926 38.948031 
L 152.172731 38.948031 
z
" style="fill:#ffffff;"/>
   </g>
   <g id="patch_44">
    <path clip-path="url(#pe9c606bcee)" d="M 155.334864 113.853543 
L 156.599717 113.853543 
L 156.599717 92.161999 
L 155.334864 92.161999 
z
" style="fill:#1f77b4;"/>
   </g>
   <g id="patch_45">
    <path clip-path="url(#pe9c606bcee)" d="M 167.983396 113.853543 
L 169.24825 113.853543 
L 169.24825 85.567916 
L 167.983396 85.567916 
z
" style="fill:#1f77b4;"/>
   </g>
   <g id="patch_46">
    <path clip-path="url(#pe9c606bcee)" d="M 180.631929 113.853543 
L 181.896782 113.853543 
L 181.896782 83.448455 
L 180.631929 83.448455 
z
" style="fill:#1f77b4;"/>
   </g>
   <g id="patch_47">
    <path clip-path="url(#pe9c606bcee)" d="M 193.280461 113.853543 
L 194.545315 113.853543 
L 194.545315 78.298976 
L 193.280461 78.298976 
z
" style="fill:#1f77b4;"/>
   </g>
   <g id="patch_48">
    <path clip-path="url(#pe9c606bcee)" d="M 205.928994 113.853543 
L 207.193847 113.853543 
L 207.193847 66.505954 
L 205.928994 66.505954 
z
" style="fill:#1f77b4;"/>
   </g>
   <g id="patch_49">
    <path clip-path="url(#pe9c606bcee)" d="M 218.577527 113.853543 
L 219.84238 113.853543 
L 219.84238 43.959701 
L 218.577527 43.959701 
z
" style="fill:#1f77b4;"/>
   </g>
   <g id="patch_50">
    <path clip-path="url(#pe9c606bcee)" d="M 156.599717 113.853543 
L 157.86457 113.853543 
L 157.86457 92.364097 
L 156.599717 92.364097 
z
" style="fill:#ff7f0e;"/>
   </g>
   <g id="patch_51">
    <path clip-path="url(#pe9c606bcee)" d="M 169.24825 113.853543 
L 170.513103 113.853543 
L 170.513103 85.86982 
L 169.24825 85.86982 
z
" style="fill:#ff7f0e;"/>
   </g>
   <g id="patch_52">
    <path clip-path="url(#pe9c606bcee)" d="M 181.896782 113.853543 
L 183.161635 113.853543 
L 183.161635 83.051937 
L 181.896782 83.051937 
z
" style="fill:#ff7f0e;"/>
   </g>
   <g id="patch_53">
    <path clip-path="url(#pe9c606bcee)" d="M 194.545315 113.853543 
L 195.810168 113.853543 
L 195.810168 78.796556 
L 194.545315 78.796556 
z
" style="fill:#ff7f0e;"/>
   </g>
   <g id="patch_54">
    <path clip-path="url(#pe9c606bcee)" d="M 207.193847 113.853543 
L 208.458701 113.853543 
L 208.458701 66.277027 
L 207.193847 66.277027 
z
" style="fill:#ff7f0e;"/>
   </g>
   <g id="patch_55">
    <path clip-path="url(#pe9c606bcee)" d="M 219.84238 113.853543 
L 221.107233 113.853543 
L 221.107233 45.630349 
L 219.84238 45.630349 
z
" style="fill:#ff7f0e;"/>
   </g>
   <g id="patch_56">
    <path clip-path="url(#pe9c606bcee)" d="M 157.86457 113.853543 
L 159.129424 113.853543 
L 159.129424 77.288101 
L 157.86457 77.288101 
z
" style="fill:#2ca02c;"/>
   </g>
   <g id="patch_57">
    <path clip-path="url(#pe9c606bcee)" d="M 170.513103 113.853543 
L 171.777956 113.853543 
L 171.777956 67.53156 
L 170.513103 67.53156 
z
" style="fill:#2ca02c;"/>
   </g>
   <g id="patch_58">
    <path clip-path="url(#pe9c606bcee)" d="M 183.161635 113.853543 
L 184.426489 113.853543 
L 184.426489 64.437076 
L 183.161635 64.437076 
z
" style="fill:#2ca02c;"/>
   </g>
   <g id="patch_59">
    <path clip-path="url(#pe9c606bcee)" d="M 195.810168 113.853543 
L 197.075021 113.853543 
L 197.075021 59.765835 
L 195.810168 59.765835 
z
" style="fill:#2ca02c;"/>
   </g>
   <g id="patch_60">
    <path clip-path="url(#pe9c606bcee)" d="M 208.458701 113.853543 
L 209.723554 113.853543 
L 209.723554 51.926785 
L 208.458701 51.926785 
z
" style="fill:#2ca02c;"/>
   </g>
   <g id="patch_61">
    <path clip-path="url(#pe9c606bcee)" d="M 221.107233 113.853543 
L 222.372086 113.853543 
L 222.372086 42.514961 
L 221.107233 42.514961 
z
" style="fill:#2ca02c;"/>
   </g>
   <g id="patch_62">
    <path clip-path="url(#pe9c606bcee)" d="M 159.129424 113.853543 
L 160.394277 113.853543 
L 160.394277 83.178679 
L 159.129424 83.178679 
z
" style="fill:#d62728;"/>
   </g>
   <g id="patch_63">
    <path clip-path="url(#pe9c606bcee)" d="M 171.777956 113.853543 
L 173.042809 113.853543 
L 173.042809 74.18467 
L 171.777956 74.18467 
z
" style="fill:#d62728;"/>
   </g>
   <g id="patch_64">
    <path clip-path="url(#pe9c606bcee)" d="M 184.426489 113.853543 
L 185.691342 113.853543 
L 185.691342 74.40238 
L 184.426489 74.40238 
z
" style="fill:#d62728;"/>
   </g>
   <g id="patch_65">
    <path clip-path="url(#pe9c606bcee)" d="M 197.075021 113.853543 
L 198.339875 113.853543 
L 198.339875 72.668565 
L 197.075021 72.668565 
z
" style="fill:#d62728;"/>
   </g>
   <g id="patch_66">
    <path clip-path="url(#pe9c606bcee)" d="M 209.723554 113.853543 
L 210.988407 113.853543 
L 210.988407 71.001274 
L 209.723554 71.001274 
z
" style="fill:#d62728;"/>
   </g>
   <g id="patch_67">
    <path clip-path="url(#pe9c606bcee)" d="M 222.372086 113.853543 
L 223.63694 113.853543 
L 223.63694 59.757997 
L 222.372086 59.757997 
z
" style="fill:#d62728;"/>
   </g>
   <g id="patch_68">
    <path clip-path="url(#pe9c606bcee)" d="M 160.394277 113.853543 
L 161.65913 113.853543 
L 161.65913 79.72762 
L 160.394277 79.72762 
z
" style="fill:#9467bd;"/>
   </g>
   <g id="patch_69">
    <path clip-path="url(#pe9c606bcee)" d="M 173.042809 113.853543 
L 174.307663 113.853543 
L 174.307663 69.461302 
L 173.042809 69.461302 
z
" style="fill:#9467bd;"/>
   </g>
   <g id="patch_70">
    <path clip-path="url(#pe9c606bcee)" d="M 185.691342 113.853543 
L 186.956195 113.853543 
L 186.956195 70.239013 
L 185.691342 70.239013 
z
" style="fill:#9467bd;"/>
   </g>
   <g id="patch_71">
    <path clip-path="url(#pe9c606bcee)" d="M 198.339875 113.853543 
L 199.604728 113.853543 
L 199.604728 67.785524 
L 198.339875 67.785524 
z
" style="fill:#9467bd;"/>
   </g>
   <g id="patch_72">
    <path clip-path="url(#pe9c606bcee)" d="M 210.988407 113.853543 
L 212.25326 113.853543 
L 212.25326 65.765573 
L 210.988407 65.765573 
z
" style="fill:#9467bd;"/>
   </g>
   <g id="patch_73">
    <path clip-path="url(#pe9c606bcee)" d="M 223.63694 113.853543 
L 224.901793 113.853543 
L 224.901793 55.088302 
L 223.63694 55.088302 
z
" style="fill:#9467bd;"/>
   </g>
   <g id="matplotlib.axis_3">
    <g id="xtick_7">
     <g id="line2d_11">
      <g>
       <use style="stroke:#000000;stroke-width:0.8;" x="158.496997" xlink:href="#m4cf38f3c4d" y="113.853543"/>
      </g>
     </g>
     <g id="text_19">
      <!-- 36 -->
      <g transform="translate(156.713541 130.913132)rotate(-45)scale(0.07 -0.07)">
       <use xlink:href="#DejaVuSans-51"/>
       <use x="63.623047" xlink:href="#DejaVuSans-54"/>
      </g>
     </g>
    </g>
    <g id="xtick_8">
     <g id="line2d_12">
      <g>
       <use style="stroke:#000000;stroke-width:0.8;" x="171.145529" xlink:href="#m4cf38f3c4d" y="113.853543"/>
      </g>
     </g>
     <g id="text_20">
      <!-- 72 -->
      <g transform="translate(169.362074 130.913132)rotate(-45)scale(0.07 -0.07)">
       <use xlink:href="#DejaVuSans-55"/>
       <use x="63.623047" xlink:href="#DejaVuSans-50"/>
      </g>
     </g>
    </g>
    <g id="xtick_9">
     <g id="line2d_13">
      <g>
       <use style="stroke:#000000;stroke-width:0.8;" x="183.794062" xlink:href="#m4cf38f3c4d" y="113.853543"/>
      </g>
     </g>
     <g id="text_21">
      <!-- 144 -->
      <g transform="translate(180.435968 134.062408)rotate(-45)scale(0.07 -0.07)">
       <use xlink:href="#DejaVuSans-49"/>
       <use x="63.623047" xlink:href="#DejaVuSans-52"/>
       <use x="127.246094" xlink:href="#DejaVuSans-52"/>
      </g>
     </g>
    </g>
    <g id="xtick_10">
     <g id="line2d_14">
      <g>
       <use style="stroke:#000000;stroke-width:0.8;" x="196.442595" xlink:href="#m4cf38f3c4d" y="113.853543"/>
      </g>
     </g>
     <g id="text_22">
      <!-- 288 -->
      <g transform="translate(193.0845 134.062408)rotate(-45)scale(0.07 -0.07)">
       <use xlink:href="#DejaVuSans-50"/>
       <use x="63.623047" xlink:href="#DejaVuSans-56"/>
       <use x="127.246094" xlink:href="#DejaVuSans-56"/>
      </g>
     </g>
    </g>
    <g id="xtick_11">
     <g id="line2d_15">
      <g>
       <use style="stroke:#000000;stroke-width:0.8;" x="209.091127" xlink:href="#m4cf38f3c4d" y="113.853543"/>
      </g>
     </g>
     <g id="text_23">
      <!-- 576 -->
      <g transform="translate(205.733033 134.062408)rotate(-45)scale(0.07 -0.07)">
       <use xlink:href="#DejaVuSans-53"/>
       <use x="63.623047" xlink:href="#DejaVuSans-55"/>
       <use x="127.246094" xlink:href="#DejaVuSans-54"/>
      </g>
     </g>
    </g>
    <g id="xtick_12">
     <g id="line2d_16">
      <g>
       <use style="stroke:#000000;stroke-width:0.8;" x="221.73966" xlink:href="#m4cf38f3c4d" y="113.853543"/>
      </g>
     </g>
     <g id="text_24">
      <!-- 1152 -->
      <g transform="translate(216.806927 137.211685)rotate(-45)scale(0.07 -0.07)">
       <use xlink:href="#DejaVuSans-49"/>
       <use x="63.623047" xlink:href="#DejaVuSans-49"/>
       <use x="127.246094" xlink:href="#DejaVuSans-53"/>
       <use x="190.869141" xlink:href="#DejaVuSans-50"/>
      </g>
     </g>
    </g>
    <g id="text_25">
     <!-- N_VP -->
     <g transform="translate(181.245281 147.365297)scale(0.07 -0.07)">
      <use xlink:href="#DejaVuSans-78"/>
      <use x="74.804688" xlink:href="#DejaVuSans-95"/>
      <use x="124.804688" xlink:href="#DejaVuSans-86"/>
      <use x="193.212891" xlink:href="#DejaVuSans-80"/>
     </g>
    </g>
   </g>
   <g id="matplotlib.axis_4">
    <g id="ytick_5">
     <g id="line2d_17">
      <g>
       <use style="stroke:#000000;stroke-width:0.8;" x="152.172731" xlink:href="#m4d1041df02" y="113.853543"/>
      </g>
     </g>
     <g id="text_26">
      <!-- 0 -->
      <g transform="translate(140.718981 116.512996)scale(0.07 -0.07)">
       <use xlink:href="#DejaVuSans-48"/>
      </g>
     </g>
    </g>
    <g id="ytick_6">
     <g id="line2d_18">
      <g>
       <use style="stroke:#000000;stroke-width:0.8;" x="152.172731" xlink:href="#m4d1041df02" y="76.894254"/>
      </g>
     </g>
     <g id="text_27">
      <!-- 50 -->
      <g transform="translate(136.265231 79.553707)scale(0.07 -0.07)">
       <use xlink:href="#DejaVuSans-53"/>
       <use x="63.623047" xlink:href="#DejaVuSans-48"/>
      </g>
     </g>
    </g>
    <g id="ytick_7">
     <g id="line2d_19">
      <g>
       <use style="stroke:#000000;stroke-width:0.8;" x="152.172731" xlink:href="#m4d1041df02" y="39.934964"/>
      </g>
     </g>
     <g id="text_28">
      <!-- 100 -->
      <g transform="translate(131.811481 42.594417)scale(0.07 -0.07)">
       <use xlink:href="#DejaVuSans-49"/>
       <use x="63.623047" xlink:href="#DejaVuSans-48"/>
       <use x="127.246094" xlink:href="#DejaVuSans-48"/>
      </g>
     </g>
    </g>
   </g>
   <g id="patch_74">
    <path d="M 152.172731 113.853543 
L 152.172731 38.948031 
" style="fill:none;stroke:#000000;stroke-linecap:square;stroke-linejoin:miter;stroke-width:0.8;"/>
   </g>
   <g id="patch_75">
    <path d="M 228.063926 113.853543 
L 228.063926 38.948031 
" style="fill:none;stroke:#000000;stroke-linecap:square;stroke-linejoin:miter;stroke-width:0.8;"/>
   </g>
   <g id="patch_76">
    <path d="M 152.172731 113.853543 
L 228.063926 113.853543 
" style="fill:none;stroke:#000000;stroke-linecap:square;stroke-linejoin:miter;stroke-width:0.8;"/>
   </g>
   <g id="patch_77">
    <path d="M 152.172731 38.948031 
L 228.063926 38.948031 
" style="fill:none;stroke:#000000;stroke-linecap:square;stroke-linejoin:miter;stroke-width:0.8;"/>
   </g>
   <g id="text_29">
    <!-- Conn. Exchange (min) -->
    <defs>
     <path d="M 54.890625 54.6875 
L 35.109375 28.078125 
L 55.90625 0 
L 45.3125 0 
L 29.390625 21.484375 
L 13.484375 0 
L 2.875 0 
L 24.125 28.609375 
L 4.6875 54.6875 
L 15.28125 54.6875 
L 29.78125 35.203125 
L 44.28125 54.6875 
z
" id="DejaVuSans-120"/>
     <path d="M 48.78125 52.59375 
L 48.78125 44.1875 
Q 44.96875 46.296875 41.140625 47.34375 
Q 37.3125 48.390625 33.40625 48.390625 
Q 24.65625 48.390625 19.8125 42.84375 
Q 14.984375 37.3125 14.984375 27.296875 
Q 14.984375 17.28125 19.8125 11.734375 
Q 24.65625 6.203125 33.40625 6.203125 
Q 37.3125 6.203125 41.140625 7.25 
Q 44.96875 8.296875 48.78125 10.40625 
L 48.78125 2.09375 
Q 45.015625 0.34375 40.984375 -0.53125 
Q 36.96875 -1.421875 32.421875 -1.421875 
Q 20.0625 -1.421875 12.78125 6.34375 
Q 5.515625 14.109375 5.515625 27.296875 
Q 5.515625 40.671875 12.859375 48.328125 
Q 20.21875 56 33.015625 56 
Q 37.15625 56 41.109375 55.140625 
Q 45.0625 54.296875 48.78125 52.59375 
z
" id="DejaVuSans-99"/>
     <path d="M 54.890625 33.015625 
L 54.890625 0 
L 45.90625 0 
L 45.90625 32.71875 
Q 45.90625 40.484375 42.875 44.328125 
Q 39.84375 48.1875 33.796875 48.1875 
Q 26.515625 48.1875 22.3125 43.546875 
Q 18.109375 38.921875 18.109375 30.90625 
L 18.109375 0 
L 9.078125 0 
L 9.078125 75.984375 
L 18.109375 75.984375 
L 18.109375 46.1875 
Q 21.34375 51.125 25.703125 53.5625 
Q 30.078125 56 35.796875 56 
Q 45.21875 56 50.046875 50.171875 
Q 54.890625 44.34375 54.890625 33.015625 
z
" id="DejaVuSans-104"/>
     <path d="M 45.40625 27.984375 
Q 45.40625 37.75 41.375 43.109375 
Q 37.359375 48.484375 30.078125 48.484375 
Q 22.859375 48.484375 18.828125 43.109375 
Q 14.796875 37.75 14.796875 27.984375 
Q 14.796875 18.265625 18.828125 12.890625 
Q 22.859375 7.515625 30.078125 7.515625 
Q 37.359375 7.515625 41.375 12.890625 
Q 45.40625 18.265625 45.40625 27.984375 
z
M 54.390625 6.78125 
Q 54.390625 -7.171875 48.1875 -13.984375 
Q 42 -20.796875 29.203125 -20.796875 
Q 24.46875 -20.796875 20.265625 -20.09375 
Q 16.0625 -19.390625 12.109375 -17.921875 
L 12.109375 -9.1875 
Q 16.0625 -11.328125 19.921875 -12.34375 
Q 23.78125 -13.375 27.78125 -13.375 
Q 36.625 -13.375 41.015625 -8.765625 
Q 45.40625 -4.15625 45.40625 5.171875 
L 45.40625 9.625 
Q 42.625 4.78125 38.28125 2.390625 
Q 33.9375 0 27.875 0 
Q 17.828125 0 11.671875 7.65625 
Q 5.515625 15.328125 5.515625 27.984375 
Q 5.515625 40.671875 11.671875 48.328125 
Q 17.828125 56 27.875 56 
Q 33.9375 56 38.28125 53.609375 
Q 42.625 51.21875 45.40625 46.390625 
L 45.40625 54.6875 
L 54.390625 54.6875 
z
" id="DejaVuSans-103"/>
    </defs>
    <g transform="translate(151.265047 32.948031)scale(0.07 -0.07)">
     <use xlink:href="#DejaVuSans-67"/>
     <use x="69.824219" xlink:href="#DejaVuSans-111"/>
     <use x="131.005859" xlink:href="#DejaVuSans-110"/>
     <use x="194.384766" xlink:href="#DejaVuSans-110"/>
     <use x="257.763672" xlink:href="#DejaVuSans-46"/>
     <use x="289.550781" xlink:href="#DejaVuSans-32"/>
     <use x="321.337891" xlink:href="#DejaVuSans-69"/>
     <use x="384.521484" xlink:href="#DejaVuSans-120"/>
     <use x="443.685547" xlink:href="#DejaVuSans-99"/>
     <use x="498.666016" xlink:href="#DejaVuSans-104"/>
     <use x="562.044922" xlink:href="#DejaVuSans-97"/>
     <use x="623.324219" xlink:href="#DejaVuSans-110"/>
     <use x="686.703125" xlink:href="#DejaVuSans-103"/>
     <use x="750.179688" xlink:href="#DejaVuSans-101"/>
     <use x="811.703125" xlink:href="#DejaVuSans-32"/>
     <use x="843.490234" xlink:href="#DejaVuSans-40"/>
     <use x="882.503906" xlink:href="#DejaVuSans-109"/>
     <use x="979.916016" xlink:href="#DejaVuSans-105"/>
     <use x="1007.699219" xlink:href="#DejaVuSans-110"/>
     <use x="1071.078125" xlink:href="#DejaVuSans-41"/>
    </g>
   </g>
  </g>
  <g id="axes_3">
   <g id="patch_78">
    <path d="M 266.009524 113.853543 
L 341.900719 113.853543 
L 341.900719 38.948031 
L 266.009524 38.948031 
z
" style="fill:#ffffff;"/>
   </g>
   <g id="patch_79">
    <path clip-path="url(#p4dd2620be9)" d="M 269.171657 113.853543 
L 270.43651 113.853543 
L 270.43651 107.534357 
L 269.171657 107.534357 
z
" style="fill:#1f77b4;"/>
   </g>
   <g id="patch_80">
    <path clip-path="url(#p4dd2620be9)" d="M 281.820189 113.853543 
L 283.085043 113.853543 
L 283.085043 103.920448 
L 281.820189 103.920448 
z
" style="fill:#1f77b4;"/>
   </g>
   <g id="patch_81">
    <path clip-path="url(#p4dd2620be9)" d="M 294.468722 113.853543 
L 295.733575 113.853543 
L 295.733575 99.932049 
L 294.468722 99.932049 
z
" style="fill:#1f77b4;"/>
   </g>
   <g id="patch_82">
    <path clip-path="url(#p4dd2620be9)" d="M 307.117255 113.853543 
L 308.382108 113.853543 
L 308.382108 92.41241 
L 307.117255 92.41241 
z
" style="fill:#1f77b4;"/>
   </g>
   <g id="patch_83">
    <path clip-path="url(#p4dd2620be9)" d="M 319.765787 113.853543 
L 321.03064 113.853543 
L 321.03064 75.597024 
L 319.765787 75.597024 
z
" style="fill:#1f77b4;"/>
   </g>
   <g id="patch_84">
    <path clip-path="url(#p4dd2620be9)" d="M 332.41432 113.853543 
L 333.679173 113.853543 
L 333.679173 42.514961 
L 332.41432 42.514961 
z
" style="fill:#1f77b4;"/>
   </g>
   <g id="patch_85">
    <path clip-path="url(#p4dd2620be9)" d="M 270.43651 113.853543 
L 271.701363 113.853543 
L 271.701363 108.023759 
L 270.43651 108.023759 
z
" style="fill:#ff7f0e;"/>
   </g>
   <g id="patch_86">
    <path clip-path="url(#p4dd2620be9)" d="M 283.085043 113.853543 
L 284.349896 113.853543 
L 284.349896 105.679707 
L 283.085043 105.679707 
z
" style="fill:#ff7f0e;"/>
   </g>
   <g id="patch_87">
    <path clip-path="url(#p4dd2620be9)" d="M 295.733575 113.853543 
L 296.998429 113.853543 
L 296.998429 103.930501 
L 295.733575 103.930501 
z
" style="fill:#ff7f0e;"/>
   </g>
   <g id="patch_88">
    <path clip-path="url(#p4dd2620be9)" d="M 308.382108 113.853543 
L 309.646961 113.853543 
L 309.646961 100.814211 
L 308.382108 100.814211 
z
" style="fill:#ff7f0e;"/>
   </g>
   <g id="patch_89">
    <path clip-path="url(#p4dd2620be9)" d="M 321.03064 113.853543 
L 322.295494 113.853543 
L 322.295494 93.769132 
L 321.03064 93.769132 
z
" style="fill:#ff7f0e;"/>
   </g>
   <g id="patch_90">
    <path clip-path="url(#p4dd2620be9)" d="M 333.679173 113.853543 
L 334.944026 113.853543 
L 334.944026 79.416882 
L 333.679173 79.416882 
z
" style="fill:#ff7f0e;"/>
   </g>
   <g id="patch_91">
    <path clip-path="url(#p4dd2620be9)" d="M 271.701363 113.853543 
L 272.966217 113.853543 
L 272.966217 106.817668 
L 271.701363 106.817668 
z
" style="fill:#2ca02c;"/>
   </g>
   <g id="patch_92">
    <path clip-path="url(#p4dd2620be9)" d="M 284.349896 113.853543 
L 285.614749 113.853543 
L 285.614749 104.210932 
L 284.349896 104.210932 
z
" style="fill:#2ca02c;"/>
   </g>
   <g id="patch_93">
    <path clip-path="url(#p4dd2620be9)" d="M 296.998429 113.853543 
L 298.263282 113.853543 
L 298.263282 102.420945 
L 296.998429 102.420945 
z
" style="fill:#2ca02c;"/>
   </g>
   <g id="patch_94">
    <path clip-path="url(#p4dd2620be9)" d="M 309.646961 113.853543 
L 310.911814 113.853543 
L 310.911814 99.107837 
L 309.646961 99.107837 
z
" style="fill:#2ca02c;"/>
   </g>
   <g id="patch_95">
    <path clip-path="url(#p4dd2620be9)" d="M 322.295494 113.853543 
L 323.560347 113.853543 
L 323.560347 92.068677 
L 322.295494 92.068677 
z
" style="fill:#2ca02c;"/>
   </g>
   <g id="patch_96">
    <path clip-path="url(#p4dd2620be9)" d="M 334.944026 113.853543 
L 336.20888 113.853543 
L 336.20888 79.73878 
L 334.944026 79.73878 
z
" style="fill:#2ca02c;"/>
   </g>
   <g id="patch_97">
    <path clip-path="url(#p4dd2620be9)" d="M 272.966217 113.853543 
L 274.23107 113.853543 
L 274.23107 107.199123 
L 272.966217 107.199123 
z
" style="fill:#d62728;"/>
   </g>
   <g id="patch_98">
    <path clip-path="url(#p4dd2620be9)" d="M 285.614749 113.853543 
L 286.879602 113.853543 
L 286.879602 104.633916 
L 285.614749 104.633916 
z
" style="fill:#d62728;"/>
   </g>
   <g id="patch_99">
    <path clip-path="url(#p4dd2620be9)" d="M 298.263282 113.853543 
L 299.528135 113.853543 
L 299.528135 103.10041 
L 298.263282 103.10041 
z
" style="fill:#d62728;"/>
   </g>
   <g id="patch_100">
    <path clip-path="url(#p4dd2620be9)" d="M 310.911814 113.853543 
L 312.176668 113.853543 
L 312.176668 100.128154 
L 310.911814 100.128154 
z
" style="fill:#d62728;"/>
   </g>
   <g id="patch_101">
    <path clip-path="url(#p4dd2620be9)" d="M 323.560347 113.853543 
L 324.8252 113.853543 
L 324.8252 93.606393 
L 323.560347 93.606393 
z
" style="fill:#d62728;"/>
   </g>
   <g id="patch_102">
    <path clip-path="url(#p4dd2620be9)" d="M 336.20888 113.853543 
L 337.473733 113.853543 
L 337.473733 79.842859 
L 336.20888 79.842859 
z
" style="fill:#d62728;"/>
   </g>
   <g id="patch_103">
    <path clip-path="url(#p4dd2620be9)" d="M 274.23107 113.853543 
L 275.495923 113.853543 
L 275.495923 106.815135 
L 274.23107 106.815135 
z
" style="fill:#9467bd;"/>
   </g>
   <g id="patch_104">
    <path clip-path="url(#p4dd2620be9)" d="M 286.879602 113.853543 
L 288.144456 113.853543 
L 288.144456 104.065866 
L 286.879602 104.065866 
z
" style="fill:#9467bd;"/>
   </g>
   <g id="patch_105">
    <path clip-path="url(#p4dd2620be9)" d="M 299.528135 113.853543 
L 300.792988 113.853543 
L 300.792988 102.753562 
L 299.528135 102.753562 
z
" style="fill:#9467bd;"/>
   </g>
   <g id="patch_106">
    <path clip-path="url(#p4dd2620be9)" d="M 312.176668 113.853543 
L 313.441521 113.853543 
L 313.441521 99.461002 
L 312.176668 99.461002 
z
" style="fill:#9467bd;"/>
   </g>
   <g id="patch_107">
    <path clip-path="url(#p4dd2620be9)" d="M 324.8252 113.853543 
L 326.090053 113.853543 
L 326.090053 93.050339 
L 324.8252 93.050339 
z
" style="fill:#9467bd;"/>
   </g>
   <g id="patch_108">
    <path clip-path="url(#p4dd2620be9)" d="M 337.473733 113.853543 
L 338.738586 113.853543 
L 338.738586 79.419905 
L 337.473733 79.419905 
z
" style="fill:#9467bd;"/>
   </g>
   <g id="matplotlib.axis_5">
    <g id="xtick_13">
     <g id="line2d_20">
      <g>
       <use style="stroke:#000000;stroke-width:0.8;" x="272.33379" xlink:href="#m4cf38f3c4d" y="113.853543"/>
      </g>
     </g>
     <g id="text_30">
      <!-- 36 -->
      <g transform="translate(270.550334 130.913132)rotate(-45)scale(0.07 -0.07)">
       <use xlink:href="#DejaVuSans-51"/>
       <use x="63.623047" xlink:href="#DejaVuSans-54"/>
      </g>
     </g>
    </g>
    <g id="xtick_14">
     <g id="line2d_21">
      <g>
       <use style="stroke:#000000;stroke-width:0.8;" x="284.982323" xlink:href="#m4cf38f3c4d" y="113.853543"/>
      </g>
     </g>
     <g id="text_31">
      <!-- 72 -->
      <g transform="translate(283.198867 130.913132)rotate(-45)scale(0.07 -0.07)">
       <use xlink:href="#DejaVuSans-55"/>
       <use x="63.623047" xlink:href="#DejaVuSans-50"/>
      </g>
     </g>
    </g>
    <g id="xtick_15">
     <g id="line2d_22">
      <g>
       <use style="stroke:#000000;stroke-width:0.8;" x="297.630855" xlink:href="#m4cf38f3c4d" y="113.853543"/>
      </g>
     </g>
     <g id="text_32">
      <!-- 144 -->
      <g transform="translate(294.272761 134.062408)rotate(-45)scale(0.07 -0.07)">
       <use xlink:href="#DejaVuSans-49"/>
       <use x="63.623047" xlink:href="#DejaVuSans-52"/>
       <use x="127.246094" xlink:href="#DejaVuSans-52"/>
      </g>
     </g>
    </g>
    <g id="xtick_16">
     <g id="line2d_23">
      <g>
       <use style="stroke:#000000;stroke-width:0.8;" x="310.279388" xlink:href="#m4cf38f3c4d" y="113.853543"/>
      </g>
     </g>
     <g id="text_33">
      <!-- 288 -->
      <g transform="translate(306.921293 134.062408)rotate(-45)scale(0.07 -0.07)">
       <use xlink:href="#DejaVuSans-50"/>
       <use x="63.623047" xlink:href="#DejaVuSans-56"/>
       <use x="127.246094" xlink:href="#DejaVuSans-56"/>
      </g>
     </g>
    </g>
    <g id="xtick_17">
     <g id="line2d_24">
      <g>
       <use style="stroke:#000000;stroke-width:0.8;" x="322.92792" xlink:href="#m4cf38f3c4d" y="113.853543"/>
      </g>
     </g>
     <g id="text_34">
      <!-- 576 -->
      <g transform="translate(319.569826 134.062408)rotate(-45)scale(0.07 -0.07)">
       <use xlink:href="#DejaVuSans-53"/>
       <use x="63.623047" xlink:href="#DejaVuSans-55"/>
       <use x="127.246094" xlink:href="#DejaVuSans-54"/>
      </g>
     </g>
    </g>
    <g id="xtick_18">
     <g id="line2d_25">
      <g>
       <use style="stroke:#000000;stroke-width:0.8;" x="335.576453" xlink:href="#m4cf38f3c4d" y="113.853543"/>
      </g>
     </g>
     <g id="text_35">
      <!-- 1152 -->
      <g transform="translate(330.64372 137.211685)rotate(-45)scale(0.07 -0.07)">
       <use xlink:href="#DejaVuSans-49"/>
       <use x="63.623047" xlink:href="#DejaVuSans-49"/>
       <use x="127.246094" xlink:href="#DejaVuSans-53"/>
       <use x="190.869141" xlink:href="#DejaVuSans-50"/>
      </g>
     </g>
    </g>
    <g id="text_36">
     <!-- N_VP -->
     <g transform="translate(295.082075 147.365297)scale(0.07 -0.07)">
      <use xlink:href="#DejaVuSans-78"/>
      <use x="74.804688" xlink:href="#DejaVuSans-95"/>
      <use x="124.804688" xlink:href="#DejaVuSans-86"/>
      <use x="193.212891" xlink:href="#DejaVuSans-80"/>
     </g>
    </g>
   </g>
   <g id="matplotlib.axis_6">
    <g id="ytick_8">
     <g id="line2d_26">
      <g>
       <use style="stroke:#000000;stroke-width:0.8;" x="266.009524" xlink:href="#m4d1041df02" y="113.853543"/>
      </g>
     </g>
     <g id="text_37">
      <!-- 0 -->
      <g transform="translate(254.555774 116.512996)scale(0.07 -0.07)">
       <use xlink:href="#DejaVuSans-48"/>
      </g>
     </g>
    </g>
    <g id="ytick_9">
     <g id="line2d_27">
      <g>
       <use style="stroke:#000000;stroke-width:0.8;" x="266.009524" xlink:href="#m4d1041df02" y="93.590247"/>
      </g>
     </g>
     <g id="text_38">
      <!-- 250 -->
      <g transform="translate(245.648274 96.2497)scale(0.07 -0.07)">
       <use xlink:href="#DejaVuSans-50"/>
       <use x="63.623047" xlink:href="#DejaVuSans-53"/>
       <use x="127.246094" xlink:href="#DejaVuSans-48"/>
      </g>
     </g>
    </g>
    <g id="ytick_10">
     <g id="line2d_28">
      <g>
       <use style="stroke:#000000;stroke-width:0.8;" x="266.009524" xlink:href="#m4d1041df02" y="73.32695"/>
      </g>
     </g>
     <g id="text_39">
      <!-- 500 -->
      <g transform="translate(245.648274 75.986403)scale(0.07 -0.07)">
       <use xlink:href="#DejaVuSans-53"/>
       <use x="63.623047" xlink:href="#DejaVuSans-48"/>
       <use x="127.246094" xlink:href="#DejaVuSans-48"/>
      </g>
     </g>
    </g>
    <g id="ytick_11">
     <g id="line2d_29">
      <g>
       <use style="stroke:#000000;stroke-width:0.8;" x="266.009524" xlink:href="#m4d1041df02" y="53.063653"/>
      </g>
     </g>
     <g id="text_40">
      <!-- 750 -->
      <g transform="translate(245.648274 55.723106)scale(0.07 -0.07)">
       <use xlink:href="#DejaVuSans-55"/>
       <use x="63.623047" xlink:href="#DejaVuSans-53"/>
       <use x="127.246094" xlink:href="#DejaVuSans-48"/>
      </g>
     </g>
    </g>
   </g>
   <g id="patch_109">
    <path d="M 266.009524 113.853543 
L 266.009524 38.948031 
" style="fill:none;stroke:#000000;stroke-linecap:square;stroke-linejoin:miter;stroke-width:0.8;"/>
   </g>
   <g id="patch_110">
    <path d="M 341.900719 113.853543 
L 341.900719 38.948031 
" style="fill:none;stroke:#000000;stroke-linecap:square;stroke-linejoin:miter;stroke-width:0.8;"/>
   </g>
   <g id="patch_111">
    <path d="M 266.009524 113.853543 
L 341.900719 113.853543 
" style="fill:none;stroke:#000000;stroke-linecap:square;stroke-linejoin:miter;stroke-width:0.8;"/>
   </g>
   <g id="patch_112">
    <path d="M 266.009524 38.948031 
L 341.900719 38.948031 
" style="fill:none;stroke:#000000;stroke-linecap:square;stroke-linejoin:miter;stroke-width:0.8;"/>
   </g>
   <g id="text_41">
    <!-- Conn. Total -->
    <g transform="translate(283.94934 32.948031)scale(0.07 -0.07)">
     <use xlink:href="#DejaVuSans-67"/>
     <use x="69.824219" xlink:href="#DejaVuSans-111"/>
     <use x="131.005859" xlink:href="#DejaVuSans-110"/>
     <use x="194.384766" xlink:href="#DejaVuSans-110"/>
     <use x="257.763672" xlink:href="#DejaVuSans-46"/>
     <use x="289.550781" xlink:href="#DejaVuSans-32"/>
     <use x="321.337891" xlink:href="#DejaVuSans-84"/>
     <use x="382.15625" xlink:href="#DejaVuSans-111"/>
     <use x="443.337891" xlink:href="#DejaVuSans-116"/>
     <use x="482.546875" xlink:href="#DejaVuSans-97"/>
     <use x="543.826172" xlink:href="#DejaVuSans-108"/>
    </g>
   </g>
  </g>
  <g id="axes_4">
   <g id="patch_113">
    <path d="M 379.846317 113.853543 
L 455.737512 113.853543 
L 455.737512 38.948031 
L 379.846317 38.948031 
z
" style="fill:#ffffff;"/>
   </g>
   <g id="patch_114">
    <path clip-path="url(#p117129dc96)" d="M 383.00845 113.853543 
L 384.273303 113.853543 
L 384.273303 62.953025 
L 383.00845 62.953025 
z
" style="fill:#1f77b4;"/>
   </g>
   <g id="patch_115">
    <path clip-path="url(#p117129dc96)" d="M 395.656983 113.853543 
L 396.921836 113.853543 
L 396.921836 46.802517 
L 395.656983 46.802517 
z
" style="fill:#1f77b4;"/>
   </g>
   <g id="patch_116">
    <path clip-path="url(#p117129dc96)" d="M 408.305515 113.853543 
L 409.570368 113.853543 
L 409.570368 45.053399 
L 408.305515 45.053399 
z
" style="fill:#1f77b4;"/>
   </g>
   <g id="patch_117">
    <path clip-path="url(#p117129dc96)" d="M 420.954048 113.853543 
L 422.218901 113.853543 
L 422.218901 46.531114 
L 420.954048 46.531114 
z
" style="fill:#1f77b4;"/>
   </g>
   <g id="patch_118">
    <path clip-path="url(#p117129dc96)" d="M 433.60258 113.853543 
L 434.867434 113.853543 
L 434.867434 45.171048 
L 433.60258 45.171048 
z
" style="fill:#1f77b4;"/>
   </g>
   <g id="patch_119">
    <path clip-path="url(#p117129dc96)" d="M 446.251113 113.853543 
L 447.515966 113.853543 
L 447.515966 43.2762 
L 446.251113 43.2762 
z
" style="fill:#1f77b4;"/>
   </g>
   <g id="patch_120">
    <path clip-path="url(#p117129dc96)" d="M 384.273303 113.853543 
L 385.538157 113.853543 
L 385.538157 62.630769 
L 384.273303 62.630769 
z
" style="fill:#ff7f0e;"/>
   </g>
   <g id="patch_121">
    <path clip-path="url(#p117129dc96)" d="M 396.921836 113.853543 
L 398.186689 113.853543 
L 398.186689 46.204397 
L 396.921836 46.204397 
z
" style="fill:#ff7f0e;"/>
   </g>
   <g id="patch_122">
    <path clip-path="url(#p117129dc96)" d="M 409.570368 113.853543 
L 410.835222 113.853543 
L 410.835222 44.295292 
L 409.570368 44.295292 
z
" style="fill:#ff7f0e;"/>
   </g>
   <g id="patch_123">
    <path clip-path="url(#p117129dc96)" d="M 422.218901 113.853543 
L 423.483754 113.853543 
L 423.483754 44.42198 
L 422.218901 44.42198 
z
" style="fill:#ff7f0e;"/>
   </g>
   <g id="patch_124">
    <path clip-path="url(#p117129dc96)" d="M 434.867434 113.853543 
L 436.132287 113.853543 
L 436.132287 44.412944 
L 434.867434 44.412944 
z
" style="fill:#ff7f0e;"/>
   </g>
   <g id="patch_125">
    <path clip-path="url(#p117129dc96)" d="M 447.515966 113.853543 
L 448.780819 113.853543 
L 448.780819 44.396871 
L 447.515966 44.396871 
z
" style="fill:#ff7f0e;"/>
   </g>
   <g id="patch_126">
    <path clip-path="url(#p117129dc96)" d="M 385.538157 113.853543 
L 386.80301 113.853543 
L 386.80301 60.646646 
L 385.538157 60.646646 
z
" style="fill:#2ca02c;"/>
   </g>
   <g id="patch_127">
    <path clip-path="url(#p117129dc96)" d="M 398.186689 113.853543 
L 399.451542 113.853543 
L 399.451542 44.424064 
L 398.186689 44.424064 
z
" style="fill:#2ca02c;"/>
   </g>
   <g id="patch_128">
    <path clip-path="url(#p117129dc96)" d="M 410.835222 113.853543 
L 412.100075 113.853543 
L 412.100075 42.514961 
L 410.835222 42.514961 
z
" style="fill:#2ca02c;"/>
   </g>
   <g id="patch_129">
    <path clip-path="url(#p117129dc96)" d="M 423.483754 113.853543 
L 424.748608 113.853543 
L 424.748608 42.641647 
L 423.483754 42.641647 
z
" style="fill:#2ca02c;"/>
   </g>
   <g id="patch_130">
    <path clip-path="url(#p117129dc96)" d="M 436.132287 113.853543 
L 437.39714 113.853543 
L 437.39714 42.572966 
L 436.132287 42.572966 
z
" style="fill:#2ca02c;"/>
   </g>
   <g id="patch_131">
    <path clip-path="url(#p117129dc96)" d="M 448.780819 113.853543 
L 450.045673 113.853543 
L 450.045673 42.556893 
L 448.780819 42.556893 
z
" style="fill:#2ca02c;"/>
   </g>
   <g id="patch_132">
    <path clip-path="url(#p117129dc96)" d="M 386.80301 113.853543 
L 388.067863 113.853543 
L 388.067863 60.640588 
L 386.80301 60.640588 
z
" style="fill:#d62728;"/>
   </g>
   <g id="patch_133">
    <path clip-path="url(#p117129dc96)" d="M 399.451542 113.853543 
L 400.716396 113.853543 
L 400.716396 44.655657 
L 399.451542 44.655657 
z
" style="fill:#d62728;"/>
   </g>
   <g id="patch_134">
    <path clip-path="url(#p117129dc96)" d="M 412.100075 113.853543 
L 413.364928 113.853543 
L 413.364928 42.746552 
L 412.100075 42.746552 
z
" style="fill:#d62728;"/>
   </g>
   <g id="patch_135">
    <path clip-path="url(#p117129dc96)" d="M 424.748608 113.853543 
L 426.013461 113.853543 
L 426.013461 42.874171 
L 424.748608 42.874171 
z
" style="fill:#d62728;"/>
   </g>
   <g id="patch_136">
    <path clip-path="url(#p117129dc96)" d="M 437.39714 113.853543 
L 438.661993 113.853543 
L 438.661993 42.80549 
L 437.39714 42.80549 
z
" style="fill:#d62728;"/>
   </g>
   <g id="patch_137">
    <path clip-path="url(#p117129dc96)" d="M 450.045673 113.853543 
L 451.310526 113.853543 
L 451.310526 42.788485 
L 450.045673 42.788485 
z
" style="fill:#d62728;"/>
   </g>
   <g id="patch_138">
    <path clip-path="url(#p117129dc96)" d="M 388.067863 113.853543 
L 389.332716 113.853543 
L 389.332716 61.355405 
L 388.067863 61.355405 
z
" style="fill:#9467bd;"/>
   </g>
   <g id="patch_139">
    <path clip-path="url(#p117129dc96)" d="M 400.716396 113.853543 
L 401.981249 113.853543 
L 401.981249 44.655579 
L 400.716396 44.655579 
z
" style="fill:#9467bd;"/>
   </g>
   <g id="patch_140">
    <path clip-path="url(#p117129dc96)" d="M 413.364928 113.853543 
L 414.629781 113.853543 
L 414.629781 42.74628 
L 413.364928 42.74628 
z
" style="fill:#9467bd;"/>
   </g>
   <g id="patch_141">
    <path clip-path="url(#p117129dc96)" d="M 426.013461 113.853543 
L 427.278314 113.853543 
L 427.278314 42.874035 
L 426.013461 42.874035 
z
" style="fill:#9467bd;"/>
   </g>
   <g id="patch_142">
    <path clip-path="url(#p117129dc96)" d="M 438.661993 113.853543 
L 439.926847 113.853543 
L 439.926847 42.80549 
L 438.661993 42.80549 
z
" style="fill:#9467bd;"/>
   </g>
   <g id="patch_143">
    <path clip-path="url(#p117129dc96)" d="M 451.310526 113.853543 
L 452.575379 113.853543 
L 452.575379 42.788077 
L 451.310526 42.788077 
z
" style="fill:#9467bd;"/>
   </g>
   <g id="matplotlib.axis_7">
    <g id="xtick_19">
     <g id="line2d_30">
      <g>
       <use style="stroke:#000000;stroke-width:0.8;" x="386.170583" xlink:href="#m4cf38f3c4d" y="113.853543"/>
      </g>
     </g>
     <g id="text_42">
      <!-- 36 -->
      <g transform="translate(384.387127 130.913132)rotate(-45)scale(0.07 -0.07)">
       <use xlink:href="#DejaVuSans-51"/>
       <use x="63.623047" xlink:href="#DejaVuSans-54"/>
      </g>
     </g>
    </g>
    <g id="xtick_20">
     <g id="line2d_31">
      <g>
       <use style="stroke:#000000;stroke-width:0.8;" x="398.819116" xlink:href="#m4cf38f3c4d" y="113.853543"/>
      </g>
     </g>
     <g id="text_43">
      <!-- 72 -->
      <g transform="translate(397.03566 130.913132)rotate(-45)scale(0.07 -0.07)">
       <use xlink:href="#DejaVuSans-55"/>
       <use x="63.623047" xlink:href="#DejaVuSans-50"/>
      </g>
     </g>
    </g>
    <g id="xtick_21">
     <g id="line2d_32">
      <g>
       <use style="stroke:#000000;stroke-width:0.8;" x="411.467648" xlink:href="#m4cf38f3c4d" y="113.853543"/>
      </g>
     </g>
     <g id="text_44">
      <!-- 144 -->
      <g transform="translate(408.109554 134.062408)rotate(-45)scale(0.07 -0.07)">
       <use xlink:href="#DejaVuSans-49"/>
       <use x="63.623047" xlink:href="#DejaVuSans-52"/>
       <use x="127.246094" xlink:href="#DejaVuSans-52"/>
      </g>
     </g>
    </g>
    <g id="xtick_22">
     <g id="line2d_33">
      <g>
       <use style="stroke:#000000;stroke-width:0.8;" x="424.116181" xlink:href="#m4cf38f3c4d" y="113.853543"/>
      </g>
     </g>
     <g id="text_45">
      <!-- 288 -->
      <g transform="translate(420.758087 134.062408)rotate(-45)scale(0.07 -0.07)">
       <use xlink:href="#DejaVuSans-50"/>
       <use x="63.623047" xlink:href="#DejaVuSans-56"/>
       <use x="127.246094" xlink:href="#DejaVuSans-56"/>
      </g>
     </g>
    </g>
    <g id="xtick_23">
     <g id="line2d_34">
      <g>
       <use style="stroke:#000000;stroke-width:0.8;" x="436.764713" xlink:href="#m4cf38f3c4d" y="113.853543"/>
      </g>
     </g>
     <g id="text_46">
      <!-- 576 -->
      <g transform="translate(433.406619 134.062408)rotate(-45)scale(0.07 -0.07)">
       <use xlink:href="#DejaVuSans-53"/>
       <use x="63.623047" xlink:href="#DejaVuSans-55"/>
       <use x="127.246094" xlink:href="#DejaVuSans-54"/>
      </g>
     </g>
    </g>
    <g id="xtick_24">
     <g id="line2d_35">
      <g>
       <use style="stroke:#000000;stroke-width:0.8;" x="449.413246" xlink:href="#m4cf38f3c4d" y="113.853543"/>
      </g>
     </g>
     <g id="text_47">
      <!-- 1152 -->
      <g transform="translate(444.480513 137.211685)rotate(-45)scale(0.07 -0.07)">
       <use xlink:href="#DejaVuSans-49"/>
       <use x="63.623047" xlink:href="#DejaVuSans-49"/>
       <use x="127.246094" xlink:href="#DejaVuSans-53"/>
       <use x="190.869141" xlink:href="#DejaVuSans-50"/>
      </g>
     </g>
    </g>
    <g id="text_48">
     <!-- N_VP -->
     <g transform="translate(408.918868 147.365297)scale(0.07 -0.07)">
      <use xlink:href="#DejaVuSans-78"/>
      <use x="74.804688" xlink:href="#DejaVuSans-95"/>
      <use x="124.804688" xlink:href="#DejaVuSans-86"/>
      <use x="193.212891" xlink:href="#DejaVuSans-80"/>
     </g>
    </g>
   </g>
   <g id="matplotlib.axis_8">
    <g id="ytick_12">
     <g id="line2d_36">
      <g>
       <use style="stroke:#000000;stroke-width:0.8;" x="379.846317" xlink:href="#m4d1041df02" y="113.853543"/>
      </g>
     </g>
     <g id="text_49">
      <!-- 0 -->
      <g transform="translate(368.392567 116.512996)scale(0.07 -0.07)">
       <use xlink:href="#DejaVuSans-48"/>
      </g>
     </g>
    </g>
    <g id="ytick_13">
     <g id="line2d_37">
      <g>
       <use style="stroke:#000000;stroke-width:0.8;" x="379.846317" xlink:href="#m4d1041df02" y="90.949724"/>
      </g>
     </g>
     <g id="text_50">
      <!-- 1 -->
      <g transform="translate(368.392567 93.609178)scale(0.07 -0.07)">
       <use xlink:href="#DejaVuSans-49"/>
      </g>
     </g>
    </g>
    <g id="ytick_14">
     <g id="line2d_38">
      <g>
       <use style="stroke:#000000;stroke-width:0.8;" x="379.846317" xlink:href="#m4d1041df02" y="68.045906"/>
      </g>
     </g>
     <g id="text_51">
      <!-- 2 -->
      <g transform="translate(368.392567 70.705359)scale(0.07 -0.07)">
       <use xlink:href="#DejaVuSans-50"/>
      </g>
     </g>
    </g>
    <g id="ytick_15">
     <g id="line2d_39">
      <g>
       <use style="stroke:#000000;stroke-width:0.8;" x="379.846317" xlink:href="#m4d1041df02" y="45.142087"/>
      </g>
     </g>
     <g id="text_52">
      <!-- 3 -->
      <g transform="translate(368.392567 47.80154)scale(0.07 -0.07)">
       <use xlink:href="#DejaVuSans-51"/>
      </g>
     </g>
    </g>
    <g id="text_53">
     <!-- Memory [GiB] -->
     <defs>
      <path d="M 9.8125 72.90625 
L 24.515625 72.90625 
L 43.109375 23.296875 
L 61.8125 72.90625 
L 76.515625 72.90625 
L 76.515625 0 
L 66.890625 0 
L 66.890625 64.015625 
L 48.09375 14.015625 
L 38.1875 14.015625 
L 19.390625 64.015625 
L 19.390625 0 
L 9.8125 0 
z
" id="DejaVuSans-77"/>
      <path d="M 32.171875 -5.078125 
Q 28.375 -14.84375 24.75 -17.8125 
Q 21.140625 -20.796875 15.09375 -20.796875 
L 7.90625 -20.796875 
L 7.90625 -13.28125 
L 13.1875 -13.28125 
Q 16.890625 -13.28125 18.9375 -11.515625 
Q 21 -9.765625 23.484375 -3.21875 
L 25.09375 0.875 
L 2.984375 54.6875 
L 12.5 54.6875 
L 29.59375 11.921875 
L 46.6875 54.6875 
L 56.203125 54.6875 
z
" id="DejaVuSans-121"/>
      <path d="M 59.515625 10.40625 
L 59.515625 29.984375 
L 43.40625 29.984375 
L 43.40625 38.09375 
L 69.28125 38.09375 
L 69.28125 6.78125 
Q 63.578125 2.734375 56.6875 0.65625 
Q 49.8125 -1.421875 42 -1.421875 
Q 24.90625 -1.421875 15.25 8.5625 
Q 5.609375 18.5625 5.609375 36.375 
Q 5.609375 54.25 15.25 64.234375 
Q 24.90625 74.21875 42 74.21875 
Q 49.125 74.21875 55.546875 72.453125 
Q 61.96875 70.703125 67.390625 67.28125 
L 67.390625 56.78125 
Q 61.921875 61.421875 55.765625 63.765625 
Q 49.609375 66.109375 42.828125 66.109375 
Q 29.4375 66.109375 22.71875 58.640625 
Q 16.015625 51.171875 16.015625 36.375 
Q 16.015625 21.625 22.71875 14.15625 
Q 29.4375 6.6875 42.828125 6.6875 
Q 48.046875 6.6875 52.140625 7.59375 
Q 56.25 8.5 59.515625 10.40625 
z
" id="DejaVuSans-71"/>
      <path d="M 19.671875 34.8125 
L 19.671875 8.109375 
L 35.5 8.109375 
Q 43.453125 8.109375 47.28125 11.40625 
Q 51.125 14.703125 51.125 21.484375 
Q 51.125 28.328125 47.28125 31.5625 
Q 43.453125 34.8125 35.5 34.8125 
z
M 19.671875 64.796875 
L 19.671875 42.828125 
L 34.28125 42.828125 
Q 41.5 42.828125 45.03125 45.53125 
Q 48.578125 48.25 48.578125 53.8125 
Q 48.578125 59.328125 45.03125 62.0625 
Q 41.5 64.796875 34.28125 64.796875 
z
M 9.8125 72.90625 
L 35.015625 72.90625 
Q 46.296875 72.90625 52.390625 68.21875 
Q 58.5 63.53125 58.5 54.890625 
Q 58.5 48.1875 55.375 44.234375 
Q 52.25 40.28125 46.1875 39.3125 
Q 53.46875 37.75 57.5 32.78125 
Q 61.53125 27.828125 61.53125 20.40625 
Q 61.53125 10.640625 54.890625 5.3125 
Q 48.25 0 35.984375 0 
L 9.8125 0 
z
" id="DejaVuSans-66"/>
     </defs>
     <g transform="translate(362.936786 100.564459)rotate(-90)scale(0.07 -0.07)">
      <use xlink:href="#DejaVuSans-77"/>
      <use x="86.279297" xlink:href="#DejaVuSans-101"/>
      <use x="147.802734" xlink:href="#DejaVuSans-109"/>
      <use x="245.214844" xlink:href="#DejaVuSans-111"/>
      <use x="306.396484" xlink:href="#DejaVuSans-114"/>
      <use x="347.509766" xlink:href="#DejaVuSans-121"/>
      <use x="406.689453" xlink:href="#DejaVuSans-32"/>
      <use x="438.476562" xlink:href="#DejaVuSans-91"/>
      <use x="477.490234" xlink:href="#DejaVuSans-71"/>
      <use x="554.980469" xlink:href="#DejaVuSans-105"/>
      <use x="582.763672" xlink:href="#DejaVuSans-66"/>
      <use x="651.367188" xlink:href="#DejaVuSans-93"/>
     </g>
    </g>
   </g>
   <g id="patch_144">
    <path d="M 379.846317 113.853543 
L 379.846317 38.948031 
" style="fill:none;stroke:#000000;stroke-linecap:square;stroke-linejoin:miter;stroke-width:0.8;"/>
   </g>
   <g id="patch_145">
    <path d="M 455.737512 113.853543 
L 455.737512 38.948031 
" style="fill:none;stroke:#000000;stroke-linecap:square;stroke-linejoin:miter;stroke-width:0.8;"/>
   </g>
   <g id="patch_146">
    <path d="M 379.846317 113.853543 
L 455.737512 113.853543 
" style="fill:none;stroke:#000000;stroke-linecap:square;stroke-linejoin:miter;stroke-width:0.8;"/>
   </g>
   <g id="patch_147">
    <path d="M 379.846317 38.948031 
L 455.737512 38.948031 
" style="fill:none;stroke:#000000;stroke-linecap:square;stroke-linejoin:miter;stroke-width:0.8;"/>
   </g>
   <g id="text_54">
    <!-- Memory per VP -->
    <defs>
     <path d="M 18.109375 8.203125 
L 18.109375 -20.796875 
L 9.078125 -20.796875 
L 9.078125 54.6875 
L 18.109375 54.6875 
L 18.109375 46.390625 
Q 20.953125 51.265625 25.265625 53.625 
Q 29.59375 56 35.59375 56 
Q 45.5625 56 51.78125 48.09375 
Q 58.015625 40.1875 58.015625 27.296875 
Q 58.015625 14.40625 51.78125 6.484375 
Q 45.5625 -1.421875 35.59375 -1.421875 
Q 29.59375 -1.421875 25.265625 0.953125 
Q 20.953125 3.328125 18.109375 8.203125 
z
M 48.6875 27.296875 
Q 48.6875 37.203125 44.609375 42.84375 
Q 40.53125 48.484375 33.40625 48.484375 
Q 26.265625 48.484375 22.1875 42.84375 
Q 18.109375 37.203125 18.109375 27.296875 
Q 18.109375 17.390625 22.1875 11.75 
Q 26.265625 6.109375 33.40625 6.109375 
Q 40.53125 6.109375 44.609375 11.75 
Q 48.6875 17.390625 48.6875 27.296875 
z
" id="DejaVuSans-112"/>
    </defs>
    <g transform="translate(391.013633 32.948031)scale(0.07 -0.07)">
     <use xlink:href="#DejaVuSans-77"/>
     <use x="86.279297" xlink:href="#DejaVuSans-101"/>
     <use x="147.802734" xlink:href="#DejaVuSans-109"/>
     <use x="245.214844" xlink:href="#DejaVuSans-111"/>
     <use x="306.396484" xlink:href="#DejaVuSans-114"/>
     <use x="347.509766" xlink:href="#DejaVuSans-121"/>
     <use x="406.689453" xlink:href="#DejaVuSans-32"/>
     <use x="438.476562" xlink:href="#DejaVuSans-112"/>
     <use x="501.953125" xlink:href="#DejaVuSans-101"/>
     <use x="563.476562" xlink:href="#DejaVuSans-114"/>
     <use x="604.589844" xlink:href="#DejaVuSans-32"/>
     <use x="636.376953" xlink:href="#DejaVuSans-86"/>
     <use x="704.785156" xlink:href="#DejaVuSans-80"/>
    </g>
   </g>
  </g>
  <g id="text_55">
   <!-- Population model weak scaling -->
   <defs>
    <path d="M 8.5 21.578125 
L 8.5 54.6875 
L 17.484375 54.6875 
L 17.484375 21.921875 
Q 17.484375 14.15625 20.5 10.265625 
Q 23.53125 6.390625 29.59375 6.390625 
Q 36.859375 6.390625 41.078125 11.03125 
Q 45.3125 15.671875 45.3125 23.6875 
L 45.3125 54.6875 
L 54.296875 54.6875 
L 54.296875 0 
L 45.3125 0 
L 45.3125 8.40625 
Q 42.046875 3.421875 37.71875 1 
Q 33.40625 -1.421875 27.6875 -1.421875 
Q 18.265625 -1.421875 13.375 4.4375 
Q 8.5 10.296875 8.5 21.578125 
z
M 31.109375 56 
z
" id="DejaVuSans-117"/>
    <path d="M 4.203125 54.6875 
L 13.1875 54.6875 
L 24.421875 12.015625 
L 35.59375 54.6875 
L 46.1875 54.6875 
L 57.421875 12.015625 
L 68.609375 54.6875 
L 77.59375 54.6875 
L 63.28125 0 
L 52.6875 0 
L 40.921875 44.828125 
L 29.109375 0 
L 18.5 0 
z
" id="DejaVuSans-119"/>
    <path d="M 9.078125 75.984375 
L 18.109375 75.984375 
L 18.109375 31.109375 
L 44.921875 54.6875 
L 56.390625 54.6875 
L 27.390625 29.109375 
L 57.625 0 
L 45.90625 0 
L 18.109375 26.703125 
L 18.109375 0 
L 9.078125 0 
z
" id="DejaVuSans-107"/>
   </defs>
   <g transform="translate(147.369129 16.318125)scale(0.12 -0.12)">
    <use xlink:href="#DejaVuSans-80"/>
    <use x="60.255859" xlink:href="#DejaVuSans-111"/>
    <use x="121.4375" xlink:href="#DejaVuSans-112"/>
    <use x="184.914062" xlink:href="#DejaVuSans-117"/>
    <use x="248.292969" xlink:href="#DejaVuSans-108"/>
    <use x="276.076172" xlink:href="#DejaVuSans-97"/>
    <use x="337.355469" xlink:href="#DejaVuSans-116"/>
    <use x="376.564453" xlink:href="#DejaVuSans-105"/>
    <use x="404.347656" xlink:href="#DejaVuSans-111"/>
    <use x="465.529297" xlink:href="#DejaVuSans-110"/>
    <use x="528.908203" xlink:href="#DejaVuSans-32"/>
    <use x="560.695312" xlink:href="#DejaVuSans-109"/>
    <use x="658.107422" xlink:href="#DejaVuSans-111"/>
    <use x="719.289062" xlink:href="#DejaVuSans-100"/>
    <use x="782.765625" xlink:href="#DejaVuSans-101"/>
    <use x="844.289062" xlink:href="#DejaVuSans-108"/>
    <use x="872.072266" xlink:href="#DejaVuSans-32"/>
    <use x="903.859375" xlink:href="#DejaVuSans-119"/>
    <use x="985.646484" xlink:href="#DejaVuSans-101"/>
    <use x="1047.169922" xlink:href="#DejaVuSans-97"/>
    <use x="1108.449219" xlink:href="#DejaVuSans-107"/>
    <use x="1166.359375" xlink:href="#DejaVuSans-32"/>
    <use x="1198.146484" xlink:href="#DejaVuSans-115"/>
    <use x="1250.246094" xlink:href="#DejaVuSans-99"/>
    <use x="1305.226562" xlink:href="#DejaVuSans-97"/>
    <use x="1366.505859" xlink:href="#DejaVuSans-108"/>
    <use x="1394.289062" xlink:href="#DejaVuSans-105"/>
    <use x="1422.072266" xlink:href="#DejaVuSans-110"/>
    <use x="1485.451172" xlink:href="#DejaVuSans-103"/>
   </g>
  </g>
 </g>
 <defs>
  <clipPath id="p3416a7e934">
   <rect height="74.905512" width="75.891195" x="38.335937" y="38.948031"/>
  </clipPath>
  <clipPath id="pe9c606bcee">
   <rect height="74.905512" width="75.891195" x="152.172731" y="38.948031"/>
  </clipPath>
  <clipPath id="p4dd2620be9">
   <rect height="74.905512" width="75.891195" x="266.009524" y="38.948031"/>
  </clipPath>
  <clipPath id="p117129dc96">
   <rect height="74.905512" width="75.891195" x="379.846317" y="38.948031"/>
  </clipPath>
 </defs>
</svg>
